  0
SECTION
  2
HEADER
  9
$ACADVER
  1
AC1014
  9
$HANDSEED
  5
FFFF
  9
$MEASUREMENT
 70
     1
  0
ENDSEC
  0
SECTION
  2
TABLES
  0
TABLE
  2
VPORT
  5
8
330
0
100
AcDbSymbolTable
 70
     4
  0
VPORT
  5
2E
330
8
100
AcDbSymbolTableRecord
100
AcDbViewportTableRecord
  2
*ACTIVE
 70
     0
 10
0.0
 20
0.0
 11
1.0
 21
1.0
 12
210.0
 22
148.5
 13
0.0
 23
0.0
 14
10.0
 24
10.0
 15
10.0
 25
10.0
 16
0.0
 26
0.0
 36
1.0
 17
0.0
 27
0.0
 37
0.0
 40
341.0
 41
1.24
 42
50.0
 43
0.0
 44
0.0
 50
0.0
 51
0.0
 71
     0
 72
   100
 73
     1
 74
     3
 75
     0
 76
     0
 77
     0
 78
     0
  0
ENDTAB
  0
TABLE
  2
LTYPE
  5
5
330
0
100
AcDbSymbolTable
 70
     1
  0
LTYPE
  5
14
330
5
100
AcDbSymbolTableRecord
100
AcDbLinetypeTableRecord
  2
BYBLOCK
 70
     0
  3

 72
    65
 73
     0
 40
0.0
  0
LTYPE
  5
15
330
5
100
AcDbSymbolTableRecord
100
AcDbLinetypeTableRecord
  2
BYLAYER
 70
     0
  3

 72
    65
 73
     0
 40
0.0
  0
LTYPE
  5
16
330
5
100
AcDbSymbolTableRecord
100
AcDbLinetypeTableRecord
  2
CONTINUOUS
 70
     0
  3
Solid line
 72
    65
 73
     0
 40
0.0
  0
ENDTAB
  0
TABLE
  2
LAYER
  5
2
100
AcDbSymbolTable
 70
1
  0
LAYER
  5
50
100
AcDbSymbolTableRecord
100
AcDbLayerTableRecord
  2
0
 70
0
  6
CONTINUOUS
  0
ENDTAB
  0
TABLE
  2
STYLE
  5
3
330
0
100
AcDbSymbolTable
 70
     1
  0
STYLE
  5
11
330
3
100
AcDbSymbolTableRecord
100
AcDbTextStyleTableRecord
  2
STANDARD
 70
     0
 40
0.0
 41
1.0
 50
0.0
 71
     0
 42
2.5
  3
txt
  4

  0
ENDTAB
  0
TABLE
  2
VIEW
  5
6
330
0
100
AcDbSymbolTable
 70
     0
  0
ENDTAB
  0
TABLE
  2
UCS
  5
7
330
0
100
AcDbSymbolTable
 70
     0
  0
ENDTAB
  0
TABLE
  2
APPID
  5
9
330
0
100
AcDbSymbolTable
 70
     2
  0
APPID
  5
12
330
9
100
AcDbSymbolTableRecord
100
AcDbRegAppTableRecord
  2
ACAD
 70
     0
  0
ENDTAB
  0
TABLE
  2
DIMSTYLE
  5
A
330
0
100
AcDbSymbolTable
 70
     1
  0
DIMSTYLE
105
27
330
A
100
AcDbSymbolTableRecord
100
AcDbDimStyleTableRecord
  2
ISO-25
 70
     0
  3

  4

  5

  6

  7

 40
1.0
 41
2.5
 42
0.625
 43
3.75
 44
1.25
 45
0.0
 46
0.0
 47
0.0
 48
0.0
140
2.5
141
2.5
142
0.0
143
0.03937007874016
144
1.0
145
0.0
146
1.0
147
0.625
 71
     0
 72
     0
 73
     0
 74
     0
 75
     0
 76
     0
 77
     1
 78
     8
170
     0
171
     3
172
     1
173
     0
174
     0
175
     0
176
     0
177
     0
178
     0
270
     2
271
     2
272
     2
273
     2
274
     3
340
11
275
     0
280
     0
281
     0
282
     0
283
     0
284
     8
285
     0
286
     0
287
     3
288
     0
  0
ENDTAB
  0
TABLE
  2
BLOCK_RECORD
  5
1
330
0
100
AcDbSymbolTable
 70
     1
  0
BLOCK_RECORD
  5
1F
330
1
100
AcDbSymbolTableRecord
100
AcDbBlockTableRecord
  2
*MODEL_SPACE
  0
BLOCK_RECORD
  5
1B
330
1
100
AcDbSymbolTableRecord
100
AcDbBlockTableRecord
  2
*PAPER_SPACE
  0
ENDTAB
  0
ENDSEC
  0
SECTION
  2
BLOCKS
  0
BLOCK
  5
20
330
1F
100
AcDbEntity
  8
0
100
AcDbBlockBegin
  2
*MODEL_SPACE
 70
     0
 10
0.0
 20
0.0
 30
0.0
  3
*MODEL_SPACE
  1

  0
ENDBLK
  5
21
330
1F
100
AcDbEntity
  8
0
100
AcDbBlockEnd
  0
BLOCK
  5
1C
330
1B
100
AcDbEntity
 67
     1
  8
0
100
AcDbBlockBegin
  2
*PAPER_SPACE
  1

  0
ENDBLK
  5
1D
330
1B
100
AcDbEntity
 67
     1
  8
0
100
AcDbBlockEnd
  0
ENDSEC
  0
SECTION
  2
ENTITIES
  0
SPLINE
  5
100
100
AcDbEntity
  8
0
 62
7
100
AcDbSpline
 70
8
 71
3
 72
8
 73
4
 74
0
 40
0
 40
0
 40
0
 40
0
 40
1
 40
1
 40
1
 40
1
 10
2.330851
 20
11.704217
 30
0.0
 10
2.294529
 20
11.701671
 30
0.0
 10
2.258061
 20
11.673355
 30
0.0
 10
2.219940
 20
11.602678
 30
0.0
  0
SPLINE
  5
101
100
AcDbEntity
  8
0
 62
7
100
AcDbSpline
 70
8
 71
3
 72
8
 73
4
 74
0
 40
0
 40
0
 40
0
 40
0
 40
1
 40
1
 40
1
 40
1
 10
2.219940
 20
11.602678
 30
0.0
 10
2.003650
 20
11.422835
 30
0.0
 10
1.911029
 20
11.701502
 30
0.0
 10
1.762238
 20
11.607365
 30
0.0
  0
SPLINE
  5
102
100
AcDbEntity
  8
0
 62
7
100
AcDbSpline
 70
8
 71
3
 72
8
 73
4
 74
0
 40
0
 40
0
 40
0
 40
0
 40
1
 40
1
 40
1
 40
1
 10
1.762238
 20
11.607365
 30
0.0
 10
1.754546
 20
11.536900
 30
0.0
 10
1.681712
 20
11.465709
 30
0.0
 10
1.598215
 20
11.572998
 30
0.0
  0
SPLINE
  5
103
100
AcDbEntity
  8
0
 62
7
100
AcDbSpline
 70
8
 71
3
 72
8
 73
4
 74
0
 40
0
 40
0
 40
0
 40
0
 40
1
 40
1
 40
1
 40
1
 10
1.598215
 20
11.572998
 30
0.0
 10
1.448507
 20
11.712597
 30
0.0
 10
1.374157
 20
11.750852
 30
0.0
 10
1.502925
 20
11.504265
 30
0.0
  0
SPLINE
  5
104
100
AcDbEntity
  8
0
 62
7
100
AcDbSpline
 70
8
 71
3
 72
8
 73
4
 74
0
 40
0
 40
0
 40
0
 40
0
 40
1
 40
1
 40
1
 40
1
 10
1.502925
 20
11.504265
 30
0.0
 10
1.541442
 20
11.312165
 30
0.0
 10
1.616093
 20
11.104204
 30
0.0
 10
1.516984
 20
11.021568
 30
0.0
  0
SPLINE
  5
105
100
AcDbEntity
  8
0
 62
7
100
AcDbSpline
 70
8
 71
3
 72
8
 73
4
 74
0
 40
0
 40
0
 40
0
 40
0
 40
1
 40
1
 40
1
 40
1
 10
1.516984
 20
11.021568
 30
0.0
 10
1.342899
 20
10.928186
 30
0.0
 10
1.555486
 20
10.703849
 30
0.0
 10
1.459186
 20
10.535748
 30
0.0
  0
SPLINE
  5
106
100
AcDbEntity
  8
0
 62
7
100
AcDbSpline
 70
8
 71
3
 72
8
 73
4
 74
0
 40
0
 40
0
 40
0
 40
0
 40
1
 40
1
 40
1
 40
1
 10
1.459186
 20
10.535748
 30
0.0
 10
1.427188
 20
10.320760
 30
0.0
 10
1.586080
 20
10.244238
 30
0.0
 10
1.479493
 20
10.046803
 30
0.0
  0
SPLINE
  5
107
100
AcDbEntity
  8
0
 62
7
100
AcDbSpline
 70
8
 71
3
 72
8
 73
4
 74
0
 40
0
 40
0
 40
0
 40
0
 40
1
 40
1
 40
1
 40
1
 10
1.479493
 20
10.046803
 30
0.0
 10
1.482351
 20
9.873246
 30
0.0
 10
1.638743
 20
9.655533
 30
0.0
 10
1.426381
 20
9.715632
 30
0.0
  0
SPLINE
  5
108
100
AcDbEntity
  8
0
 62
7
100
AcDbSpline
 70
8
 71
3
 72
8
 73
4
 74
0
 40
0
 40
0
 40
0
 40
0
 40
1
 40
1
 40
1
 40
1
 10
1.426381
 20
9.715632
 30
0.0
 10
1.448519
 20
9.533045
 30
0.0
 10
1.335396
 20
9.287195
 30
0.0
 10
1.409198
 20
9.217315
 30
0.0
  0
SPLINE
  5
109
100
AcDbEntity
  8
0
 62
7
100
AcDbSpline
 70
8
 71
3
 72
8
 73
4
 74
0
 40
0
 40
0
 40
0
 40
0
 40
1
 40
1
 40
1
 40
1
 10
1.409198
 20
9.217315
 30
0.0
 10
1.506436
 20
9.093160
 30
0.0
 10
1.351112
 20
9.041899
 30
0.0
 10
1.398263
 20
8.815849
 30
0.0
  0
SPLINE
  5
10a
100
AcDbEntity
  8
0
 62
7
100
AcDbSpline
 70
8
 71
3
 72
8
 73
4
 74
0
 40
0
 40
0
 40
0
 40
0
 40
1
 40
1
 40
1
 40
1
 10
1.398263
 20
8.815849
 30
0.0
 10
1.486663
 20
8.994057
 30
0.0
 10
1.355950
 20
8.643047
 30
0.0
 10
1.290476
 20
8.509673
 30
0.0
  0
SPLINE
  5
10b
100
AcDbEntity
  8
0
 62
7
100
AcDbSpline
 70
8
 71
3
 72
8
 73
4
 74
0
 40
0
 40
0
 40
0
 40
0
 40
1
 40
1
 40
1
 40
1
 10
1.290476
 20
8.509673
 30
0.0
 10
1.391177
 20
8.454078
 30
0.0
 10
1.218002
 20
8.284023
 30
0.0
 10
1.274855
 20
8.117579
 30
0.0
  0
SPLINE
  5
10c
100
AcDbEntity
  8
0
 62
7
100
AcDbSpline
 70
8
 71
3
 72
8
 73
4
 74
0
 40
0
 40
0
 40
0
 40
0
 40
1
 40
1
 40
1
 40
1
 10
1.274855
 20
8.117579
 30
0.0
 10
1.252880
 20
8.137780
 30
0.0
 10
1.174011
 20
7.890420
 30
0.0
 10
1.149885
 20
7.744232
 30
0.0
  0
SPLINE
  5
10d
100
AcDbEntity
  8
0
 62
7
100
AcDbSpline
 70
8
 71
3
 72
8
 73
4
 74
0
 40
0
 40
0
 40
0
 40
0
 40
1
 40
1
 40
1
 40
1
 10
1.149885
 20
7.744232
 30
0.0
 10
1.167386
 20
7.580615
 30
0.0
 10
1.172366
 20
7.354150
 30
0.0
 10
1.145199
 20
7.294340
 30
0.0
  0
SPLINE
  5
10e
100
AcDbEntity
  8
0
 62
7
100
AcDbSpline
 70
8
 71
3
 72
8
 73
4
 74
0
 40
0
 40
0
 40
0
 40
0
 40
1
 40
1
 40
1
 40
1
 10
1.145199
 20
7.294340
 30
0.0
 10
1.092611
 20
7.011183
 30
0.0
 10
1.114695
 20
6.743902
 30
0.0
 10
1.031164
 20
6.471100
 30
0.0
  0
SPLINE
  5
10f
100
AcDbEntity
  8
0
 62
7
100
AcDbSpline
 70
8
 71
3
 72
8
 73
4
 74
0
 40
0
 40
0
 40
0
 40
0
 40
1
 40
1
 40
1
 40
1
 10
1.031164
 20
6.471100
 30
0.0
 10
0.991481
 20
5.945564
 30
0.0
 10
0.945846
 20
5.444649
 30
0.0
 10
0.835898
 20
4.930846
 30
0.0
  0
SPLINE
  5
110
100
AcDbEntity
  8
0
 62
7
100
AcDbSpline
 70
8
 71
3
 72
8
 73
4
 74
0
 40
0
 40
0
 40
0
 40
0
 40
1
 40
1
 40
1
 40
1
 10
0.835898
 20
4.930846
 30
0.0
 10
0.682887
 20
4.560557
 30
0.0
 10
1.001852
 20
4.994465
 30
0.0
 10
0.795283
 20
4.713711
 30
0.0
  0
SPLINE
  5
111
100
AcDbEntity
  8
0
 62
7
100
AcDbSpline
 70
8
 71
3
 72
8
 73
4
 74
0
 40
0
 40
0
 40
0
 40
0
 40
1
 40
1
 40
1
 40
1
 10
0.795283
 20
4.713711
 30
0.0
 10
0.726872
 20
4.376621
 30
0.0
 10
0.578790
 20
4.067841
 30
0.0
 10
0.379758
 20
3.785809
 30
0.0
  0
SPLINE
  5
112
100
AcDbEntity
  8
0
 62
7
100
AcDbSpline
 70
8
 71
3
 72
8
 73
4
 74
0
 40
0
 40
0
 40
0
 40
0
 40
1
 40
1
 40
1
 40
1
 10
0.379758
 20
3.785809
 30
0.0
 10
0.387062
 20
3.517151
 30
0.0
 10
0.273873
 20
3.248957
 30
0.0
 10
0.223546
 20
2.979753
 30
0.0
  0
SPLINE
  5
113
100
AcDbEntity
  8
0
 62
7
100
AcDbSpline
 70
8
 71
3
 72
8
 73
4
 74
0
 40
0
 40
0
 40
0
 40
0
 40
1
 40
1
 40
1
 40
1
 10
0.223546
 20
2.979753
 30
0.0
 10
0.211138
 20
2.734107
 30
0.0
 10
-0.092336
 20
2.540299
 30
0.0
 10
0.028280
 20
2.304915
 30
0.0
  0
SPLINE
  5
114
100
AcDbEntity
  8
0
 62
7
100
AcDbSpline
 70
8
 71
3
 72
8
 73
4
 74
0
 40
0
 40
0
 40
0
 40
0
 40
1
 40
1
 40
1
 40
1
 10
0.028280
 20
2.304915
 30
0.0
 10
0.077090
 20
2.105417
 30
0.0
 10
0.279309
 20
2.004553
 30
0.0
 10
0.267285
 20
1.781603
 30
0.0
  0
SPLINE
  5
115
100
AcDbEntity
  8
0
 62
7
100
AcDbSpline
 70
8
 71
3
 72
8
 73
4
 74
0
 40
0
 40
0
 40
0
 40
0
 40
1
 40
1
 40
1
 40
1
 10
0.267285
 20
1.781603
 30
0.0
 10
0.335250
 20
1.637519
 30
0.0
 10
0.085382
 20
1.292790
 30
0.0
 10
0.271971
 20
1.322339
 30
0.0
  0
SPLINE
  5
116
100
AcDbEntity
  8
0
 62
7
100
AcDbSpline
 70
8
 71
3
 72
8
 73
4
 74
0
 40
0
 40
0
 40
0
 40
0
 40
1
 40
1
 40
1
 40
1
 10
0.271971
 20
1.322339
 30
0.0
 10
0.102467
 20
1.203406
 30
0.0
 10
0.216000
 20
0.882556
 30
0.0
 10
0.282906
 20
0.711548
 30
0.0
  0
SPLINE
  5
117
100
AcDbEntity
  8
0
 62
7
100
AcDbSpline
 70
8
 71
3
 72
8
 73
4
 74
0
 40
0
 40
0
 40
0
 40
0
 40
1
 40
1
 40
1
 40
1
 10
0.282906
 20
0.711548
 30
0.0
 10
0.270242
 20
0.480964
 30
0.0
 10
0.385728
 20
0.294300
 30
0.0
 10
0.567213
 20
0.158556
 30
0.0
  0
SPLINE
  5
118
100
AcDbEntity
  8
0
 62
7
100
AcDbSpline
 70
8
 71
3
 72
8
 73
4
 74
0
 40
0
 40
0
 40
0
 40
0
 40
1
 40
1
 40
1
 40
1
 10
0.567213
 20
0.158556
 30
0.0
 10
0.773015
 20
0.078139
 30
0.0
 10
1.044772
 20
0.128001
 30
0.0
 10
1.274855
 20
0.096072
 30
0.0
  0
SPLINE
  5
119
100
AcDbEntity
  8
0
 62
7
100
AcDbSpline
 70
8
 71
3
 72
8
 73
4
 74
0
 40
0
 40
0
 40
0
 40
0
 40
1
 40
1
 40
1
 40
1
 10
1.274855
 20
0.096072
 30
0.0
 10
3.134099
 20
0.056982
 30
0.0
 10
4.996189
 20
0.057110
 30
0.0
 10
6.856325
 20
0.003906
 30
0.0
  0
SPLINE
  5
11a
100
AcDbEntity
  8
0
 62
7
100
AcDbSpline
 70
8
 71
3
 72
8
 73
4
 74
0
 40
0
 40
0
 40
0
 40
0
 40
1
 40
1
 40
1
 40
1
 10
6.856325
 20
0.003906
 30
0.0
 10
9.670746
 20
-0.020184
 30
0.0
 10
12.485709
 20
0.069376
 30
0.0
 10
15.296482
 20
0.211669
 30
0.0
  0
SPLINE
  5
11b
100
AcDbEntity
  8
0
 62
7
100
AcDbSpline
 70
8
 71
3
 72
8
 73
4
 74
0
 40
0
 40
0
 40
0
 40
0
 40
1
 40
1
 40
1
 40
1
 10
15.296482
 20
0.211669
 30
0.0
 10
15.223160
 20
1.734000
 30
0.0
 10
15.154147
 20
3.255580
 30
0.0
 10
15.077785
 20
4.777758
 30
0.0
  0
SPLINE
  5
11c
100
AcDbEntity
  8
0
 62
7
100
AcDbSpline
 70
8
 71
3
 72
8
 73
4
 74
0
 40
0
 40
0
 40
0
 40
0
 40
1
 40
1
 40
1
 40
1
 10
15.077785
 20
4.777758
 30
0.0
 10
15.063952
 20
5.016028
 30
0.0
 10
15.016085
 20
5.257159
 30
0.0
 10
15.155891
 20
5.460406
 30
0.0
  0
SPLINE
  5
11d
100
AcDbEntity
  8
0
 62
7
100
AcDbSpline
 70
8
 71
3
 72
8
 73
4
 74
0
 40
0
 40
0
 40
0
 40
0
 40
1
 40
1
 40
1
 40
1
 10
15.155891
 20
5.460406
 30
0.0
 10
15.276237
 20
5.687354
 30
0.0
 10
15.029569
 20
5.926438
 30
0.0
 10
15.249618
 20
6.104001
 30
0.0
  0
SPLINE
  5
11e
100
AcDbEntity
  8
0
 62
7
100
AcDbSpline
 70
8
 71
3
 72
8
 73
4
 74
0
 40
0
 40
0
 40
0
 40
0
 40
1
 40
1
 40
1
 40
1
 10
15.249618
 20
6.104001
 30
0.0
 10
15.221633
 20
6.275745
 30
0.0
 10
14.920038
 20
6.364669
 30
0.0
 10
14.771608
 20
6.471100
 30
0.0
  0
SPLINE
  5
11f
100
AcDbEntity
  8
0
 62
7
100
AcDbSpline
 70
8
 71
3
 72
8
 73
4
 74
0
 40
0
 40
0
 40
0
 40
0
 40
1
 40
1
 40
1
 40
1
 10
14.771608
 20
6.471100
 30
0.0
 10
14.569882
 20
6.475249
 30
0.0
 10
14.598852
 20
6.762200
 30
0.0
 10
14.601337
 20
6.944424
 30
0.0
  0
SPLINE
  5
120
100
AcDbEntity
  8
0
 62
7
100
AcDbSpline
 70
8
 71
3
 72
8
 73
4
 74
0
 40
0
 40
0
 40
0
 40
0
 40
1
 40
1
 40
1
 40
1
 10
14.601337
 20
6.944424
 30
0.0
 10
14.672554
 20
7.133475
 30
0.0
 10
14.783399
 20
7.295851
 30
0.0
 10
14.824721
 20
7.511475
 30
0.0
  0
SPLINE
  5
121
100
AcDbEntity
  8
0
 62
7
100
AcDbSpline
 70
8
 71
3
 72
8
 73
4
 74
0
 40
0
 40
0
 40
0
 40
0
 40
1
 40
1
 40
1
 40
1
 10
14.824721
 20
7.511475
 30
0.0
 10
14.811288
 20
7.768627
 30
0.0
 10
15.113122
 20
7.778246
 30
0.0
 10
15.165264
 20
7.995734
 30
0.0
  0
SPLINE
  5
122
100
AcDbEntity
  8
0
 62
7
100
AcDbSpline
 70
8
 71
3
 72
8
 73
4
 74
0
 40
0
 40
0
 40
0
 40
0
 40
1
 40
1
 40
1
 40
1
 10
15.165264
 20
7.995734
 30
0.0
 10
15.315251
 20
8.173381
 30
0.0
 10
15.248581
 20
8.364995
 30
0.0
 10
15.271488
 20
8.553412
 30
0.0
  0
SPLINE
  5
123
100
AcDbEntity
  8
0
 62
7
100
AcDbSpline
 70
8
 71
3
 72
8
 73
4
 74
0
 40
0
 40
0
 40
0
 40
0
 40
1
 40
1
 40
1
 40
1
 10
15.271488
 20
8.553412
 30
0.0
 10
15.553316
 20
8.890140
 30
0.0
 10
15.488829
 20
9.374969
 30
0.0
 10
15.733877
 20
9.734378
 30
0.0
  0
SPLINE
  5
124
100
AcDbEntity
  8
0
 62
7
100
AcDbSpline
 70
8
 71
3
 72
8
 73
4
 74
0
 40
0
 40
0
 40
0
 40
0
 40
1
 40
1
 40
1
 40
1
 10
15.733877
 20
9.734378
 30
0.0
 10
15.688978
 20
9.945618
 30
0.0
 10
16.001569
 20
10.119754
 30
0.0
 10
15.815108
 20
10.309240
 30
0.0
  0
SPLINE
  5
125
100
AcDbEntity
  8
0
 62
7
100
AcDbSpline
 70
8
 71
3
 72
8
 73
4
 74
0
 40
0
 40
0
 40
0
 40
0
 40
1
 40
1
 40
1
 40
1
 10
15.815108
 20
10.309240
 30
0.0
 10
15.760151
 20
10.541698
 30
0.0
 10
15.582746
 20
10.620353
 30
0.0
 10
15.393334
 20
10.713830
 30
0.0
  0
SPLINE
  5
126
100
AcDbEntity
  8
0
 62
7
100
AcDbSpline
 70
8
 71
3
 72
8
 73
4
 74
0
 40
0
 40
0
 40
0
 40
0
 40
1
 40
1
 40
1
 40
1
 10
15.393334
 20
10.713830
 30
0.0
 10
15.186552
 20
10.738626
 30
0.0
 10
15.082968
 20
10.997565
 30
0.0
 10
14.980933
 20
11.188716
 30
0.0
  0
SPLINE
  5
127
100
AcDbEntity
  8
0
 62
7
100
AcDbSpline
 70
8
 71
3
 72
8
 73
4
 74
0
 40
0
 40
0
 40
0
 40
0
 40
1
 40
1
 40
1
 40
1
 10
14.980933
 20
11.188716
 30
0.0
 10
13.751327
 20
11.131648
 30
0.0
 10
12.521678
 20
11.095179
 30
0.0
 10
11.291196
 20
11.062183
 30
0.0
  0
SPLINE
  5
128
100
AcDbEntity
  8
0
 62
7
100
AcDbSpline
 70
8
 71
3
 72
8
 73
4
 74
0
 40
0
 40
0
 40
0
 40
0
 40
1
 40
1
 40
1
 40
1
 10
11.291196
 20
11.062183
 30
0.0
 10
11.027587
 20
11.134344
 30
0.0
 10
10.912726
 20
10.893549
 30
0.0
 10
10.674157
 20
10.846610
 30
0.0
  0
SPLINE
  5
129
100
AcDbEntity
  8
0
 62
7
100
AcDbSpline
 70
8
 71
3
 72
8
 73
4
 74
0
 40
0
 40
0
 40
0
 40
0
 40
1
 40
1
 40
1
 40
1
 10
10.674157
 20
10.846610
 30
0.0
 10
10.456022
 20
10.867049
 30
0.0
 10
10.229360
 20
10.828608
 30
0.0
 10
10.014940
 20
10.762256
 30
0.0
  0
SPLINE
  5
12a
100
AcDbEntity
  8
0
 62
7
100
AcDbSpline
 70
8
 71
3
 72
8
 73
4
 74
0
 40
0
 40
0
 40
0
 40
0
 40
1
 40
1
 40
1
 40
1
 10
10.014940
 20
10.762256
 30
0.0
 10
9.797686
 20
10.939558
 30
0.0
 10
9.767659
 20
10.540842
 30
0.0
 10
9.546303
 20
10.609167
 30
0.0
  0
SPLINE
  5
12b
100
AcDbEntity
  8
0
 62
7
100
AcDbSpline
 70
8
 71
3
 72
8
 73
4
 74
0
 40
0
 40
0
 40
0
 40
0
 40
1
 40
1
 40
1
 40
1
 10
9.546303
 20
10.609167
 30
0.0
 10
9.302310
 20
10.578674
 30
0.0
 10
9.087526
 20
10.503215
 30
0.0
 10
8.868341
 20
10.398281
 30
0.0
  0
SPLINE
  5
12c
100
AcDbEntity
  8
0
 62
7
100
AcDbSpline
 70
8
 71
3
 72
8
 73
4
 74
0
 40
0
 40
0
 40
0
 40
0
 40
1
 40
1
 40
1
 40
1
 10
8.868341
 20
10.398281
 30
0.0
 10
8.705369
 20
10.275358
 30
0.0
 10
8.526822
 20
10.207371
 30
0.0
 10
8.312225
 20
10.187394
 30
0.0
  0
SPLINE
  5
12d
100
AcDbEntity
  8
0
 62
7
100
AcDbSpline
 70
8
 71
3
 72
8
 73
4
 74
0
 40
0
 40
0
 40
0
 40
0
 40
1
 40
1
 40
1
 40
1
 10
8.312225
 20
10.187394
 30
0.0
 10
8.084013
 20
10.098409
 30
0.0
 10
7.912928
 20
10.459109
 30
0.0
 10
7.704558
 20
10.201453
 30
0.0
  0
SPLINE
  5
12e
100
AcDbEntity
  8
0
 62
7
100
AcDbSpline
 70
8
 71
3
 72
8
 73
4
 74
0
 40
0
 40
0
 40
0
 40
0
 40
1
 40
1
 40
1
 40
1
 10
7.704558
 20
10.201453
 30
0.0
 10
7.536535
 20
10.179799
 30
0.0
 10
7.391288
 20
9.979389
 30
0.0
 10
7.245294
 20
10.049927
 30
0.0
  0
SPLINE
  5
12f
100
AcDbEntity
  8
0
 62
7
100
AcDbSpline
 70
8
 71
3
 72
8
 73
4
 74
0
 40
0
 40
0
 40
0
 40
0
 40
1
 40
1
 40
1
 40
1
 10
7.245294
 20
10.049927
 30
0.0
 10
7.052947
 20
10.150720
 30
0.0
 10
6.934125
 20
9.866750
 30
0.0
 10
6.786029
 20
9.946827
 30
0.0
  0
SPLINE
  5
130
100
AcDbEntity
  8
0
 62
7
100
AcDbSpline
 70
8
 71
3
 72
8
 73
4
 74
0
 40
0
 40
0
 40
0
 40
0
 40
1
 40
1
 40
1
 40
1
 10
6.786029
 20
9.946827
 30
0.0
 10
6.776314
 20
10.144299
 30
0.0
 10
6.507651
 20
10.220898
 30
0.0
 10
6.343948
 20
10.153027
 30
0.0
  0
SPLINE
  5
131
100
AcDbEntity
  8
0
 62
7
100
AcDbSpline
 70
8
 71
3
 72
8
 73
4
 74
0
 40
0
 40
0
 40
0
 40
0
 40
1
 40
1
 40
1
 40
1
 10
6.343948
 20
10.153027
 30
0.0
 10
6.160580
 20
10.320326
 30
0.0
 10
5.929782
 20
10.163138
 30
0.0
 10
5.723785
 20
10.170211
 30
0.0
  0
SPLINE
  5
132
100
AcDbEntity
  8
0
 62
7
100
AcDbSpline
 70
8
 71
3
 72
8
 73
4
 74
0
 40
0
 40
0
 40
0
 40
0
 40
1
 40
1
 40
1
 40
1
 10
5.723785
 20
10.170211
 30
0.0
 10
5.492612
 20
10.281525
 30
0.0
 10
5.408592
 20
10.016108
 30
0.0
 10
5.227029
 20
9.943703
 30
0.0
  0
SPLINE
  5
133
100
AcDbEntity
  8
0
 62
7
100
AcDbSpline
 70
8
 71
3
 72
8
 73
4
 74
0
 40
0
 40
0
 40
0
 40
0
 40
1
 40
1
 40
1
 40
1
 10
5.227029
 20
9.943703
 30
0.0
 10
5.038213
 20
9.845046
 30
0.0
 10
4.859781
 20
9.808288
 30
0.0
 10
4.799007
 20
9.773431
 30
0.0
  0
SPLINE
  5
134
100
AcDbEntity
  8
0
 62
7
100
AcDbSpline
 70
8
 71
3
 72
8
 73
4
 74
0
 40
0
 40
0
 40
0
 40
0
 40
1
 40
1
 40
1
 40
1
 10
4.799007
 20
9.773431
 30
0.0
 10
4.587615
 20
9.702645
 30
0.0
 10
4.445806
 20
9.859156
 30
0.0
 10
4.222584
 20
9.823419
 30
0.0
  0
SPLINE
  5
135
100
AcDbEntity
  8
0
 62
7
100
AcDbSpline
 70
8
 71
3
 72
8
 73
4
 74
0
 40
0
 40
0
 40
0
 40
0
 40
1
 40
1
 40
1
 40
1
 10
4.222584
 20
9.823419
 30
0.0
 10
4.062567
 20
9.957144
 30
0.0
 10
3.768104
 20
9.903515
 30
0.0
 10
3.728952
 20
10.168648
 30
0.0
  0
SPLINE
  5
136
100
AcDbEntity
  8
0
 62
7
100
AcDbSpline
 70
8
 71
3
 72
8
 73
4
 74
0
 40
0
 40
0
 40
0
 40
0
 40
1
 40
1
 40
1
 40
1
 10
3.728952
 20
10.168648
 30
0.0
 10
3.742058
 20
10.236675
 30
0.0
 10
3.747468
 20
10.304113
 30
0.0
 10
3.744574
 20
10.373287
 30
0.0
  0
SPLINE
  5
137
100
AcDbEntity
  8
0
 62
7
100
AcDbSpline
 70
8
 71
3
 72
8
 73
4
 74
0
 40
0
 40
0
 40
0
 40
0
 40
1
 40
1
 40
1
 40
1
 10
3.744574
 20
10.373287
 30
0.0
 10
3.647807
 20
10.579751
 30
0.0
 10
3.734319
 20
10.853954
 30
0.0
 10
3.578988
 20
11.030941
 30
0.0
  0
SPLINE
  5
138
100
AcDbEntity
  8
0
 62
7
100
AcDbSpline
 70
8
 71
3
 72
8
 73
4
 74
0
 40
0
 40
0
 40
0
 40
0
 40
1
 40
1
 40
1
 40
1
 10
3.578988
 20
11.030941
 30
0.0
 10
3.571466
 20
11.290601
 30
0.0
 10
3.297006
 20
11.366534
 30
0.0
 10
3.133783
 20
11.498016
 30
0.0
  0
SPLINE
  5
139
100
AcDbEntity
  8
0
 62
7
100
AcDbSpline
 70
8
 71
3
 72
8
 73
4
 74
0
 40
0
 40
0
 40
0
 40
0
 40
1
 40
1
 40
1
 40
1
 10
3.133783
 20
11.498016
 30
0.0
 10
2.944963
 20
11.601826
 30
0.0
 10
2.837644
 20
11.305287
 30
0.0
 10
2.616720
 20
11.457401
 30
0.0
  0
SPLINE
  5
13a
100
AcDbEntity
  8
0
 62
7
100
AcDbSpline
 70
8
 71
3
 72
8
 73
4
 74
0
 40
0
 40
0
 40
0
 40
0
 40
1
 40
1
 40
1
 40
1
 10
2.616720
 20
11.457401
 30
0.0
 10
2.526102
 20
11.527909
 30
0.0
 10
2.437717
 20
11.692571
 30
0.0
 10
2.346472
 20
11.704217
 30
0.0
  0
SPLINE
  5
13b
100
AcDbEntity
  8
0
 62
7
100
AcDbSpline
 70
8
 71
3
 72
8
 73
4
 74
0
 40
0
 40
0
 40
0
 40
0
 40
1
 40
1
 40
1
 40
1
 10
2.346472
 20
11.704217
 30
0.0
 10
2.341288
 20
11.704878
 30
0.0
 10
2.336040
 20
11.704581
 30
0.0
 10
2.330851
 20
11.704217
 30
0.0
  0
LINE
  5
13c
100
AcDbEntity
  8
0
 62
7
100
AcDbLine
 10
2.330851
 20
11.704217
 30
0.0
 11
2.330851
 21
11.704217
 31
0.0
  0
LINE
  5
13d
100
AcDbEntity
  8
0
 62
7
100
AcDbLine
 10
6.051831
 20
9.222001
 30
0.0
 11
6.481415
 21
9.222001
 31
0.0
  0
LINE
  5
13e
100
AcDbEntity
  8
0
 62
7
100
AcDbLine
 10
6.481415
 20
9.222001
 30
0.0
 11
6.507971
 21
9.015801
 31
0.0
  0
LINE
  5
13f
100
AcDbEntity
  8
0
 62
7
100
AcDbLine
 10
6.507971
 20
9.015801
 30
0.0
 11
9.568173
 21
9.051730
 31
0.0
  0
LINE
  5
140
100
AcDbEntity
  8
0
 62
7
100
AcDbLine
 10
9.568173
 20
9.051730
 30
0.0
 11
9.647841
 21
9.222001
 31
0.0
  0
LINE
  5
141
100
AcDbEntity
  8
0
 62
7
100
AcDbLine
 10
9.647841
 20
9.222001
 30
0.0
 11
10.014940
 21
9.222001
 31
0.0
  0
LINE
  5
142
100
AcDbEntity
  8
0
 62
7
100
AcDbLine
 10
10.014940
 20
9.222001
 30
0.0
 11
12.047264
 21
4.890231
 31
0.0
  0
LINE
  5
143
100
AcDbEntity
  8
0
 62
7
100
AcDbLine
 10
12.047264
 20
4.890231
 30
0.0
 11
11.912921
 21
4.621545
 31
0.0
  0
LINE
  5
144
100
AcDbEntity
  8
0
 62
7
100
AcDbLine
 10
11.912921
 20
4.621545
 30
0.0
 11
11.545822
 21
4.604363
 31
0.0
  0
LINE
  5
145
100
AcDbEntity
  8
0
 62
7
100
AcDbLine
 10
11.545822
 20
4.604363
 30
0.0
 11
10.050869
 21
1.990930
 31
0.0
  0
LINE
  5
146
100
AcDbEntity
  8
0
 62
7
100
AcDbLine
 10
10.050869
 20
1.990930
 30
0.0
 11
10.185212
 21
1.695688
 31
0.0
  0
LINE
  5
147
100
AcDbEntity
  8
0
 62
7
100
AcDbLine
 10
10.185212
 20
1.695688
 30
0.0
 11
10.077425
 21
1.481677
 31
0.0
  0
LINE
  5
148
100
AcDbEntity
  8
0
 62
7
100
AcDbLine
 10
10.077425
 20
1.481677
 30
0.0
 11
9.657214
 21
1.462931
 31
0.0
  0
LINE
  5
149
100
AcDbEntity
  8
0
 62
7
100
AcDbLine
 10
9.657214
 20
1.462931
 30
0.0
 11
9.541617
 21
1.678504
 31
0.0
  0
LINE
  5
14a
100
AcDbEntity
  8
0
 62
7
100
AcDbLine
 10
9.541617
 20
1.678504
 30
0.0
 11
6.464232
 21
1.705060
 31
0.0
  0
LINE
  5
14b
100
AcDbEntity
  8
0
 62
7
100
AcDbLine
 10
6.464232
 20
1.705060
 30
0.0
 11
6.498598
 21
1.606647
 31
0.0
  0
LINE
  5
14c
100
AcDbEntity
  8
0
 62
7
100
AcDbLine
 10
6.498598
 20
1.606647
 30
0.0
 11
6.417368
 21
1.391074
 31
0.0
  0
LINE
  5
14d
100
AcDbEntity
  8
0
 62
7
100
AcDbLine
 10
6.417368
 20
1.391074
 30
0.0
 11
6.184612
 21
1.383263
 31
0.0
  0
LINE
  5
14e
100
AcDbEntity
  8
0
 62
7
100
AcDbLine
 10
6.184612
 20
1.383263
 30
0.0
 11
4.117921
 21
5.900926
 31
0.0
  0
LINE
  5
14f
100
AcDbEntity
  8
0
 62
7
100
AcDbLine
 10
4.117921
 20
5.900926
 30
0.0
 11
4.411601
 21
6.297706
 31
0.0
  0
LINE
  5
150
100
AcDbEntity
  8
0
 62
7
100
AcDbLine
 10
4.411601
 20
6.297706
 30
0.0
 11
4.508452
 21
6.285210
 31
0.0
  0
LINE
  5
151
100
AcDbEntity
  8
0
 62
7
100
AcDbLine
 10
4.508452
 20
6.285210
 30
0.0
 11
5.911240
 21
8.670573
 31
0.0
  0
LINE
  5
152
100
AcDbEntity
  8
0
 62
7
100
AcDbLine
 10
5.911240
 20
8.670573
 30
0.0
 11
5.925300
 21
8.962691
 31
0.0
  0
LINE
  5
153
100
AcDbEntity
  8
0
 62
7
100
AcDbLine
 10
5.925300
 20
8.962691
 30
0.0
 11
6.051831
 21
9.222001
 31
0.0
  0
SPLINE
  5
154
100
AcDbEntity
  8
0
 62
7
100
AcDbSpline
 70
8
 71
3
 72
8
 73
4
 74
0
 40
0
 40
0
 40
0
 40
0
 40
1
 40
1
 40
1
 40
1
 10
9.964952
 20
9.156392
 30
0.0
 10
9.963885
 20
9.155926
 30
0.0
 10
9.962842
 20
9.155406
 30
0.0
 10
9.961828
 20
9.154834
 30
0.0
  0
SPLINE
  5
155
100
AcDbEntity
  8
0
 62
7
100
AcDbSpline
 70
8
 71
3
 72
8
 73
4
 74
0
 40
0
 40
0
 40
0
 40
0
 40
1
 40
1
 40
1
 40
1
 10
9.961828
 20
9.154834
 30
0.0
 10
9.953295
 20
9.152445
 30
0.0
 10
9.946018
 20
9.146847
 30
0.0
 10
9.941521
 20
9.139212
 30
0.0
  0
LINE
  5
156
100
AcDbEntity
  8
0
 62
7
100
AcDbLine
 10
9.941521
 20
9.139212
 30
0.0
 11
7.918570
 21
5.885306
 31
0.0
  0
SPLINE
  5
157
100
AcDbEntity
  8
0
 62
7
100
AcDbSpline
 70
8
 71
3
 72
8
 73
4
 74
0
 40
0
 40
0
 40
0
 40
0
 40
1
 40
1
 40
1
 40
1
 10
7.918570
 20
5.885306
 30
0.0
 10
7.869760
 20
5.885206
 30
0.0
 10
4.398124
 20
5.877496
 30
0.0
 10
4.363175
 20
5.877496
 30
0.0
  0
SPLINE
  5
158
100
AcDbEntity
  8
0
 62
7
100
AcDbSpline
 70
8
 71
3
 72
8
 73
4
 74
0
 40
0
 40
0
 40
0
 40
0
 40
1
 40
1
 40
1
 40
1
 10
4.363175
 20
5.877496
 30
0.0
 10
4.339458
 20
5.877484
 30
0.0
 10
4.320238
 20
5.858254
 30
0.0
 10
4.320238
 20
5.834537
 30
0.0
  0
SPLINE
  5
159
100
AcDbEntity
  8
0
 62
7
100
AcDbSpline
 70
8
 71
3
 72
8
 73
4
 74
0
 40
0
 40
0
 40
0
 40
0
 40
1
 40
1
 40
1
 40
1
 10
4.320238
 20
5.834537
 30
0.0
 10
4.320238
 20
5.810820
 30
0.0
 10
4.339458
 20
5.791591
 30
0.0
 10
4.363175
 20
5.791579
 30
0.0
  0
SPLINE
  5
15a
100
AcDbEntity
  8
0
 62
7
100
AcDbSpline
 70
8
 71
3
 72
8
 73
4
 74
0
 40
0
 40
0
 40
0
 40
0
 40
1
 40
1
 40
1
 40
1
 10
4.363175
 20
5.791579
 30
0.0
 10
4.409461
 20
5.791579
 30
0.0
 10
7.866935
 20
5.799270
 30
0.0
 10
7.918570
 20
5.799389
 30
0.0
  0
LINE
  5
15b
100
AcDbEntity
  8
0
 62
7
100
AcDbLine
 10
7.918570
 20
5.799389
 30
0.0
 11
9.918089
 21
1.648825
 31
0.0
  0
SPLINE
  5
15c
100
AcDbEntity
  8
0
 62
7
100
AcDbSpline
 70
8
 71
3
 72
8
 73
4
 74
0
 40
0
 40
0
 40
0
 40
0
 40
1
 40
1
 40
1
 40
1
 10
9.918089
 20
1.648825
 30
0.0
 10
9.924767
 20
1.634842
 30
0.0
 10
9.938407
 20
1.625492
 30
0.0
 10
9.953857
 20
1.624304
 30
0.0
  0
SPLINE
  5
15d
100
AcDbEntity
  8
0
 62
7
100
AcDbSpline
 70
8
 71
3
 72
8
 73
4
 74
0
 40
0
 40
0
 40
0
 40
0
 40
1
 40
1
 40
1
 40
1
 10
9.953857
 20
1.624304
 30
0.0
 10
9.969308
 20
1.623117
 30
0.0
 10
9.984216
 20
1.630273
 30
0.0
 10
9.992954
 20
1.643071
 30
0.0
  0
SPLINE
  5
15e
100
AcDbEntity
  8
0
 62
7
100
AcDbSpline
 70
8
 71
3
 72
8
 73
4
 74
0
 40
0
 40
0
 40
0
 40
0
 40
1
 40
1
 40
1
 40
1
 10
9.992954
 20
1.643071
 30
0.0
 10
10.001691
 20
1.655869
 30
0.0
 10
10.002927
 20
1.672359
 30
0.0
 10
9.996195
 20
1.686316
 30
0.0
  0
LINE
  5
15f
100
AcDbEntity
  8
0
 62
7
100
AcDbLine
 10
9.996195
 20
1.686316
 30
0.0
 11
7.982616
 21
5.860312
 31
0.0
  0
SPLINE
  5
160
100
AcDbEntity
  8
0
 62
7
100
AcDbSpline
 70
8
 71
3
 72
8
 73
4
 74
0
 40
0
 40
0
 40
0
 40
0
 40
1
 40
1
 40
1
 40
1
 10
7.982616
 20
5.860312
 30
0.0
 10
7.982616
 20
5.860312
 30
0.0
 10
9.999319
 20
9.103282
 30
0.0
 10
9.999319
 20
9.103282
 30
0.0
  0
SPLINE
  5
161
100
AcDbEntity
  8
0
 62
7
100
AcDbSpline
 70
8
 71
3
 72
8
 73
4
 74
0
 40
0
 40
0
 40
0
 40
0
 40
1
 40
1
 40
1
 40
1
 10
9.999319
 20
9.103282
 30
0.0
 10
10.006546
 20
9.114209
 30
0.0
 10
10.006917
 20
9.128298
 30
0.0
 10
10.000275
 20
9.139589
 30
0.0
  0
SPLINE
  5
162
100
AcDbEntity
  8
0
 62
7
100
AcDbSpline
 70
8
 71
3
 72
8
 73
4
 74
0
 40
0
 40
0
 40
0
 40
0
 40
1
 40
1
 40
1
 40
1
 10
10.000275
 20
9.139589
 30
0.0
 10
9.993632
 20
9.150881
 30
0.0
 10
9.981138
 20
9.157402
 30
0.0
 10
9.968077
 20
9.156394
 30
0.0
  0
SPLINE
  5
163
100
AcDbEntity
  8
0
 62
7
100
AcDbSpline
 70
8
 71
3
 72
8
 73
4
 74
0
 40
0
 40
0
 40
0
 40
0
 40
1
 40
1
 40
1
 40
1
 10
9.968077
 20
9.156394
 30
0.0
 10
9.967036
 20
9.156442
 30
0.0
 10
9.965993
 20
9.156442
 30
0.0
 10
9.964952
 20
9.156394
 30
0.0
  0
LINE
  5
164
100
AcDbEntity
  8
0
 62
7
100
AcDbLine
 10
9.964952
 20
9.156394
 30
0.0
 11
9.964952
 21
9.156392
 31
0.0
  0
LINE
  5
165
100
AcDbEntity
  8
0
 62
7
100
AcDbLine
 10
7.017224
 20
8.478430
 30
0.0
 11
6.367380
 21
8.237863
 31
0.0
  0
LINE
  5
166
100
AcDbEntity
  8
0
 62
7
100
AcDbLine
 10
6.367380
 20
8.237863
 30
0.0
 11
5.834696
 21
7.391192
 31
0.0
  0
LINE
  5
167
100
AcDbEntity
  8
0
 62
7
100
AcDbLine
 10
5.834696
 20
7.391192
 30
0.0
 11
8.574662
 21
7.386508
 31
0.0
  0
LINE
  5
168
100
AcDbEntity
  8
0
 62
7
100
AcDbLine
 10
8.574662
 20
7.386508
 30
0.0
 11
8.905832
 21
7.897323
 31
0.0
  0
LINE
  5
169
100
AcDbEntity
  8
0
 62
7
100
AcDbLine
 10
8.905832
 20
7.897323
 30
0.0
 11
8.604342
 21
8.465936
 31
0.0
  0
LINE
  5
16a
100
AcDbEntity
  8
0
 62
7
100
AcDbLine
 10
8.604342
 20
8.465936
 30
0.0
 11
7.017224
 21
8.478433
 31
0.0
  0
LINE
  5
16b
100
AcDbEntity
  8
0
 62
7
100
AcDbLine
 10
7.017224
 20
8.478433
 30
0.0
 11
7.017224
 21
8.478430
 31
0.0
  0
LINE
  5
16c
100
AcDbEntity
  8
0
 62
7
100
AcDbLine
 10
9.979011
 20
7.655191
 30
0.0
 11
9.499439
 21
6.897560
 31
0.0
  0
LINE
  5
16d
100
AcDbEntity
  8
0
 62
7
100
AcDbLine
 10
9.499439
 20
6.897560
 30
0.0
 11
10.827245
 21
4.177902
 31
0.0
  0
LINE
  5
16e
100
AcDbEntity
  8
0
 62
7
100
AcDbLine
 10
10.827245
 20
4.177902
 30
0.0
 11
11.286509
 21
4.979272
 31
0.0
  0
LINE
  5
16f
100
AcDbEntity
  8
0
 62
7
100
AcDbLine
 10
11.286509
 20
4.979272
 30
0.0
 11
11.277138
 21
5.811884
 31
0.0
  0
LINE
  5
170
100
AcDbEntity
  8
0
 62
7
100
AcDbLine
 10
11.277138
 20
5.811884
 30
0.0
 11
10.463271
 21
7.513037
 31
0.0
  0
LINE
  5
171
100
AcDbEntity
  8
0
 62
7
100
AcDbLine
 10
10.463271
 20
7.513037
 30
0.0
 11
9.979011
 21
7.655191
 31
0.0
  0
LINE
  5
172
100
AcDbEntity
  8
0
 62
7
100
AcDbLine
 10
5.717537
 20
7.216234
 30
0.0
 11
5.219219
 21
6.438296
 31
0.0
  0
LINE
  5
173
100
AcDbEntity
  8
0
 62
7
100
AcDbLine
 10
5.219219
 20
6.438296
 30
0.0
 11
5.523833
 21
6.089942
 31
0.0
  0
LINE
  5
174
100
AcDbEntity
  8
0
 62
7
100
AcDbLine
 10
5.523833
 20
6.089942
 30
0.0
 11
7.285909
 21
6.086817
 31
0.0
  0
LINE
  5
175
100
AcDbEntity
  8
0
 62
7
100
AcDbLine
 10
7.285909
 20
6.086817
 30
0.0
 11
7.998238
 21
6.391432
 31
0.0
  0
LINE
  5
176
100
AcDbEntity
  8
0
 62
7
100
AcDbLine
 10
7.998238
 20
6.391432
 30
0.0
 11
8.459064
 21
7.208422
 31
0.0
  0
LINE
  5
177
100
AcDbEntity
  8
0
 62
7
100
AcDbLine
 10
8.459064
 20
7.208422
 30
0.0
 11
5.717537
 21
7.216234
 31
0.0
  0
LINE
  5
178
100
AcDbEntity
  8
0
 62
7
100
AcDbLine
 10
9.358848
 20
6.681987
 30
0.0
 11
8.830850
 21
5.755647
 31
0.0
  0
LINE
  5
179
100
AcDbEntity
  8
0
 62
7
100
AcDbLine
 10
8.830850
 20
5.755647
 30
0.0
 11
8.833975
 21
4.827746
 31
0.0
  0
LINE
  5
17a
100
AcDbEntity
  8
0
 62
7
100
AcDbLine
 10
8.833975
 20
4.827746
 30
0.0
 11
9.640031
 21
3.145338
 31
0.0
  0
LINE
  5
17b
100
AcDbEntity
  8
0
 62
7
100
AcDbLine
 10
9.640031
 20
3.145338
 30
0.0
 11
10.211768
 21
3.073480
 31
0.0
  0
LINE
  5
17c
100
AcDbEntity
  8
0
 62
7
100
AcDbLine
 10
10.211768
 20
3.073480
 30
0.0
 11
10.692903
 21
3.935773
 31
0.0
  0
LINE
  5
17d
100
AcDbEntity
  8
0
 62
7
100
AcDbLine
 10
10.692903
 20
3.935773
 30
0.0
 11
9.358848
 21
6.681987
 31
0.0
  0
LINE
  5
17e
100
AcDbEntity
  8
0
 62
7
100
AcDbLine
 10
6.239286
 20
4.962088
 30
0.0
 11
5.428544
 21
4.949592
 31
0.0
  0
LINE
  5
17f
100
AcDbEntity
  8
0
 62
7
100
AcDbLine
 10
5.428544
 20
4.949592
 30
0.0
 11
5.084876
 21
4.537191
 31
0.0
  0
LINE
  5
180
100
AcDbEntity
  8
0
 62
7
100
AcDbLine
 10
5.084876
 20
4.537191
 30
0.0
 11
5.944045
 21
2.600157
 31
0.0
  0
LINE
  5
181
100
AcDbEntity
  8
0
 62
7
100
AcDbLine
 10
5.944045
 20
2.600157
 30
0.0
 11
6.515782
 21
2.170573
 31
0.0
  0
LINE
  5
182
100
AcDbEntity
  8
0
 62
7
100
AcDbLine
 10
6.515782
 20
2.170573
 30
0.0
 11
7.528039
 21
2.161202
 31
0.0
  0
LINE
  5
183
100
AcDbEntity
  8
0
 62
7
100
AcDbLine
 10
7.528039
 20
2.161202
 30
0.0
 11
6.239286
 21
4.962088
 31
0.0
  0
LINE
  5
184
100
AcDbEntity
  8
0
 62
7
100
AcDbLine
 10
7.456181
 20
4.952714
 30
0.0
 11
6.445486
 21
4.949590
 31
0.0
  0
LINE
  5
185
100
AcDbEntity
  8
0
 62
7
100
AcDbLine
 10
6.445486
 20
4.949590
 30
0.0
 11
7.726428
 21
2.156511
 31
0.0
  0
LINE
  5
186
100
AcDbEntity
  8
0
 62
7
100
AcDbLine
 10
7.726428
 20
2.156511
 30
0.0
 11
8.713691
 21
2.156511
 31
0.0
  0
LINE
  5
187
100
AcDbEntity
  8
0
 62
7
100
AcDbLine
 10
8.713691
 20
2.156511
 30
0.0
 11
8.968317
 21
2.564226
 31
0.0
  0
LINE
  5
188
100
AcDbEntity
  8
0
 62
7
100
AcDbLine
 10
8.968317
 20
2.564226
 30
0.0
 11
8.046664
 21
4.487201
 31
0.0
  0
LINE
  5
189
100
AcDbEntity
  8
0
 62
7
100
AcDbLine
 10
8.046664
 20
4.487201
 30
0.0
 11
7.456181
 21
4.952714
 31
0.0
  0
ENDSEC
  0
SECTION
  2
OBJECTS
  0
DICTIONARY
  5
C
330
0
100
AcDbDictionary
  3
ACAD_GROUP
350
D
  3
ACAD_MLINESTYLE
350
17
  0
DICTIONARY
  5
D
330
C
100
AcDbDictionary
  0
DICTIONARY
  5
1A
330
C
100
AcDbDictionary
  0
DICTIONARY
  5
17
330
C
100
AcDbDictionary
  3
STANDARD
350
18
  0
DICTIONARY
  5
19
330
C
100
AcDbDictionary
  0
ENDSEC
  0
EOF
