<?xml version="1.0" encoding="UTF-8" standalone="no"?>
<!-- Created with Inkscape (http://www.inkscape.org/) -->

<svg
   xmlns:dc="http://purl.org/dc/elements/1.1/"
   xmlns:cc="http://creativecommons.org/ns#"
   xmlns:rdf="http://www.w3.org/1999/02/22-rdf-syntax-ns#"
   xmlns:svg="http://www.w3.org/2000/svg"
   xmlns="http://www.w3.org/2000/svg"
   xmlns:xlink="http://www.w3.org/1999/xlink"
   xmlns:sodipodi="http://sodipodi.sourceforge.net/DTD/sodipodi-0.dtd"
   xmlns:inkscape="http://www.inkscape.org/namespaces/inkscape"
   version="1.1"
   width="60"
   height="59.326244"
   id="svg2"
   sodipodi:docname="cubesat.svg"
   inkscape:version="0.92.3 (2405546, 2018-03-11)">
  <sodipodi:namedview
     pagecolor="#ffffff"
     bordercolor="#666666"
     borderopacity="1"
     objecttolerance="10"
     gridtolerance="10"
     guidetolerance="10"
     inkscape:pageopacity="0"
     inkscape:pageshadow="2"
     inkscape:window-width="1920"
     inkscape:window-height="1001"
     id="namedview11"
     showgrid="false"
     inkscape:zoom="1.4398498"
     inkscape:cx="30.004333"
     inkscape:cy="29.663255"
     inkscape:window-x="-9"
     inkscape:window-y="-9"
     inkscape:window-maximized="1"
     inkscape:current-layer="svg2" />
  <defs
     id="defs4">
    <linearGradient
       id="linearGradient3755">
      <stop
         id="stop3757"
         style="stop-color:#ffffff;stop-opacity:1"
         offset="0" />
      <stop
         id="stop3763"
         style="stop-color:#d0d0d0;stop-opacity:1"
         offset="1" />
    </linearGradient>
    <linearGradient
       x1="124.55486"
       y1="30.710981"
       x2="40.377674"
       y2="127.89116"
       id="linearGradient3761"
       xlink:href="#linearGradient3755"
       gradientUnits="userSpaceOnUse"
       gradientTransform="matrix(0.37825059,0,0,0.37825059,-1.335697,-1.335697)" />
  </defs>
  <metadata
     id="metadata7">
    <rdf:RDF>
      <cc:Work
         rdf:about="">
        <dc:format>image/svg+xml</dc:format>
        <dc:type
           rdf:resource="http://purl.org/dc/dcmitype/StillImage" />
        <dc:title />
      </cc:Work>
    </rdf:RDF>
  </metadata>
  <path
     d="m 1.252926,24.615256 2.394477,-1.423744 12.0371,-19.349961 c 0,0 25.303798,-0.582441 25.627376,-0.776588 0.323578,-0.194146 2.265044,-2.847486 2.265044,-2.847486 l 0.970735,0.194147 13.654992,31.840072 -14.561012,18.05565 1.423746,6.79514 -0.194148,1.03545 -1.423743,-0.25887 -1.941469,-2.32976 -25.303796,0.51773 L 2.482523,27.074448 0.994064,25.780136 Z"
     id="path3827"
     style="fill:url(#linearGradient3761);fill-opacity:1;stroke:none;stroke-width:0.3782506"
     inkscape:connector-curvature="0" />
  <path
     d="M 14.63357,0 13.687943,1.973996 13.56974,4.172577 2.955083,22.222223 2.222222,22.127663 0,25.130027 l 15.650118,34.196219 1.76123,-0.0709 0.602836,-1.6312 -0.260047,-0.74468 23.286052,0.21276 0.874705,1.61939 3.191489,-0.13003 0.803782,-1.6312 -1.016548,-2.23404 L 56.20567,34.940932 58.98345,34.810908 60,32.777811 44.63357,3.3e-5 H 41.855792 L 41.241135,1.28845 18.085106,1.560317 17.884161,3.3e-5 Z m 29.633569,0.496454 a 0.25950409,0.25950409 0 0 1 0.248227,0.413712 L 29.243499,25.437353 44.479905,57.033096 a 0.32438011,0.32438011 0 1 1 -0.579196,0.28369 L 28.747045,25.898346 c -0.413326,9.57e-4 -26.541167,0.07092 -26.891253,0.07092 a 0.3250595,0.3250595 0 1 1 0,-0.650119 c 0.264221,0 26.476477,-0.05819 26.891253,-0.0591 L 44.066194,0.638297 a 0.25950409,0.25950409 0 0 1 0.189125,-0.130023 0.25950409,0.25950409 0 0 1 0.0118,-0.01182 z m -22.328605,5.130024 12.009457,0.106383 2.281323,4.29078 -2.50591,3.865248 -20.73286,-0.03546 4.030733,-6.394799 z m 22.423168,6.229314 3.652478,1.087471 6.1584,12.86052 0.0709,6.300236 -3.47518,6.06383 -10.035459,-20.579196 z m -32.257683,3.321513 20.744681,0.0591 -3.486998,6.193853 -5.390071,2.293145 -13.333333,-0.02364 -2.304965,-2.635934 z M 39.65721,19.219859 49.75177,40 46.122931,46.524823 41.78487,45.981088 35.685579,33.250591 35.673759,26.241135 Z m -23.605201,13.014184 9.751774,21.193853 -7.647755,-0.0709 -4.338061,-3.23877 -6.501182,-14.669033 2.600473,-3.120567 z m 9.208038,0.07092 4.468085,3.522459 6.973996,14.550834 -1.926714,3.0851 h -7.470449 l -9.692672,-21.13475 z"
     id="path4395"
     style="fill:#b4b4b4;fill-opacity:1;stroke:none;stroke-width:0.3782506"
     inkscape:connector-curvature="0" />
</svg>
