  0
SECTION
  2
HEADER
  9
$ACADVER
  1
AC1015
  9
$ACADMAINTVER
 70
     6
  9
$DWGCODEPAGE
  3
ANSI_1252
  9
$INSBASE
 10
0.0
 20
0.0
 30
0.0
  9
$EXTMIN
 10
-50.0
 20
-50.0
 30
0.0
  9
$EXTMAX
 10
50.0
 20
50.0
 30
0.0
  9
$LIMMIN
 10
0.0
 20
0.0
  9
$LIMMAX
 10
420.0
 20
297.0
  9
$ORTHOMODE
 70
     0
  9
$REGENMODE
 70
     1
  9
$FILLMODE
 70
     1
  9
$QTEXTMODE
 70
     0
  9
$MIRRTEXT
 70
     1
  9
$LTSCALE
 40
1.0
  9
$ATTMODE
 70
     1
  9
$TEXTSIZE
 40
3.5
  9
$TRACEWID
 40
1.0
  9
$TEXTSTYLE
  7
Standard
  9
$CLAYER
  8
0
  9
$CELTYPE
  6
ByLayer
  9
$CECOLOR
 62
   256
  9
$CELTSCALE
 40
1.0
  9
$DISPSILH
 70
     0
  9
$DIMSCALE
 40
1.0
  9
$DIMASZ
 40
3.302
  9
$DIMEXO
 40
1.0
  9
$DIMDLI
 40
3.75
  9
$DIMRND
 40
0.0
  9
$DIMDLE
 40
0.0
  9
$DIMEXE
 40
1.0
  9
$DIMTP
 40
0.0
  9
$DIMTM
 40
0.0
  9
$DIMTXT
 40
3.5
  9
$DIMCEN
 40
2.5
  9
$DIMTSZ
 40
0.0
  9
$DIMTOL
 70
     0
  9
$DIMLIM
 70
     0
  9
$DIMTIH
 70
     1
  9
$DIMTOH
 70
     1
  9
$DIMSE1
 70
     0
  9
$DIMSE2
 70
     0
  9
$DIMTAD
 70
     1
  9
$DIMZIN
 70
     1
  9
$DIMBLK
  1

  9
$DIMASO
 70
     1
  9
$DIMSHO
 70
     1
  9
$DIMPOST
  1

  9
$DIMAPOST
  1

  9
$DIMALT
 70
     0
  9
$DIMALTD
 70
     3
  9
$DIMALTF
 40
0.0393700787
  9
$DIMLFAC
 40
1.0
  9
$DIMTOFL
 70
     1
  9
$DIMTVP
 40
0.0
  9
$DIMTIX
 70
     0
  9
$DIMSOXD
 70
     0
  9
$DIMSAH
 70
     0
  9
$DIMBLK1
  1

  9
$DIMBLK2
  1

  9
$DIMSTYLE
  2
ISO-25
  9
$DIMCLRD
 70
     0
  9
$DIMCLRE
 70
     0
  9
$DIMCLRT
 70
     0
  9
$DIMTFAC
 40
1.0
  9
$DIMGAP
 40
1.524
  9
$DIMJUST
 70
     0
  9
$DIMSD1
 70
     0
  9
$DIMSD2
 70
     0
  9
$DIMTOLJ
 70
     0
  9
$DIMTZIN
 70
     1
  9
$DIMALTZ
 70
     0
  9
$DIMALTTZ
 70
     0
  9
$DIMUPT
 70
     0
  9
$DIMDEC
 70
     2
  9
$DIMTDEC
 70
     2
  9
$DIMALTU
 70
     2
  9
$DIMALTTD
 70
     3
  9
$DIMTXSTY
  7
Standard
  9
$DIMAUNIT
 70
     0
  9
$DIMADEC
 70
     2
  9
$DIMALTRND
 40
0.0
  9
$DIMAZIN
 70
     0
  9
$DIMDSEP
 70
    44
  9
$DIMATFIT
 70
     3
  9
$DIMFRAC
 70
     0
  9
$DIMLDRBLK
  1

  9
$DIMLUNIT
 70
     2
  9
$DIMLWD
 70
    -2
  9
$DIMLWE
 70
    -2
  9
$DIMTMOVE
 70
     0
  9
$LUNITS
 70
     2
  9
$LUPREC
 70
     4
  9
$SKETCHINC
 40
1.0
  9
$FILLETRAD
 40
10.0
  9
$AUNITS
 70
     0
  9
$AUPREC
 70
     2
  9
$MENU
  1
.
  9
$ELEVATION
 40
0.0
  9
$PELEVATION
 40
0.0
  9
$THICKNESS
 40
0.0
  9
$LIMCHECK
 70
     0
  9
$CHAMFERA
 40
0.0
  9
$CHAMFERB
 40
0.0
  9
$CHAMFERC
 40
0.0
  9
$CHAMFERD
 40
0.0
  9
$SKPOLY
 70
     0
  9
$TDCREATE
 40
2458701.463014329
  9
$TDUCREATE
 40
2458701.754680995
  9
$TDUPDATE
 40
2458701.463067095
  9
$TDUUPDATE
 40
2458701.754733762
  9
$TDINDWG
 40
0.0000000116
  9
$TDUSRTIMER
 40
0.0000000116
  9
$USRTIMER
 70
     1
  9
$ANGBASE
 50
0.0
  9
$ANGDIR
 70
     0
  9
$PDMODE
 70
     0
  9
$PDSIZE
 40
-1.0
  9
$PLINEWID
 40
0.0
  9
$SPLFRAME
 70
     0
  9
$SPLINETYPE
 70
     6
  9
$SPLINESEGS
 70
     8
  9
$HANDSEED
  5
C7
  9
$SURFTAB1
 70
     6
  9
$SURFTAB2
 70
     6
  9
$SURFTYPE
 70
     6
  9
$SURFU
 70
     6
  9
$SURFV
 70
     6
  9
$UCSBASE
  2

  9
$UCSNAME
  2

  9
$UCSORG
 10
0.0
 20
0.0
 30
0.0
  9
$UCSXDIR
 10
1.0
 20
0.0
 30
0.0
  9
$UCSYDIR
 10
0.0
 20
1.0
 30
0.0
  9
$UCSORTHOREF
  2

  9
$UCSORTHOVIEW
 70
     0
  9
$UCSORGTOP
 10
0.0
 20
0.0
 30
0.0
  9
$UCSORGBOTTOM
 10
0.0
 20
0.0
 30
0.0
  9
$UCSORGLEFT
 10
0.0
 20
0.0
 30
0.0
  9
$UCSORGRIGHT
 10
0.0
 20
0.0
 30
0.0
  9
$UCSORGFRONT
 10
0.0
 20
0.0
 30
0.0
  9
$UCSORGBACK
 10
0.0
 20
0.0
 30
0.0
  9
$PUCSBASE
  2

  9
$PUCSNAME
  2

  9
$PUCSORG
 10
0.0
 20
0.0
 30
0.0
  9
$PUCSXDIR
 10
1.0
 20
0.0
 30
0.0
  9
$PUCSYDIR
 10
0.0
 20
1.0
 30
0.0
  9
$PUCSORTHOREF
  2

  9
$PUCSORTHOVIEW
 70
     0
  9
$PUCSORGTOP
 10
0.0
 20
0.0
 30
0.0
  9
$PUCSORGBOTTOM
 10
0.0
 20
0.0
 30
0.0
  9
$PUCSORGLEFT
 10
0.0
 20
0.0
 30
0.0
  9
$PUCSORGRIGHT
 10
0.0
 20
0.0
 30
0.0
  9
$PUCSORGFRONT
 10
0.0
 20
0.0
 30
0.0
  9
$PUCSORGBACK
 10
0.0
 20
0.0
 30
0.0
  9
$USERI1
 70
     0
  9
$USERI2
 70
     0
  9
$USERI3
 70
     0
  9
$USERI4
 70
     0
  9
$USERI5
 70
     0
  9
$USERR1
 40
0.0
  9
$USERR2
 40
0.0
  9
$USERR3
 40
0.0
  9
$USERR4
 40
0.0
  9
$USERR5
 40
0.0
  9
$WORLDVIEW
 70
     1
  9
$SHADEDGE
 70
     3
  9
$SHADEDIF
 70
    70
  9
$TILEMODE
 70
     1
  9
$MAXACTVP
 70
    64
  9
$PINSBASE
 10
0.0
 20
0.0
 30
0.0
  9
$PLIMCHECK
 70
     0
  9
$PEXTMIN
 10
1.0000000000E+20
 20
1.0000000000E+20
 30
1.0000000000E+20
  9
$PEXTMAX
 10
-1.0000000000E+20
 20
-1.0000000000E+20
 30
-1.0000000000E+20
  9
$PLIMMIN
 10
0.0
 20
0.0
  9
$PLIMMAX
 10
420.0
 20
297.0
  9
$UNITMODE
 70
     0
  9
$VISRETAIN
 70
     1
  9
$PLINEGEN
 70
     0
  9
$PSLTSCALE
 70
     1
  9
$TREEDEPTH
 70
  3020
  9
$CMLSTYLE
  2
Standard
  9
$CMLJUST
 70
     0
  9
$CMLSCALE
 40
20.0
  9
$PROXYGRAPHICS
 70
     1
  9
$MEASUREMENT
 70
     1
  9
$CELWEIGHT
370
    -1
  9
$ENDCAPS
280
     0
  9
$JOINSTYLE
280
     0
  9
$LWDISPLAY
290
     1
  9
$INSUNITS
 70
     4
  9
$HYPERLINKBASE
  1

  9
$STYLESHEET
  1

  9
$XEDIT
290
     1
  9
$CEPSNTYPE
380
     0
  9
$PSTYLEMODE
290
     1
  9
$FINGERPRINTGUID
  2
{F05F1DAB-964F-40E8-94B6-5D3F3BFF7123}
  9
$VERSIONGUID
  2
{FAEB1C32-E019-11D5-929B-00C0DF256EC4}
  9
$EXTNAMES
290
     1
  9
$PSVPSCALE
 40
0.0
  9
$OLESTARTUP
290
     0
  0
ENDSEC
  0
SECTION
  2
CLASSES
  0
CLASS
  1
ACDBDICTIONARYWDFLT
  2
AcDbDictionaryWithDefault
  3
ObjectDBX Classes
 90
        0
280
     0
281
     0
  0
CLASS
  1
VISUALSTYLE
  2
AcDbVisualStyle
  3
ObjectDBX Classes
 90
     4095
280
     0
281
     0
  0
CLASS
  1
MATERIAL
  2
AcDbMaterial
  3
ObjectDBX Classes
 90
     1153
280
     0
281
     0
  0
CLASS
  1
SCALE
  2
AcDbScale
  3
ObjectDBX Classes
 90
     1153
280
     0
281
     0
  0
CLASS
  1
TABLESTYLE
  2
AcDbTableStyle
  3
ObjectDBX Classes
 90
     4095
280
     0
281
     0
  0
CLASS
  1
MLEADERSTYLE
  2
AcDbMLeaderStyle
  3
ACDB_MLEADERSTYLE_CLASS
 90
     4095
280
     0
281
     0
  0
CLASS
  1
SUN
  2
AcDbSun
  3
SCENEOE
 90
     1153
280
     0
281
     0
  0
CLASS
  1
ACDBPLACEHOLDER
  2
AcDbPlaceHolder
  3
ObjectDBX Classes
 90
        0
280
     0
281
     0
  0
CLASS
  1
LAYOUT
  2
AcDbLayout
  3
ObjectDBX Classes
 90
        0
280
     0
281
     0
  0
ENDSEC
  0
SECTION
  2
TABLES
  0
TABLE
  2
VPORT
  5
8
330
0
100
AcDbSymbolTable
 70
     1
  0
VPORT
  5
29
330
8
100
AcDbSymbolTableRecord
100
AcDbViewportTableRecord
  2
*Active
 70
     0
 10
0.0
 20
0.0
 11
1.0
 21
1.0
 12
0.0
 22
0.0
 13
0.0
 23
0.0
 14
10.0
 24
10.0
 15
10.0
 25
10.0
 16
0.0
 26
0.0
 36
1.0
 17
0.0
 27
0.0
 37
0.0
 40
102.0
 41
1.0
 42
50.0
 43
0.0
 44
0.0
 50
0.0
 51
0.0
 71
     0
 72
   100
 73
     1
 74
     3
 75
     0
 76
     0
 77
     0
 78
     0
281
     0
 65
     1
110
0.0
120
0.0
130
0.0
111
1.0
121
0.0
131
0.0
112
0.0
122
1.0
132
0.0
 79
     0
146
0.0
  0
ENDTAB
  0
TABLE
  2
LTYPE
  5
5
330
0
100
AcDbSymbolTable
 70
     6
  0
LTYPE
  5
14
330
5
100
AcDbSymbolTableRecord
100
AcDbLinetypeTableRecord
  2
ByBlock
 70
     0
  3

 72
    65
 73
     0
 40
0.0
  0
LTYPE
  5
15
330
5
100
AcDbSymbolTableRecord
100
AcDbLinetypeTableRecord
  2
ByLayer
 70
     0
  3

 72
    65
 73
     0
 40
0.0
  0
LTYPE
  5
16
330
5
100
AcDbSymbolTableRecord
100
AcDbLinetypeTableRecord
  2
Continuous
 70
     0
  3
Solid line
 72
    65
 73
     0
 40
0.0
  0
LTYPE
  5
6E
330
5
100
AcDbSymbolTableRecord
100
AcDbLinetypeTableRecord
  2
HIDDEN
 70
     0
  3
Hidden __ __ __ __ __ __ __ __ __ __ __ __ __ __
 72
    65
 73
     2
 40
1.905
 49
1.27
 74
     0
 49
-0.635
 74
     0
  0
LTYPE
  5
6F
330
5
100
AcDbSymbolTableRecord
100
AcDbLinetypeTableRecord
  2
PHANTOM
 70
     0
  3
Phantom ______  __  __  ______  __  __  ______
 72
    65
 73
     6
 40
12.7
 49
6.35
 74
     0
 49
-1.27
 74
     0
 49
1.27
 74
     0
 49
-1.27
 74
     0
 49
1.27
 74
     0
 49
-1.27
 74
     0
  0
LTYPE
  5
70
330
5
100
AcDbSymbolTableRecord
100
AcDbLinetypeTableRecord
  2
CENTER
 70
     0
  3
Center ____ _ ____ _ ____ _ ____ _ ____ _ ____
 72
    65
 73
     4
 40
10.16
 49
6.35
 74
     0
 49
-1.27
 74
     0
 49
1.27
 74
     0
 49
-1.27
 74
     0
  0
LTYPE
  5
71
330
5
100
AcDbSymbolTableRecord
100
AcDbLinetypeTableRecord
  2
CENTERX2
 70
     0
  3
Center (2x) ________  __  ________  __  _____
 72
    65
 73
     4
 40
20.32
 49
12.7
 74
     0
 49
-2.54
 74
     0
 49
2.54
 74
     0
 49
-2.54
 74
     0
  0
LTYPE
  5
72
330
5
100
AcDbSymbolTableRecord
100
AcDbLinetypeTableRecord
  2
DOT2
 70
     0
  3
Dot (.5x) ........................................
 72
    65
 73
     2
 40
0.635
 49
0.0
 74
     0
 49
-0.635
 74
     0
  0
ENDTAB
  0
TABLE
  2
LAYER
  5
2
330
0
100
AcDbSymbolTable
 70
     1
  0
LAYER
  5
10
330
2
100
AcDbSymbolTableRecord
100
AcDbLayerTableRecord
  2
0
 70
     0
 62
     7
  6
Continuous
370
    -3
390
F
  0
ENDTAB
  0
TABLE
  2
STYLE
  5
3
330
0
100
AcDbSymbolTable
 70
     2
  0
STYLE
  5
11
330
3
100
AcDbSymbolTableRecord
100
AcDbTextStyleTableRecord
  2
Standard
 70
     0
 40
0.0
 41
1.0
 50
0.0
 71
     0
 42
3.5
  3
txt
  4

  0
STYLE
  5
C4
330
3
100
AcDbSymbolTableRecord
100
AcDbTextStyleTableRecord
  2
SLDTEXTSTYLE0
 70
     0
 40
0.0
 41
0.7
 50
0.0
 71
     0
 42
3.5
  3
TXT
  4

  0
ENDTAB
  0
TABLE
  2
VIEW
  5
6
330
0
100
AcDbSymbolTable
 70
     0
  0
ENDTAB
  0
TABLE
  2
UCS
  5
7
330
0
100
AcDbSymbolTable
 70
     0
  0
ENDTAB
  0
TABLE
  2
APPID
  5
9
330
0
100
AcDbSymbolTable
 70
     1
  0
APPID
  5
12
330
9
100
AcDbSymbolTableRecord
100
AcDbRegAppTableRecord
  2
ACAD
 70
     0
  0
ENDTAB
  0
TABLE
  2
DIMSTYLE
  5
A
330
0
100
AcDbSymbolTable
 70
     1
100
AcDbDimStyleTable
  0
DIMSTYLE
105
27
330
A
100
AcDbSymbolTableRecord
100
AcDbDimStyleTableRecord
  2
ISO-25
 70
     0
 41
2.5
 42
0.625
 43
3.75
 44
1.25
 73
     0
 74
     0
 77
     1
 78
     8
140
2.5
141
2.5
143
0.0393700787
147
0.625
171
     3
172
     1
178
     0
271
     2
272
     2
274
     3
278
    44
283
     0
284
     8
340
11
  0
ENDTAB
  0
TABLE
  2
BLOCK_RECORD
  5
1
330
0
100
AcDbSymbolTable
 70
     1
  0
BLOCK_RECORD
  5
1F
330
1
100
AcDbSymbolTableRecord
100
AcDbBlockTableRecord
  2
*Model_Space
340
22
  0
BLOCK_RECORD
  5
1B
330
1
100
AcDbSymbolTableRecord
100
AcDbBlockTableRecord
  2
*Paper_Space
340
1E
  0
BLOCK_RECORD
  5
23
330
1
100
AcDbSymbolTableRecord
100
AcDbBlockTableRecord
  2
*Paper_Space0
340
26
  0
ENDTAB
  0
ENDSEC
  0
SECTION
  2
BLOCKS
  0
BLOCK
  5
20
330
1F
100
AcDbEntity
  8
0
100
AcDbBlockBegin
  2
*Model_Space
 70
     0
 10
0.0
 20
0.0
 30
0.0
  3
*Model_Space
  1

  0
ENDBLK
  5
21
330
1F
100
AcDbEntity
  8
0
100
AcDbBlockEnd
  0
BLOCK
  5
1C
330
1B
100
AcDbEntity
 67
     1
  8
0
100
AcDbBlockBegin
  2
*Paper_Space
 70
     0
 10
0.0
 20
0.0
 30
0.0
  3
*Paper_Space
  1

  0
ENDBLK
  5
1D
330
1B
100
AcDbEntity
 67
     1
  8
0
100
AcDbBlockEnd
  0
BLOCK
  5
24
330
23
100
AcDbEntity
  8
0
100
AcDbBlockBegin
  2
*Paper_Space0
 70
     0
 10
0.0
 20
0.0
 30
0.0
  3
*Paper_Space0
  1

  0
ENDBLK
  5
25
330
23
100
AcDbEntity
  8
0
100
AcDbBlockEnd
  0
ENDSEC
  0
SECTION
  2
ENTITIES
  0
ARC
  5
73
330
1F
100
AcDbEntity
  8
0
  6
Continuous
 62
     7
100
AcDbCircle
 10
44.25
 20
34.25
 30
0.0
 40
3.75
100
AcDbArc
 50
0.0
 51
90.0
  0
ARC
  5
74
330
1F
100
AcDbEntity
  8
0
  6
Continuous
 62
     7
100
AcDbCircle
 10
44.25
 20
11.75
 30
0.0
 40
3.75
100
AcDbArc
 50
270.0
 51
0.0
  0
ARC
  5
75
330
1F
100
AcDbEntity
  8
0
  6
Continuous
 62
     7
100
AcDbCircle
 10
-13.25
 20
11.75
 30
0.0
 40
3.750000000000001
100
AcDbArc
 50
180.0
 51
270.0
  0
ARC
  5
76
330
1F
100
AcDbEntity
  8
0
  6
Continuous
 62
     7
100
AcDbCircle
 10
-13.25
 20
34.25
 30
0.0
 40
3.75
100
AcDbArc
 50
90.0
 51
180.0
  0
LINE
  5
77
330
1F
100
AcDbEntity
  8
0
  6
Continuous
 62
     7
100
AcDbLine
 10
44.25
 20
38.0
 30
0.0
 11
18.925
 21
38.0
 31
0.0
  0
LINE
  5
78
330
1F
100
AcDbEntity
  8
0
  6
Continuous
 62
     7
100
AcDbLine
 10
48.0
 20
11.75
 30
0.0
 11
48.0
 21
34.25
 31
0.0
  0
LINE
  5
79
330
1F
100
AcDbEntity
  8
0
  6
Continuous
 62
     7
100
AcDbLine
 10
44.25
 20
8.0
 30
0.0
 11
-13.25
 21
8.0
 31
0.0
  0
LINE
  5
7A
330
1F
100
AcDbEntity
  8
0
  6
CENTERX2
 62
     7
100
AcDbLine
 10
3.0
 20
33.0
 30
0.0
 11
48.0
 21
33.0
 31
0.0
  0
LINE
  5
7B
330
1F
100
AcDbEntity
  8
0
  6
Continuous
 62
     7
100
AcDbLine
 10
-17.0
 20
34.25
 30
0.0
 11
-17.0
 21
11.75
 31
0.0
  0
LINE
  5
7C
330
1F
100
AcDbEntity
  8
0
  6
Continuous
 62
     7
100
AcDbLine
 10
-13.25
 20
38.0
 30
0.0
 11
18.925
 21
38.0
 31
0.0
  0
LINE
  5
7D
330
1F
100
AcDbEntity
  8
0
  6
Continuous
 62
     7
100
AcDbLine
 10
48.0
 20
-48.0
 30
0.0
 11
48.0
 21
-13.0
 31
0.0
  0
LINE
  5
7E
330
1F
100
AcDbEntity
  8
0
  6
Continuous
 62
     7
100
AcDbLine
 10
31.0
 20
-48.0
 30
0.0
 11
48.0
 21
-48.0
 31
0.0
  0
LINE
  5
7F
330
1F
100
AcDbEntity
  8
0
  6
Continuous
 62
     7
100
AcDbLine
 10
40.5
 20
-13.0
 30
0.0
 11
32.5
 21
-13.0
 31
0.0
  0
LINE
  5
80
330
1F
100
AcDbEntity
  8
0
  6
Continuous
 62
     7
100
AcDbLine
 10
48.0
 20
-13.0
 30
0.0
 11
40.5
 21
-13.0
 31
0.0
  0
LINE
  5
81
330
1F
100
AcDbEntity
  8
0
  6
Continuous
 62
     7
100
AcDbLine
 10
32.5
 20
-13.0
 30
0.0
 11
31.0
 21
-13.0
 31
0.0
  0
LINE
  5
82
330
1F
100
AcDbEntity
  8
0
  6
Continuous
 62
     7
100
AcDbLine
 10
31.0
 20
-13.0
 30
0.0
 11
31.0
 21
-48.0
 31
0.0
  0
LINE
  5
83
330
1F
100
AcDbEntity
  8
0
  6
CENTERX2
 62
     7
100
AcDbLine
 10
34.0
 20
-20.0
 30
0.0
 11
48.0
 21
-20.0
 31
0.0
  0
LWPOLYLINE
  5
84
330
1F
100
AcDbEntity
  8
0
  6
Continuous
 62
     7
100
AcDbPolyline
 90
       59
 70
   128
 43
0.0
 10
3.2564102564
 20
34.9999964237
 10
3.656650641
 20
35.0
 10
3.656650641
 20
35.0
 10
3.7367788462
 20
34.999599359
 10
3.8104967949
 20
34.9983974359
 10
3.8770032051
 20
34.9959935897
 10
3.937099359
 20
34.9931891026
 10
3.9903846154
 20
34.9891826923
 10
4.0368589744
 20
34.984775641
 10
4.0769230769
 20
34.9791666667
 10
4.109775641
 20
34.9727564103
 10
4.109775641
 20
34.9727564103
 10
4.1534455128
 20
34.9611378205
 10
4.1951121795
 20
34.9463141026
 10
4.234775641
 20
34.9286858974
 10
4.2720352564
 20
34.9082532051
 10
4.3076923077
 20
34.8846153846
 10
4.3409455128
 20
34.8581730769
 10
4.3717948718
 20
34.8289262821
 10
4.4010416667
 20
34.796474359
 10
4.4270833333
 20
34.7620192308
 10
4.4499198718
 20
34.7251602564
 10
4.469150641
 20
34.6866987179
 10
4.484775641
 20
34.6462339744
 10
4.4971955128
 20
34.6037660256
 10
4.5060096154
 20
34.5596955128
 10
4.5112179487
 20
34.5132211538
 10
4.5128205128
 20
34.4651442308
 10
4.5128205128
 20
34.4651442308
 10
4.5080128205
 20
34.3854166667
 10
4.4931891026
 20
34.3108974359
 10
4.468349359
 20
34.2411858974
 10
4.4338942308
 20
34.1762820513
 10
4.390224359
 20
34.1177884615
 10
4.3381410256
 20
34.0669070513
 10
4.2776442308
 20
34.0236378205
 10
4.2087339744
 20
33.9879807692
 10
4.1702724359
 20
33.9731570513
 10
4.1286057692
 20
33.9599358974
 10
4.0829326923
 20
33.9491185897
 10
4.0340544872
 20
33.9399038462
 10
3.9819711538
 20
33.9326923077
 10
3.9258814103
 20
33.9274839744
 10
3.8665865385
 20
33.9242788462
 10
3.8036858974
 20
33.9230769231
 10
3.8036858974
 20
33.9230769231
 10
4.5384615385
 20
33.0
 10
4.5384615385
 20
33.0
 10
4.3165064103
 20
33.0
 10
4.3165064103
 20
33.0
 10
3.5817307692
 20
33.9230769231
 10
3.5817307692
 20
33.9230769231
 10
3.4358974359
 20
33.9230769231
 10
3.4358974359
 20
33.9230769231
 10
3.4358974359
 20
33.0
 10
3.4358974359
 20
33.0
 10
3.2564102564
 20
33.0
 10
3.2564102564
 20
33.0
 10
3.2564102564
 20
35.0
  0
LWPOLYLINE
  5
85
330
1F
100
AcDbEntity
  8
0
  6
Continuous
 62
     7
100
AcDbPolyline
 90
       40
 70
   128
 43
0.0
 10
3.4358974359
 20
34.7948670387
 10
3.4358974359
 20
34.1282051282
 10
3.4358974359
 20
34.1282051282
 10
3.8020833333
 20
34.125400641
 10
3.8020833333
 20
34.125400641
 10
3.8533653846
 20
34.1258012821
 10
3.9014423077
 20
34.1278044872
 10
3.9459134615
 20
34.1306089744
 10
3.9871794872
 20
34.1346153846
 10
4.0248397436
 20
34.1398237179
 10
4.0588942308
 20
34.1462339744
 10
4.0897435897
 20
34.1538461538
 10
4.1169871795
 20
34.1626602564
 10
4.1650641026
 20
34.1842948718
 10
4.2079326923
 20
34.2111378205
 10
4.2447916667
 20
34.2439903846
 10
4.2764423077
 20
34.2820512821
 10
4.3012820513
 20
34.3245192308
 10
4.3189102564
 20
34.3689903846
 10
4.3297275641
 20
34.4162660256
 10
4.3333333333
 20
34.4655448718
 10
4.3333333333
 20
34.4655448718
 10
4.3297275641
 20
34.5136217949
 10
4.3189102564
 20
34.5596955128
 10
4.3008814103
 20
34.6033653846
 10
4.2756410256
 20
34.6446314103
 10
4.2443910256
 20
34.6822916667
 10
4.2083333333
 20
34.7139423077
 10
4.1682692308
 20
34.7399839744
 10
4.1233974359
 20
34.7600160256
 10
4.0977564103
 20
34.7680288462
 10
4.0685096154
 20
34.7752403846
 10
4.0352564103
 20
34.78125
 10
3.9979967949
 20
34.7860576923
 10
3.9571314103
 20
34.7900641026
 10
3.9122596154
 20
34.7928685897
 10
3.8633814103
 20
34.7944711538
 10
3.8108974359
 20
34.7948717949
 10
3.8108974359
 20
34.7948717949
 10
3.4358974359
 20
34.7948717949
  0
LWPOLYLINE
  5
86
330
1F
100
AcDbEntity
  8
0
  6
Continuous
 62
     7
100
AcDbPolyline
 90
       62
 70
   128
 43
0.0
 10
6.3846153846
 20
34.4615280628
 10
6.3846153846
 20
33.0
 10
6.3846153846
 20
33.0
 10
6.2051282051
 20
33.0
 10
6.2051282051
 20
33.0
 10
6.2051282051
 20
33.2528044872
 10
6.2051282051
 20
33.2528044872
 10
6.1430288462
 20
33.1854967949
 10
6.077724359
 20
33.1278044872
 10
6.0084134615
 20
33.0797275641
 10
5.9354967949
 20
33.0412660256
 10
5.858974359
 20
33.0120192308
 10
5.7788461538
 20
32.9911858974
 10
5.6951121795
 20
32.9783653846
 10
5.6081730769
 20
32.9743589744
 10
5.6081730769
 20
32.9743589744
 10
5.530849359
 20
32.9779647436
 10
5.4563301282
 20
32.9883814103
 10
5.3846153846
 20
33.0056089744
 10
5.3157051282
 20
33.0296474359
 10
5.25
 20
33.0608974359
 10
5.187099359
 20
33.0989583333
 10
5.1270032051
 20
33.1438301282
 10
5.0697115385
 20
33.1959134615
 10
5.0172275641
 20
33.2528044872
 10
4.9719551282
 20
33.3125
 10
4.9334935897
 20
33.375400641
 10
4.9018429487
 20
33.4415064103
 10
4.8774038462
 20
33.5104166667
 10
4.8601762821
 20
33.5821314103
 10
4.8497596154
 20
33.6570512821
 10
4.8461538462
 20
33.734775641
 10
4.8461538462
 20
33.734775641
 10
4.8497596154
 20
33.8108974359
 10
4.8601762821
 20
33.8846153846
 10
4.8778044872
 20
33.9551282051
 10
4.9026442308
 20
34.0232371795
 10
4.9342948718
 20
34.0881410256
 10
4.9731570513
 20
34.1502403846
 10
5.0188301282
 20
34.2099358974
 10
5.0717147436
 20
34.2664262821
 10
5.1294070513
 20
34.3181089744
 10
5.1899038462
 20
34.3629807692
 10
5.2536057692
 20
34.4010416667
 10
5.3197115385
 20
34.4318910256
 10
5.3890224359
 20
34.4563301282
 10
5.4611378205
 20
34.4735576923
 10
5.5360576923
 20
34.4835737179
 10
5.6137820513
 20
34.4871794872
 10
5.6137820513
 20
34.4871794872
 10
5.703125
 20
34.4827724359
 10
5.7880608974
 20
34.4695512821
 10
5.8689903846
 20
34.4471153846
 10
5.9451121795
 20
34.4162660256
 10
6.0168269231
 20
34.3758012821
 10
6.0841346154
 20
34.3245192308
 10
6.1466346154
 20
34.2632211538
 10
6.2051282051
 20
34.1911057692
 10
6.2051282051
 20
34.1911057692
 10
6.2051282051
 20
34.4615384615
 10
6.2051282051
 20
34.4615384615
 10
6.3846153846
 20
34.4615384615
  0
LWPOLYLINE
  5
87
330
1F
100
AcDbEntity
  8
0
  6
Continuous
 62
     7
100
AcDbPolyline
 90
       56
 70
   128
 43
0.0
 10
5.6161858974
 20
34.3076884747
 10
5.5376602564
 20
34.3028846154
 10
5.4623397436
 20
34.2888621795
 10
5.390224359
 20
34.265224359
 10
5.3209134615
 20
34.2323717949
 10
5.2568108974
 20
34.1911057692
 10
5.1995192308
 20
34.1418269231
 10
5.1490384615
 20
34.0853365385
 10
5.1057692308
 20
34.0208333333
 10
5.0705128205
 20
33.9519230769
 10
5.0456730769
 20
33.8806089744
 10
5.0304487179
 20
33.8076923077
 10
5.0256410256
 20
33.7327724359
 10
5.0256410256
 20
33.7327724359
 10
5.030849359
 20
33.6582532051
 10
5.0456730769
 20
33.5853365385
 10
5.0713141026
 20
33.5140224359
 10
5.1065705128
 20
33.4443108974
 10
5.1502403846
 20
33.3794070513
 10
5.2007211538
 20
33.3221153846
 10
5.2584134615
 20
33.2724358974
 10
5.3229166667
 20
33.2303685897
 10
5.3922275641
 20
33.1967147436
 10
5.4635416667
 20
33.1730769231
 10
5.5380608974
 20
33.1586538462
 10
5.6145833333
 20
33.1538461538
 10
5.6145833333
 20
33.1538461538
 10
5.6923076923
 20
33.1586538462
 10
5.7676282051
 20
33.1726762821
 10
5.8413461538
 20
33.1963141026
 10
5.9126602564
 20
33.2295673077
 10
5.9787660256
 20
33.2708333333
 10
6.0372596154
 20
33.3189102564
 10
6.0873397436
 20
33.3737980769
 10
6.1294070513
 20
33.4350961538
 10
6.1626602564
 20
33.5020032051
 10
6.1862980769
 20
33.5733173077
 10
6.2003205128
 20
33.6482371795
 10
6.2051282051
 20
33.7275641026
 10
6.2051282051
 20
33.7275641026
 10
6.2023237179
 20
33.7880608974
 10
6.1943108974
 20
33.8461538462
 10
6.1810897436
 20
33.9018429487
 10
6.1626602564
 20
33.9547275641
 10
6.1386217949
 20
34.0052083333
 10
6.109375
 20
34.0532852564
 10
6.0749198718
 20
34.0985576923
 10
6.0352564103
 20
34.1414262821
 10
5.9915865385
 20
34.1802884615
 10
5.9451121795
 20
34.2143429487
 10
5.8966346154
 20
34.2427884615
 10
5.8453525641
 20
34.266025641
 10
5.7916666667
 20
34.2844551282
 10
5.7355769231
 20
34.297275641
 10
5.6770833333
 20
34.3052884615
 10
5.6161858974
 20
34.3076923077
  0
LWPOLYLINE
  5
88
330
1F
100
AcDbEntity
  8
0
  6
Continuous
 62
     7
100
AcDbPolyline
 90
      148
 70
   128
 43
0.0
 10
7.4871794872
 20
34.2792272568
 10
7.3653846154
 20
34.1538461538
 10
7.3653846154
 20
34.1538461538
 10
7.3333333333
 20
34.1899038462
 10
7.3012820513
 20
34.2211538462
 10
7.2692307692
 20
34.2475961538
 10
7.2375801282
 20
34.2692307692
 10
7.2063301282
 20
34.2860576923
 10
7.1750801282
 20
34.2980769231
 10
7.1438301282
 20
34.3052884615
 10
7.1129807692
 20
34.3076923077
 10
7.1129807692
 20
34.3076923077
 10
7.0753205128
 20
34.3040865385
 10
7.0404647436
 20
34.2928685897
 10
7.0084134615
 20
34.2744391026
 10
6.9791666667
 20
34.2483974359
 10
6.9547275641
 20
34.2175480769
 10
6.937099359
 20
34.1846955128
 10
6.9266826923
 20
34.1490384615
 10
6.9230769231
 20
34.1109775641
 10
6.9230769231
 20
34.1109775641
 10
6.9262820513
 20
34.0765224359
 10
6.9354967949
 20
34.0432692308
 10
6.9511217949
 20
34.0104166667
 10
6.9727564103
 20
33.9783653846
 10
6.9727564103
 20
33.9783653846
 10
6.9867788462
 20
33.9619391026
 10
7.0044070513
 20
33.9451121795
 10
7.0252403846
 20
33.9270833333
 10
7.0496794872
 20
33.9086538462
 10
7.077724359
 20
33.8894230769
 10
7.108974359
 20
33.8697916667
 10
7.1434294872
 20
33.8489583333
 10
7.1814903846
 20
33.827724359
 10
7.1814903846
 20
33.827724359
 10
7.2279647436
 20
33.8012820513
 10
7.2704326923
 20
33.7752403846
 10
7.3092948718
 20
33.7491987179
 10
7.344150641
 20
33.7235576923
 10
7.375
 20
33.6979166667
 10
7.4022435897
 20
33.6726762821
 10
7.4254807692
 20
33.6474358974
 10
7.4447115385
 20
33.6225961538
 10
7.4447115385
 20
33.6225961538
 10
7.4743589744
 20
33.5709134615
 10
7.4955929487
 20
33.516025641
 10
7.5084134615
 20
33.4579326923
 10
7.5128205128
 20
33.3966346154
 10
7.5128205128
 20
33.3966346154
 10
7.5108173077
 20
33.3533653846
 10
7.5052083333
 20
33.3116987179
 10
7.4955929487
 20
33.2716346154
 10
7.4823717949
 20
33.2335737179
 10
7.4651442308
 20
33.1967147436
 10
7.4439102564
 20
33.1618589744
 10
7.4190705128
 20
33.1286057692
 10
7.390625
 20
33.0969551282
 10
7.358974359
 20
33.0681089744
 10
7.3253205128
 20
33.0432692308
 10
7.2900641026
 20
33.0224358974
 10
7.2528044872
 20
33.0052083333
 10
7.2135416667
 20
32.9915865385
 10
7.172275641
 20
32.9819711538
 10
7.1294070513
 20
32.9763621795
 10
7.0845352564
 20
32.9743589744
 10
7.0845352564
 20
32.9743589744
 10
7.0240384615
 20
32.9775641026
 10
6.9651442308
 20
32.9875801282
 10
6.9074519231
 20
33.0040064103
 10
6.8509615385
 20
33.0268429487
 10
6.7976762821
 20
33.0556891026
 10
6.7491987179
 20
33.0897435897
 10
6.7055288462
 20
33.1286057692
 10
6.6666666667
 20
33.172275641
 10
6.6666666667
 20
33.172275641
 10
6.7856570513
 20
33.3076923077
 10
6.7856570513
 20
33.3076923077
 10
6.8201121795
 20
33.2716346154
 10
6.8549679487
 20
33.2403846154
 10
6.890625
 20
33.2139423077
 10
6.9262820513
 20
33.1923076923
 10
6.9627403846
 20
33.1754807692
 10
7.0
 20
33.1634615385
 10
7.0372596154
 20
33.15625
 10
7.0753205128
 20
33.1538461538
 10
7.0753205128
 20
33.1538461538
 10
7.1270032051
 20
33.1582532051
 10
7.1746794872
 20
33.171474359
 10
7.218349359
 20
33.1931089744
 10
7.2580128205
 20
33.2239583333
 10
7.2908653846
 20
33.2604166667
 10
7.3145032051
 20
33.3004807692
 10
7.328525641
 20
33.3429487179
 10
7.3333333333
 20
33.3890224359
 10
7.3333333333
 20
33.3890224359
 10
7.3301282051
 20
33.4270833333
 10
7.3209134615
 20
33.4631410256
 10
7.3056891026
 20
33.4967948718
 10
7.2840544872
 20
33.5284455128
 10
7.2840544872
 20
33.5284455128
 10
7.2700320513
 20
33.5436698718
 10
7.2520032051
 20
33.5600961538
 10
7.2299679487
 20
33.577724359
 10
7.2043269231
 20
33.5961538462
 10
7.1746794872
 20
33.6153846154
 10
7.141025641
 20
33.6354166667
 10
7.1037660256
 20
33.656650641
 10
7.0625
 20
33.6790865385
 10
7.0625
 20
33.6790865385
 10
7.0180288462
 20
33.7043269231
 10
6.9771634615
 20
33.7295673077
 10
6.9403044872
 20
33.7548076923
 10
6.906650641
 20
33.7796474359
 10
6.8770032051
 20
33.8044871795
 10
6.8513621795
 20
33.8293269231
 10
6.8289262821
 20
33.8541666667
 10
6.8104967949
 20
33.8786057692
 10
6.8104967949
 20
33.8786057692
 10
6.78125
 20
33.9294871795
 10
6.7604166667
 20
33.984375
 10
6.7475961538
 20
34.0420673077
 10
6.7435897436
 20
34.1037660256
 10
6.7435897436
 20
34.1037660256
 10
6.7451923077
 20
34.1442307692
 10
6.75
 20
34.1826923077
 10
6.7584134615
 20
34.2195512821
 10
6.7696314103
 20
34.2548076923
 10
6.7844551282
 20
34.2880608974
 10
6.8024839744
 20
34.3197115385
 10
6.8241185897
 20
34.3497596154
 10
6.8485576923
 20
34.3778044872
 10
6.875400641
 20
34.4034455128
 10
6.9042467949
 20
34.4254807692
 10
6.9346955128
 20
34.4443108974
 10
6.9667467949
 20
34.4599358974
 10
7.0008012821
 20
34.4719551282
 10
7.0364583333
 20
34.4803685897
 10
7.0737179487
 20
34.4855769231
 10
7.1129807692
 20
34.4871794872
 10
7.1129807692
 20
34.4871794872
 10
7.1594551282
 20
34.483974359
 10
7.2059294872
 20
34.4743589744
 10
7.2528044872
 20
34.4579326923
 10
7.2992788462
 20
34.4350961538
 10
7.3461538462
 20
34.405849359
 10
7.3930288462
 20
34.3701923077
 10
7.4403044872
 20
34.328125
 10
7.4871794872
 20
34.2792467949
  0
LWPOLYLINE
  5
89
330
1F
100
AcDbEntity
  8
0
  6
Continuous
 62
     7
100
AcDbPolyline
 90
       62
 70
   128
 43
0.0
 10
7.8717948718
 20
34.4615280628
 10
8.0512820513
 20
34.4615384615
 10
8.0512820513
 20
34.4615384615
 10
8.0512820513
 20
34.1911057692
 10
8.0512820513
 20
34.1911057692
 10
8.1101762821
 20
34.2632211538
 10
8.1730769231
 20
34.3245192308
 10
8.2407852564
 20
34.3758012821
 10
8.3125
 20
34.4162660256
 10
8.3882211538
 20
34.4471153846
 10
8.468349359
 20
34.4695512821
 10
8.5528846154
 20
34.4827724359
 10
8.6418269231
 20
34.4871794872
 10
8.6418269231
 20
34.4871794872
 10
8.7195512821
 20
34.4835737179
 10
8.7948717949
 20
34.4735576923
 10
8.8669871795
 20
34.4563301282
 10
8.9362980769
 20
34.4318910256
 10
9.0028044872
 20
34.4010416667
 10
9.0661057692
 20
34.3629807692
 10
9.1270032051
 20
34.3181089744
 10
9.1846955128
 20
34.2664262821
 10
9.2375801282
 20
34.2099358974
 10
9.2832532051
 20
34.1502403846
 10
9.3221153846
 20
34.0881410256
 10
9.3537660256
 20
34.0232371795
 10
9.3786057692
 20
33.9551282051
 10
9.3962339744
 20
33.8846153846
 10
9.406650641
 20
33.8108974359
 10
9.4102564103
 20
33.734775641
 10
9.4102564103
 20
33.734775641
 10
9.406650641
 20
33.6570512821
 10
9.3962339744
 20
33.5821314103
 10
9.3790064103
 20
33.5104166667
 10
9.3541666667
 20
33.4415064103
 10
9.3229166667
 20
33.375400641
 10
9.2844551282
 20
33.3125
 10
9.2391826923
 20
33.2528044872
 10
9.1866987179
 20
33.1959134615
 10
9.1294070513
 20
33.1438301282
 10
9.0693108974
 20
33.0989583333
 10
9.0060096154
 20
33.0608974359
 10
8.9399038462
 20
33.0296474359
 10
8.8713942308
 20
33.0056089744
 10
8.7996794872
 20
32.9883814103
 10
8.7247596154
 20
32.9779647436
 10
8.6474358974
 20
32.9743589744
 10
8.6474358974
 20
32.9743589744
 10
8.5600961538
 20
32.9787660256
 10
8.4767628205
 20
32.9927884615
 10
8.3966346154
 20
33.015224359
 10
8.3205128205
 20
33.047275641
 10
8.2475961538
 20
33.0881410256
 10
8.1786858974
 20
33.1382211538
 10
8.1129807692
 20
33.1971153846
 10
8.0512820513
 20
33.2648237179
 10
8.0512820513
 20
33.2648237179
 10
8.0512820513
 20
32.4615384615
 10
8.0512820513
 20
32.4615384615
 10
7.8717948718
 20
32.4615384615
 10
7.8717948718
 20
32.4615384615
 10
7.8717948718
 20
34.4615384615
  0
LWPOLYLINE
  5
8A
330
1F
100
AcDbEntity
  8
0
  6
Continuous
 62
     7
100
AcDbPolyline
 90
       56
 70
   128
 43
0.0
 10
8.640224359
 20
34.3076884747
 10
8.5793269231
 20
34.3052884615
 10
8.5208333333
 20
34.297275641
 10
8.4647435897
 20
34.2844551282
 10
8.4110576923
 20
34.266025641
 10
8.3601762821
 20
34.2427884615
 10
8.3112980769
 20
34.2143429487
 10
8.265224359
 20
34.1802884615
 10
8.2215544872
 20
34.1414262821
 10
8.1814903846
 20
34.0985576923
 10
8.1470352564
 20
34.0532852564
 10
8.1177884615
 20
34.0052083333
 10
8.09375
 20
33.9547275641
 10
8.0753205128
 20
33.9018429487
 10
8.062099359
 20
33.8461538462
 10
8.0540865385
 20
33.7880608974
 10
8.0512820513
 20
33.7275641026
 10
8.0512820513
 20
33.7275641026
 10
8.0560897436
 20
33.6482371795
 10
8.0701121795
 20
33.5733173077
 10
8.094150641
 20
33.5020032051
 10
8.1274038462
 20
33.4350961538
 10
8.1694711538
 20
33.3737980769
 10
8.2195512821
 20
33.3189102564
 10
8.2780448718
 20
33.2708333333
 10
8.3445512821
 20
33.2295673077
 10
8.4162660256
 20
33.1963141026
 10
8.4899839744
 20
33.1726762821
 10
8.5653044872
 20
33.1586538462
 10
8.6430288462
 20
33.1538461538
 10
8.6430288462
 20
33.1538461538
 10
8.719150641
 20
33.1586538462
 10
8.7928685897
 20
33.1730769231
 10
8.8645833333
 20
33.1967147436
 10
8.9334935897
 20
33.2303685897
 10
8.9979967949
 20
33.2724358974
 10
9.0556891026
 20
33.3221153846
 10
9.1061698718
 20
33.3794070513
 10
9.1502403846
 20
33.4443108974
 10
9.1854967949
 20
33.5140224359
 10
9.2107371795
 20
33.5853365385
 10
9.2255608974
 20
33.6582532051
 10
9.2307692308
 20
33.7327724359
 10
9.2307692308
 20
33.7327724359
 10
9.2259615385
 20
33.8076923077
 10
9.2107371795
 20
33.8806089744
 10
9.1858974359
 20
33.9519230769
 10
9.1510416667
 20
34.0208333333
 10
9.1073717949
 20
34.0853365385
 10
9.0568910256
 20
34.1418269231
 10
8.999599359
 20
34.1911057692
 10
8.9354967949
 20
34.2323717949
 10
8.8661858974
 20
34.265224359
 10
8.7940705128
 20
34.2888621795
 10
8.71875
 20
34.3028846154
 10
8.640224359
 20
34.3076923077
  0
LWPOLYLINE
  5
8B
330
1F
100
AcDbEntity
  8
0
  6
Continuous
 62
     7
100
AcDbPolyline
 90
       62
 70
   128
 43
0.0
 10
9.7692307692
 20
32.9999923706
 10
9.7692307692
 20
35.0512820513
 10
9.7692307692
 20
35.0512820513
 10
9.9487179487
 20
35.0512820513
 10
9.9487179487
 20
35.0512820513
 10
9.9487179487
 20
34.1963141026
 10
9.9487179487
 20
34.1963141026
 10
10.0104166667
 20
34.2648237179
 10
10.0761217949
 20
34.3237179487
 10
10.1450320513
 20
34.3737980769
 10
10.2179487179
 20
34.4146634615
 10
10.2940705128
 20
34.4463141026
 10
10.3741987179
 20
34.469150641
 10
10.4575320513
 20
34.4827724359
 10
10.5448717949
 20
34.4871794872
 10
10.5448717949
 20
34.4871794872
 10
10.6221955128
 20
34.4835737179
 10
10.6971153846
 20
34.4731570513
 10
10.7688301282
 20
34.4559294872
 10
10.8373397436
 20
34.4318910256
 10
10.9034455128
 20
34.4006410256
 10
10.9667467949
 20
34.3625801282
 10
11.0268429487
 20
34.3177083333
 10
11.0841346154
 20
34.265625
 10
11.1366185897
 20
34.2087339744
 10
11.1818910256
 20
34.1490384615
 10
11.2203525641
 20
34.0861378205
 10
11.2516025641
 20
34.0204326923
 10
11.2764423077
 20
33.9519230769
 10
11.2936698718
 20
33.8802083333
 10
11.3040865385
 20
33.8056891026
 10
11.3076923077
 20
33.7279647436
 10
11.3076923077
 20
33.7279647436
 10
11.3040865385
 20
33.6514423077
 10
11.2936698718
 20
33.577724359
 10
11.2760416667
 20
33.5068108974
 10
11.2512019231
 20
33.4387019231
 10
11.2195512821
 20
33.3733974359
 10
11.1806891026
 20
33.3112980769
 10
11.1350160256
 20
33.2516025641
 10
11.0821314103
 20
33.1951121795
 10
11.0244391026
 20
33.1434294872
 10
10.9635416667
 20
33.0985576923
 10
10.9002403846
 20
33.0604967949
 10
10.8337339744
 20
33.0296474359
 10
10.7644230769
 20
33.0052083333
 10
10.6923076923
 20
32.9879807692
 10
10.6169871795
 20
32.9779647436
 10
10.5392628205
 20
32.9743589744
 10
10.5392628205
 20
32.9743589744
 10
10.4503205128
 20
32.9787660256
 10
10.3657852564
 20
32.9919871795
 10
10.2856570513
 20
33.0144230769
 10
10.2099358974
 20
33.0452724359
 10
10.1382211538
 20
33.0861378205
 10
10.0705128205
 20
33.1370192308
 10
10.0076121795
 20
33.1987179487
 10
9.9487179487
 20
33.2704326923
 10
9.9487179487
 20
33.2704326923
 10
9.9487179487
 20
33.0
 10
9.9487179487
 20
33.0
 10
9.7692307692
 20
33.0
  0
LWPOLYLINE
  5
8C
330
1F
100
AcDbEntity
  8
0
  6
Continuous
 62
     7
100
AcDbPolyline
 90
       56
 70
   128
 43
0.0
 10
10.5376602564
 20
33.1538319588
 10
10.6161858974
 20
33.1586538462
 10
10.6915064103
 20
33.1726762821
 10
10.7636217949
 20
33.1963141026
 10
10.8329326923
 20
33.2291666667
 10
10.8970352564
 20
33.2704326923
 10
10.9543269231
 20
33.3197115385
 10
11.0048076923
 20
33.3762019231
 10
11.0484775641
 20
33.4403044872
 10
11.0833333333
 20
33.5092147436
 10
11.1081730769
 20
33.5805288462
 10
11.1233974359
 20
33.6530448718
 10
11.1282051282
 20
33.7279647436
 10
11.1282051282
 20
33.7279647436
 10
11.1229967949
 20
33.8028846154
 10
11.1081730769
 20
33.8762019231
 10
11.0829326923
 20
33.9475160256
 10
11.0476762821
 20
34.0172275641
 10
11.0036057692
 20
34.0821314103
 10
10.953125
 20
34.1394230769
 10
10.8954326923
 20
34.1891025641
 10
10.8309294872
 20
34.2311698718
 10
10.7620192308
 20
34.2648237179
 10
10.6903044872
 20
34.2884615385
 10
10.6165865385
 20
34.3028846154
 10
10.5404647436
 20
34.3076923077
 10
10.5404647436
 20
34.3076923077
 10
10.4627403846
 20
34.3028846154
 10
10.3874198718
 20
34.2884615385
 10
10.3137019231
 20
34.2648237179
 10
10.2419871795
 20
34.2311698718
 10
10.1754807692
 20
34.1895032051
 10
10.1169871795
 20
34.1414262821
 10
10.0669070513
 20
34.0865384615
 10
10.0248397436
 20
34.0248397436
 10
9.9915865385
 20
33.9579326923
 10
9.9675480769
 20
33.8874198718
 10
9.953525641
 20
33.8125
 10
9.9487179487
 20
33.7335737179
 10
9.9487179487
 20
33.7335737179
 10
9.9515224359
 20
33.6730769231
 10
9.9595352564
 20
33.6149839744
 10
9.9727564103
 20
33.5592948718
 10
9.9911858974
 20
33.5064102564
 10
10.015224359
 20
33.4559294872
 10
10.0444711538
 20
33.4078525641
 10
10.0789262821
 20
33.3625801282
 10
10.1189903846
 20
33.3197115385
 10
10.1626602564
 20
33.280849359
 10
10.2087339744
 20
33.2471955128
 10
10.2576121795
 20
33.21875
 10
10.3084935897
 20
33.1955128205
 10
10.3621794872
 20
33.1770833333
 10
10.4182692308
 20
33.1642628205
 10
10.4767628205
 20
33.15625
 10
10.5376602564
 20
33.1538461538
  0
LWPOLYLINE
  5
8D
330
1F
100
AcDbEntity
  8
0
  6
Continuous
 62
     7
100
AcDbPolyline
 90
      100
 70
   128
 43
0.0
 10
12.8661858974
 20
33.4615111351
 10
13.0256410256
 20
33.3778044872
 10
13.0256410256
 20
33.3778044872
 10
12.9863782051
 20
33.3108974359
 10
12.9443108974
 20
33.2508012821
 10
12.8994391026
 20
33.1971153846
 10
12.8517628205
 20
33.1506410256
 10
12.8008814103
 20
33.1101762821
 10
12.7467948718
 20
33.0749198718
 10
12.6895032051
 20
33.0444711538
 10
12.6294070513
 20
33.0192307692
 10
12.5657051282
 20
32.999599359
 10
12.4979967949
 20
32.9855769231
 10
12.4262820513
 20
32.9771634615
 10
12.3505608974
 20
32.9743589744
 10
12.3505608974
 20
32.9743589744
 10
12.2664262821
 20
32.9779647436
 10
12.187099359
 20
32.9887820513
 10
12.1125801282
 20
33.0068108974
 10
12.0424679487
 20
33.0320512821
 10
11.9775641026
 20
33.0645032051
 10
11.9170673077
 20
33.1041666667
 10
11.8609775641
 20
33.1510416667
 10
11.8100961538
 20
33.2051282051
 10
11.7644230769
 20
33.2636217949
 10
11.7247596154
 20
33.3241185897
 10
11.6915064103
 20
33.3866185897
 10
11.6638621795
 20
33.4511217949
 10
11.6426282051
 20
33.5172275641
 10
11.6274038462
 20
33.5849358974
 10
11.6185897436
 20
33.6550480769
 10
11.6153846154
 20
33.7267628205
 10
11.6153846154
 20
33.7267628205
 10
11.6181891026
 20
33.7940705128
 10
11.6258012821
 20
33.859775641
 10
11.6390224359
 20
33.9234775641
 10
11.6574519231
 20
33.9855769231
 10
11.6810897436
 20
34.0456730769
 10
11.7099358974
 20
34.1037660256
 10
11.7443910256
 20
34.1602564103
 10
11.7836538462
 20
34.2147435897
 10
11.7836538462
 20
34.2147435897
 10
11.8393429487
 20
34.2784455128
 10
11.8994391026
 20
34.3341346154
 10
11.9639423077
 20
34.3806089744
 10
12.0332532051
 20
34.4190705128
 10
12.1069711538
 20
34.4487179487
 10
12.1850961538
 20
34.4703525641
 10
12.2676282051
 20
34.4827724359
 10
12.3549679487
 20
34.4871794872
 10
12.3549679487
 20
34.4871794872
 10
12.4447115385
 20
34.4827724359
 10
12.5300480769
 20
34.469150641
 10
12.6105769231
 20
34.4467147436
 10
12.6862980769
 20
34.4154647436
 10
12.7576121795
 20
34.375
 10
12.8241185897
 20
34.3253205128
 10
12.8862179487
 20
34.2668269231
 10
12.9435096154
 20
34.1995192308
 10
12.9435096154
 20
34.1995192308
 10
12.9803685897
 20
34.1470352564
 10
13.0120192308
 20
34.0917467949
 10
13.0392628205
 20
34.0328525641
 10
13.0612980769
 20
33.9711538462
 10
13.0789262821
 20
33.90625
 10
13.0917467949
 20
33.8381410256
 10
13.0993589744
 20
33.7668269231
 10
13.1025641026
 20
33.6923076923
 10
13.1025641026
 20
33.6923076923
 10
11.7948717949
 20
33.6923076923
 10
11.7948717949
 20
33.6923076923
 10
11.7984775641
 20
33.6346153846
 10
11.8064903846
 20
33.5793269231
 10
11.8193108974
 20
33.5268429487
 10
11.8369391026
 20
33.4771634615
 10
11.858974359
 20
33.4302884615
 10
11.8854166667
 20
33.3858173077
 10
11.9166666667
 20
33.344150641
 10
11.9523237179
 20
33.3048878205
 10
11.9915865385
 20
33.2696314103
 10
12.0328525641
 20
33.2387820513
 10
12.0765224359
 20
33.2127403846
 10
12.1221955128
 20
33.1915064103
 10
12.1702724359
 20
33.1750801282
 10
12.2207532051
 20
33.1634615385
 10
12.2732371795
 20
33.15625
 10
12.328125
 20
33.1538461538
 10
12.328125
 20
33.1538461538
 10
12.3818108974
 20
33.155849359
 10
12.4342948718
 20
33.1622596154
 10
12.4867788462
 20
33.1730769231
 10
12.5380608974
 20
33.187900641
 10
12.5869391026
 20
33.2063301282
 10
12.6322115385
 20
33.2279647436
 10
12.6738782051
 20
33.2520032051
 10
12.7115384615
 20
33.2788461538
 10
12.7479967949
 20
33.3112980769
 10
12.7856570513
 20
33.3529647436
 10
12.8253205128
 20
33.4026442308
 10
12.8661858974
 20
33.4615384615
  0
LWPOLYLINE
  5
8E
330
1F
100
AcDbEntity
  8
0
  6
Continuous
 62
     7
100
AcDbPolyline
 90
       33
 70
   128
 43
0.0
 10
12.9230769231
 20
33.8717699051
 10
12.9018429487
 20
33.9427083333
 10
12.8758012821
 20
34.0060096154
 10
12.8461538462
 20
34.0616987179
 10
12.8116987179
 20
34.109775641
 10
12.7720352564
 20
34.1522435897
 10
12.7263621795
 20
34.1903044872
 10
12.6750801282
 20
34.2239583333
 10
12.6177884615
 20
34.2532051282
 10
12.5568910256
 20
34.2772435897
 10
12.4939903846
 20
34.2940705128
 10
12.4298878205
 20
34.3044871795
 10
12.3641826923
 20
34.3076923077
 10
12.3641826923
 20
34.3076923077
 10
12.3104967949
 20
34.3056891026
 10
12.2584134615
 20
34.2992788462
 10
12.2083333333
 20
34.2884615385
 10
12.1602564103
 20
34.2736378205
 10
12.1141826923
 20
34.2540064103
 10
12.0701121795
 20
34.2307692308
 10
12.0280448718
 20
34.202724359
 10
11.9875801282
 20
34.1706730769
 10
11.9875801282
 20
34.1706730769
 10
11.9595352564
 20
34.1442307692
 10
11.9334935897
 20
34.1145833333
 10
11.9090544872
 20
34.0821314103
 10
11.8866185897
 20
34.046474359
 10
11.8657852564
 20
34.0072115385
 10
11.8465544872
 20
33.9651442308
 10
11.8293269231
 20
33.9202724359
 10
11.8137019231
 20
33.8717948718
 10
11.8137019231
 20
33.8717948718
 10
12.9230769231
 20
33.8717948718
  0
LWPOLYLINE
  5
8F
330
1F
100
AcDbEntity
  8
0
  6
Continuous
 62
     7
100
AcDbPolyline
 90
       53
 70
   128
 43
0.0
 10
13.4102564103
 20
34.4615280628
 10
13.5897435897
 20
34.4615384615
 10
13.5897435897
 20
34.4615384615
 10
13.5897435897
 20
34.2463942308
 10
13.5897435897
 20
34.2463942308
 10
13.6306089744
 20
34.3056891026
 10
13.6726762821
 20
34.3561698718
 10
13.7155448718
 20
34.3974358974
 10
13.7600160256
 20
34.4302884615
 10
13.8052884615
 20
34.4551282051
 10
13.8513621795
 20
34.4731570513
 10
13.8982371795
 20
34.4835737179
 10
13.9463141026
 20
34.4871794872
 10
13.9463141026
 20
34.4871794872
 10
13.9835737179
 20
34.483974359
 10
14.0216346154
 20
34.4747596154
 10
14.0616987179
 20
34.4591346154
 10
14.1025641026
 20
34.437099359
 10
14.1025641026
 20
34.437099359
 10
14.0040064103
 20
34.281650641
 10
14.0040064103
 20
34.281650641
 10
13.9779647436
 20
34.2928685897
 10
13.9539262821
 20
34.3012820513
 10
13.9318910256
 20
34.3060897436
 10
13.9122596154
 20
34.3076923077
 10
13.9122596154
 20
34.3076923077
 10
13.8689903846
 20
34.3028846154
 10
13.8269230769
 20
34.2884615385
 10
13.7852564103
 20
34.2644230769
 10
13.7447916667
 20
34.2307692308
 10
13.7251602564
 20
34.2103365385
 10
13.7067307692
 20
34.187099359
 10
13.6899038462
 20
34.1614583333
 10
13.6738782051
 20
34.1330128205
 10
13.6590544872
 20
34.1017628205
 10
13.6454326923
 20
34.0681089744
 10
13.6330128205
 20
34.031650641
 10
13.6217948718
 20
33.9927884615
 10
13.6217948718
 20
33.9927884615
 10
13.6141826923
 20
33.9579326923
 10
13.6077724359
 20
33.9150641026
 10
13.6021634615
 20
33.8641826923
 10
13.5977564103
 20
33.8052884615
 10
13.594150641
 20
33.7387820513
 10
13.5917467949
 20
33.6642628205
 10
13.5901442308
 20
33.5817307692
 10
13.5897435897
 20
33.4911858974
 10
13.5897435897
 20
33.4911858974
 10
13.5897435897
 20
33.0
 10
13.5897435897
 20
33.0
 10
13.4102564103
 20
33.0
 10
13.4102564103
 20
33.0
 10
13.4102564103
 20
34.4615384615
  0
LWPOLYLINE
  5
90
330
1F
100
AcDbEntity
  8
0
  6
Continuous
 62
     7
100
AcDbPolyline
 90
       53
 70
   128
 43
0.0
 10
14.2564102564
 20
34.4615280628
 10
14.4358974359
 20
34.4615384615
 10
14.4358974359
 20
34.4615384615
 10
14.4358974359
 20
34.2463942308
 10
14.4358974359
 20
34.2463942308
 10
14.4767628205
 20
34.3056891026
 10
14.5188301282
 20
34.3561698718
 10
14.5616987179
 20
34.3974358974
 10
14.6061698718
 20
34.4302884615
 10
14.6514423077
 20
34.4551282051
 10
14.6975160256
 20
34.4731570513
 10
14.7443910256
 20
34.4835737179
 10
14.7924679487
 20
34.4871794872
 10
14.7924679487
 20
34.4871794872
 10
14.8297275641
 20
34.483974359
 10
14.8677884615
 20
34.4747596154
 10
14.9078525641
 20
34.4591346154
 10
14.9487179487
 20
34.437099359
 10
14.9487179487
 20
34.437099359
 10
14.8501602564
 20
34.281650641
 10
14.8501602564
 20
34.281650641
 10
14.8241185897
 20
34.2928685897
 10
14.8000801282
 20
34.3012820513
 10
14.7780448718
 20
34.3060897436
 10
14.7584134615
 20
34.3076923077
 10
14.7584134615
 20
34.3076923077
 10
14.7151442308
 20
34.3028846154
 10
14.6730769231
 20
34.2884615385
 10
14.6314102564
 20
34.2644230769
 10
14.5909455128
 20
34.2307692308
 10
14.5713141026
 20
34.2103365385
 10
14.5528846154
 20
34.187099359
 10
14.5360576923
 20
34.1614583333
 10
14.5200320513
 20
34.1330128205
 10
14.5052083333
 20
34.1017628205
 10
14.4915865385
 20
34.0681089744
 10
14.4791666667
 20
34.031650641
 10
14.4679487179
 20
33.9927884615
 10
14.4679487179
 20
33.9927884615
 10
14.4603365385
 20
33.9579326923
 10
14.4539262821
 20
33.9150641026
 10
14.4483173077
 20
33.8641826923
 10
14.4439102564
 20
33.8052884615
 10
14.4403044872
 20
33.7387820513
 10
14.437900641
 20
33.6642628205
 10
14.4362980769
 20
33.5817307692
 10
14.4358974359
 20
33.4911858974
 10
14.4358974359
 20
33.4911858974
 10
14.4358974359
 20
33.0
 10
14.4358974359
 20
33.0
 10
14.2564102564
 20
33.0
 10
14.2564102564
 20
33.0
 10
14.2564102564
 20
34.4615384615
  0
LWPOLYLINE
  5
91
330
1F
100
AcDbEntity
  8
0
  6
Continuous
 62
     7
100
AcDbPolyline
 90
       16
 70
   128
 43
0.0
 10
15.0
 20
34.4615280628
 10
15.1935096154
 20
34.4615384615
 10
15.1935096154
 20
34.4615384615
 10
15.6883012821
 20
33.3421474359
 10
15.6883012821
 20
33.3421474359
 10
16.1907051282
 20
34.4615384615
 10
16.1907051282
 20
34.4615384615
 10
16.3846153846
 20
34.4615384615
 10
16.3846153846
 20
34.4615384615
 10
15.4871794872
 20
32.4615384615
 10
15.4871794872
 20
32.4615384615
 10
15.2932692308
 20
32.4615384615
 10
15.2932692308
 20
32.4615384615
 10
15.5909455128
 20
33.124599359
 10
15.5909455128
 20
33.124599359
 10
15.0
 20
34.4615384615
  0
LWPOLYLINE
  5
92
330
1F
100
AcDbEntity
  8
0
  6
Continuous
 62
     7
100
AcDbPolyline
 90
       62
 70
   128
 43
0.0
 10
17.4615384615
 20
34.9999964237
 10
17.8537660256
 20
35.0
 10
17.8537660256
 20
35.0
 10
17.9346955128
 20
34.999599359
 10
18.0088141026
 20
34.9979967949
 10
18.0761217949
 20
34.9955929487
 10
18.1366185897
 20
34.9923878205
 10
18.1899038462
 20
34.9883814103
 10
18.2367788462
 20
34.9831730769
 10
18.2764423077
 20
34.9771634615
 10
18.3092948718
 20
34.9699519231
 10
18.3092948718
 20
34.9699519231
 10
18.3505608974
 20
34.9579326923
 10
18.3898237179
 20
34.9431089744
 10
18.4270833333
 20
34.9254807692
 10
18.4627403846
 20
34.9050480769
 10
18.4959935897
 20
34.8818108974
 10
18.5276442308
 20
34.8557692308
 10
18.5576923077
 20
34.8269230769
 10
18.5853365385
 20
34.7952724359
 10
18.6105769231
 20
34.7612179487
 10
18.6322115385
 20
34.7251602564
 10
18.6506410256
 20
34.6866987179
 10
18.6654647436
 20
34.6466346154
 10
18.6770833333
 20
34.6037660256
 10
18.6854967949
 20
34.5592948718
 10
18.6907051282
 20
34.5124198718
 10
18.6923076923
 20
34.4635416667
 10
18.6923076923
 20
34.4635416667
 10
18.6907051282
 20
34.4142628205
 10
18.6854967949
 20
34.3673878205
 10
18.6774839744
 20
34.3225160256
 10
18.6658653846
 20
34.2800480769
 10
18.6506410256
 20
34.2395833333
 10
18.6326121795
 20
34.2015224359
 10
18.6109775641
 20
34.1654647436
 10
18.5861378205
 20
34.1318108974
 10
18.5584935897
 20
34.1005608974
 10
18.5280448718
 20
34.0717147436
 10
18.4951923077
 20
34.0456730769
 10
18.4599358974
 20
34.0224358974
 10
18.421875
 20
34.0020032051
 10
18.3814102564
 20
33.983974359
 10
18.3385416667
 20
33.96875
 10
18.2932692308
 20
33.9559294872
 10
18.2932692308
 20
33.9559294872
 10
18.2556089744
 20
33.9483173077
 10
18.2103365385
 20
33.9415064103
 10
18.1578525641
 20
33.9358974359
 10
18.0977564103
 20
33.9314903846
 10
18.0304487179
 20
33.9278846154
 10
17.9559294872
 20
33.9250801282
 10
17.8737980769
 20
33.9234775641
 10
17.7840544872
 20
33.9230769231
 10
17.7840544872
 20
33.9230769231
 10
17.641025641
 20
33.9230769231
 10
17.641025641
 20
33.9230769231
 10
17.641025641
 20
33.0
 10
17.641025641
 20
33.0
 10
17.4615384615
 20
33.0
 10
17.4615384615
 20
33.0
 10
17.4615384615
 20
35.0
  0
LWPOLYLINE
  5
93
330
1F
100
AcDbEntity
  8
0
  6
Continuous
 62
     7
100
AcDbPolyline
 90
       40
 70
   128
 43
0.0
 10
17.641025641
 20
34.7948670387
 10
17.641025641
 20
34.1282051282
 10
17.641025641
 20
34.1282051282
 10
17.9911858974
 20
34.1237980769
 10
17.9911858974
 20
34.1237980769
 10
18.0424679487
 20
34.1241987179
 10
18.0901442308
 20
34.1262019231
 10
18.1346153846
 20
34.1290064103
 10
18.1750801282
 20
34.1330128205
 10
18.2123397436
 20
34.1382211538
 10
18.2455929487
 20
34.1442307692
 10
18.2756410256
 20
34.1518429487
 10
18.3020833333
 20
34.1602564103
 10
18.3485576923
 20
34.1814903846
 10
18.3898237179
 20
34.2083333333
 10
18.4258814103
 20
34.2411858974
 10
18.4567307692
 20
34.2792467949
 10
18.4811698718
 20
34.3217147436
 10
18.4987980769
 20
34.3661858974
 10
18.5092147436
 20
34.4134615385
 10
18.5128205128
 20
34.4627403846
 10
18.5128205128
 20
34.4627403846
 10
18.5092147436
 20
34.5108173077
 10
18.4987980769
 20
34.5572916667
 10
18.4811698718
 20
34.6013621795
 10
18.4567307692
 20
34.6434294872
 10
18.4262820513
 20
34.6814903846
 10
18.3914262821
 20
34.7135416667
 10
18.3517628205
 20
34.7399839744
 10
18.3080929487
 20
34.7600160256
 10
18.2832532051
 20
34.7680288462
 10
18.2548076923
 20
34.7752403846
 10
18.2223557692
 20
34.78125
 10
18.1866987179
 20
34.7860576923
 10
18.1470352564
 20
34.7900641026
 10
18.1041666667
 20
34.7928685897
 10
18.0572916667
 20
34.7944711538
 10
18.0068108974
 20
34.7948717949
 10
18.0068108974
 20
34.7948717949
 10
17.641025641
 20
34.7948717949
  0
LWPOLYLINE
  5
94
330
1F
100
AcDbEntity
  8
0
  6
Continuous
 62
     7
100
AcDbPolyline
 90
       36
 70
   128
 43
0.0
 10
19.1145833333
 20
35.0769162178
 10
19.1478365385
 20
35.0741185897
 10
19.1786858974
 20
35.0657051282
 10
19.2071314103
 20
35.0512820513
 10
19.2331730769
 20
35.031650641
 10
19.2544070513
 20
35.0080128205
 10
19.2696314103
 20
34.9815705128
 10
19.2788461538
 20
34.953125
 10
19.2820512821
 20
34.922275641
 10
19.2820512821
 20
34.922275641
 10
19.2788461538
 20
34.8922275641
 10
19.2696314103
 20
34.8641826923
 10
19.2544070513
 20
34.8381410256
 10
19.2331730769
 20
34.8145032051
 10
19.2071314103
 20
34.7948717949
 10
19.1786858974
 20
34.7804487179
 10
19.1478365385
 20
34.7720352564
 10
19.1145833333
 20
34.7692307692
 10
19.1145833333
 20
34.7692307692
 10
19.0817307692
 20
34.7720352564
 10
19.0516826923
 20
34.7804487179
 10
19.0236378205
 20
34.7948717949
 10
18.9979967949
 20
34.8145032051
 10
18.9763621795
 20
34.8381410256
 10
18.9611378205
 20
34.8641826923
 10
18.9519230769
 20
34.8922275641
 10
18.9487179487
 20
34.922275641
 10
18.9487179487
 20
34.922275641
 10
18.9519230769
 20
34.953125
 10
18.9611378205
 20
34.9815705128
 10
18.9763621795
 20
35.0080128205
 10
18.9979967949
 20
35.031650641
 10
19.0236378205
 20
35.0512820513
 10
19.0516826923
 20
35.0657051282
 10
19.0817307692
 20
35.0741185897
 10
19.1145833333
 20
35.0769230769
  0
LWPOLYLINE
  5
95
330
1F
100
AcDbEntity
  8
0
  6
Continuous
 62
     7
100
AcDbPolyline
 90
        8
 70
   128
 43
0.0
 10
19.0256410256
 20
34.4615280628
 10
19.2051282051
 20
34.4615384615
 10
19.2051282051
 20
34.4615384615
 10
19.2051282051
 20
33.0
 10
19.2051282051
 20
33.0
 10
19.0256410256
 20
33.0
 10
19.0256410256
 20
33.0
 10
19.0256410256
 20
34.4615384615
  0
LWPOLYLINE
  5
96
330
1F
100
AcDbEntity
  8
0
  6
Continuous
 62
     7
100
AcDbPolyline
 90
       16
 70
   128
 43
0.0
 10
20.3333333333
 20
34.7948670387
 10
20.3333333333
 20
35.0
 10
20.3333333333
 20
35.0
 10
21.3846153846
 20
35.0
 10
21.3846153846
 20
35.0
 10
20.5456730769
 20
33.2051282051
 10
20.5456730769
 20
33.2051282051
 10
21.358974359
 20
33.2051282051
 10
21.358974359
 20
33.2051282051
 10
21.358974359
 20
33.0
 10
21.358974359
 20
33.0
 10
20.2564102564
 20
33.0
 10
20.2564102564
 20
33.0
 10
21.0953525641
 20
34.7948717949
 10
21.0953525641
 20
34.7948717949
 10
20.3333333333
 20
34.7948717949
  0
LWPOLYLINE
  5
97
330
1F
100
AcDbEntity
  8
0
  6
Continuous
 62
     7
100
AcDbPolyline
 90
      100
 70
   128
 43
0.0
 10
22.9174679487
 20
33.4615111351
 10
23.0769230769
 20
33.3778044872
 10
23.0769230769
 20
33.3778044872
 10
23.0376602564
 20
33.3108974359
 10
22.9955929487
 20
33.2508012821
 10
22.9507211538
 20
33.1971153846
 10
22.9030448718
 20
33.1506410256
 10
22.8521634615
 20
33.1101762821
 10
22.7980769231
 20
33.0749198718
 10
22.7407852564
 20
33.0444711538
 10
22.6806891026
 20
33.0192307692
 10
22.6169871795
 20
32.999599359
 10
22.5492788462
 20
32.9855769231
 10
22.4775641026
 20
32.9771634615
 10
22.4018429487
 20
32.9743589744
 10
22.4018429487
 20
32.9743589744
 10
22.3177083333
 20
32.9779647436
 10
22.2383814103
 20
32.9887820513
 10
22.1638621795
 20
33.0068108974
 10
22.09375
 20
33.0320512821
 10
22.0288461538
 20
33.0645032051
 10
21.968349359
 20
33.1041666667
 10
21.9122596154
 20
33.1510416667
 10
21.8613782051
 20
33.2051282051
 10
21.8157051282
 20
33.2636217949
 10
21.7760416667
 20
33.3241185897
 10
21.7427884615
 20
33.3866185897
 10
21.7151442308
 20
33.4511217949
 10
21.6939102564
 20
33.5172275641
 10
21.6786858974
 20
33.5849358974
 10
21.6698717949
 20
33.6550480769
 10
21.6666666667
 20
33.7267628205
 10
21.6666666667
 20
33.7267628205
 10
21.6694711538
 20
33.7940705128
 10
21.6770833333
 20
33.859775641
 10
21.6903044872
 20
33.9234775641
 10
21.7087339744
 20
33.9855769231
 10
21.7323717949
 20
34.0456730769
 10
21.7612179487
 20
34.1037660256
 10
21.7956730769
 20
34.1602564103
 10
21.8349358974
 20
34.2147435897
 10
21.8349358974
 20
34.2147435897
 10
21.890625
 20
34.2784455128
 10
21.9507211538
 20
34.3341346154
 10
22.015224359
 20
34.3806089744
 10
22.0845352564
 20
34.4190705128
 10
22.1582532051
 20
34.4487179487
 10
22.2363782051
 20
34.4703525641
 10
22.3189102564
 20
34.4827724359
 10
22.40625
 20
34.4871794872
 10
22.40625
 20
34.4871794872
 10
22.4959935897
 20
34.4827724359
 10
22.5813301282
 20
34.469150641
 10
22.6618589744
 20
34.4467147436
 10
22.7375801282
 20
34.4154647436
 10
22.8088942308
 20
34.375
 10
22.875400641
 20
34.3253205128
 10
22.9375
 20
34.2668269231
 10
22.9947916667
 20
34.1995192308
 10
22.9947916667
 20
34.1995192308
 10
23.031650641
 20
34.1470352564
 10
23.0633012821
 20
34.0917467949
 10
23.0905448718
 20
34.0328525641
 10
23.1125801282
 20
33.9711538462
 10
23.1302083333
 20
33.90625
 10
23.1430288462
 20
33.8381410256
 10
23.1506410256
 20
33.7668269231
 10
23.1538461538
 20
33.6923076923
 10
23.1538461538
 20
33.6923076923
 10
21.8461538462
 20
33.6923076923
 10
21.8461538462
 20
33.6923076923
 10
21.8497596154
 20
33.6346153846
 10
21.8577724359
 20
33.5793269231
 10
21.8705929487
 20
33.5268429487
 10
21.8882211538
 20
33.4771634615
 10
21.9102564103
 20
33.4302884615
 10
21.9366987179
 20
33.3858173077
 10
21.9679487179
 20
33.344150641
 10
22.0036057692
 20
33.3048878205
 10
22.0428685897
 20
33.2696314103
 10
22.0841346154
 20
33.2387820513
 10
22.1278044872
 20
33.2127403846
 10
22.1734775641
 20
33.1915064103
 10
22.2215544872
 20
33.1750801282
 10
22.2720352564
 20
33.1634615385
 10
22.3245192308
 20
33.15625
 10
22.3794070513
 20
33.1538461538
 10
22.3794070513
 20
33.1538461538
 10
22.4330929487
 20
33.155849359
 10
22.4855769231
 20
33.1622596154
 10
22.5380608974
 20
33.1730769231
 10
22.5893429487
 20
33.187900641
 10
22.6382211538
 20
33.2063301282
 10
22.6834935897
 20
33.2279647436
 10
22.7251602564
 20
33.2520032051
 10
22.7628205128
 20
33.2788461538
 10
22.7992788462
 20
33.3112980769
 10
22.8369391026
 20
33.3529647436
 10
22.8766025641
 20
33.4026442308
 10
22.9174679487
 20
33.4615384615
  0
LWPOLYLINE
  5
98
330
1F
100
AcDbEntity
  8
0
  6
Continuous
 62
     7
100
AcDbPolyline
 90
       33
 70
   128
 43
0.0
 10
22.9743589744
 20
33.8717699051
 10
22.953125
 20
33.9427083333
 10
22.9270833333
 20
34.0060096154
 10
22.8974358974
 20
34.0616987179
 10
22.8629807692
 20
34.109775641
 10
22.8233173077
 20
34.1522435897
 10
22.7776442308
 20
34.1903044872
 10
22.7263621795
 20
34.2239583333
 10
22.6690705128
 20
34.2532051282
 10
22.6081730769
 20
34.2772435897
 10
22.5452724359
 20
34.2940705128
 10
22.4811698718
 20
34.3044871795
 10
22.4154647436
 20
34.3076923077
 10
22.4154647436
 20
34.3076923077
 10
22.3617788462
 20
34.3056891026
 10
22.3096955128
 20
34.2992788462
 10
22.2596153846
 20
34.2884615385
 10
22.2115384615
 20
34.2736378205
 10
22.1654647436
 20
34.2540064103
 10
22.1213942308
 20
34.2307692308
 10
22.0793269231
 20
34.202724359
 10
22.0388621795
 20
34.1706730769
 10
22.0388621795
 20
34.1706730769
 10
22.0108173077
 20
34.1442307692
 10
21.984775641
 20
34.1145833333
 10
21.9603365385
 20
34.0821314103
 10
21.937900641
 20
34.046474359
 10
21.9170673077
 20
34.0072115385
 10
21.8978365385
 20
33.9651442308
 10
21.8806089744
 20
33.9202724359
 10
21.8649839744
 20
33.8717948718
 10
21.8649839744
 20
33.8717948718
 10
22.9743589744
 20
33.8717948718
  0
LWPOLYLINE
  5
99
330
1F
100
AcDbEntity
  8
0
  6
Continuous
 62
     7
100
AcDbPolyline
 90
       53
 70
   128
 43
0.0
 10
23.4615384615
 20
34.4615280628
 10
23.641025641
 20
34.4615384615
 10
23.641025641
 20
34.4615384615
 10
23.641025641
 20
34.2463942308
 10
23.641025641
 20
34.2463942308
 10
23.6818910256
 20
34.3056891026
 10
23.7239583333
 20
34.3561698718
 10
23.7668269231
 20
34.3974358974
 10
23.8112980769
 20
34.4302884615
 10
23.8565705128
 20
34.4551282051
 10
23.9026442308
 20
34.4731570513
 10
23.9495192308
 20
34.4835737179
 10
23.9975961538
 20
34.4871794872
 10
23.9975961538
 20
34.4871794872
 10
24.0348557692
 20
34.483974359
 10
24.0729166667
 20
34.4747596154
 10
24.1129807692
 20
34.4591346154
 10
24.1538461538
 20
34.437099359
 10
24.1538461538
 20
34.437099359
 10
24.0552884615
 20
34.281650641
 10
24.0552884615
 20
34.281650641
 10
24.0292467949
 20
34.2928685897
 10
24.0052083333
 20
34.3012820513
 10
23.9831730769
 20
34.3060897436
 10
23.9635416667
 20
34.3076923077
 10
23.9635416667
 20
34.3076923077
 10
23.9202724359
 20
34.3028846154
 10
23.8782051282
 20
34.2884615385
 10
23.8365384615
 20
34.2644230769
 10
23.7960737179
 20
34.2307692308
 10
23.7764423077
 20
34.2103365385
 10
23.7580128205
 20
34.187099359
 10
23.7411858974
 20
34.1614583333
 10
23.7251602564
 20
34.1330128205
 10
23.7103365385
 20
34.1017628205
 10
23.6967147436
 20
34.0681089744
 10
23.6842948718
 20
34.031650641
 10
23.6730769231
 20
33.9927884615
 10
23.6730769231
 20
33.9927884615
 10
23.6654647436
 20
33.9579326923
 10
23.6590544872
 20
33.9150641026
 10
23.6534455128
 20
33.8641826923
 10
23.6490384615
 20
33.8052884615
 10
23.6454326923
 20
33.7387820513
 10
23.6430288462
 20
33.6642628205
 10
23.6414262821
 20
33.5817307692
 10
23.641025641
 20
33.4911858974
 10
23.641025641
 20
33.4911858974
 10
23.641025641
 20
33.0
 10
23.641025641
 20
33.0
 10
23.4615384615
 20
33.0
 10
23.4615384615
 20
33.0
 10
23.4615384615
 20
34.4615384615
  0
LWPOLYLINE
  5
9A
330
1F
100
AcDbEntity
  8
0
  6
Continuous
 62
     7
100
AcDbPolyline
 90
       70
 70
   128
 43
0.0
 10
25.0649038462
 20
34.4871580601
 10
25.1470352564
 20
34.4835737179
 10
25.2251602564
 20
34.4719551282
 10
25.3000801282
 20
34.453125
 10
25.3709935897
 20
34.4270833333
 10
25.4387019231
 20
34.3930288462
 10
25.5028044872
 20
34.3517628205
 10
25.5633012821
 20
34.3028846154
 10
25.6201923077
 20
34.2463942308
 10
25.6201923077
 20
34.2463942308
 10
25.6670673077
 20
34.1903044872
 10
25.7079326923
 20
34.1314102564
 10
25.7423878205
 20
34.0705128205
 10
25.7704326923
 20
34.0068108974
 10
25.7924679487
 20
33.9403044872
 10
25.8080929487
 20
33.8717948718
 10
25.8173076923
 20
33.8004807692
 10
25.8205128205
 20
33.7267628205
 10
25.8205128205
 20
33.7267628205
 10
25.8173076923
 20
33.6526442308
 10
25.8072916667
 20
33.5809294872
 10
25.7908653846
 20
33.5116185897
 10
25.7676282051
 20
33.4443108974
 10
25.7379807692
 20
33.3798076923
 10
25.7015224359
 20
33.3173076923
 10
25.6586538462
 20
33.2576121795
 10
25.608974359
 20
33.1999198718
 10
25.5540865385
 20
33.1470352564
 10
25.4955929487
 20
33.1013621795
 10
25.4334935897
 20
33.0625
 10
25.3669871795
 20
33.030849359
 10
25.297275641
 20
33.0060096154
 10
25.2235576923
 20
32.9883814103
 10
25.1462339744
 20
32.9779647436
 10
25.0649038462
 20
32.9743589744
 10
25.0649038462
 20
32.9743589744
 10
24.9831730769
 20
32.9779647436
 10
24.9054487179
 20
32.9883814103
 10
24.8317307692
 20
33.0060096154
 10
24.7612179487
 20
33.030849359
 10
24.6951121795
 20
33.0625
 10
24.6326121795
 20
33.1013621795
 10
24.5741185897
 20
33.1470352564
 10
24.5192307692
 20
33.1999198718
 10
24.4695512821
 20
33.2576121795
 10
24.4266826923
 20
33.3173076923
 10
24.390224359
 20
33.3798076923
 10
24.3605769231
 20
33.4443108974
 10
24.3373397436
 20
33.5116185897
 10
24.3209134615
 20
33.5809294872
 10
24.3108974359
 20
33.6526442308
 10
24.3076923077
 20
33.7267628205
 10
24.3076923077
 20
33.7267628205
 10
24.3108974359
 20
33.8000801282
 10
24.3201121795
 20
33.8713942308
 10
24.3357371795
 20
33.9399038462
 10
24.3577724359
 20
34.0060096154
 10
24.3858173077
 20
34.0693108974
 10
24.4202724359
 20
34.1306089744
 10
24.4611378205
 20
34.1891025641
 10
24.5080128205
 20
34.2451923077
 10
24.5080128205
 20
34.2451923077
 10
24.5649038462
 20
34.3020833333
 10
24.625400641
 20
34.3509615385
 10
24.6895032051
 20
34.3926282051
 10
24.7572115385
 20
34.4266826923
 10
24.8289262821
 20
34.453125
 10
24.9038461538
 20
34.4719551282
 10
24.9827724359
 20
34.4835737179
 10
25.0649038462
 20
34.4871794872
  0
LWPOLYLINE
  5
9B
330
1F
100
AcDbEntity
  8
0
  6
Continuous
 62
     7
100
AcDbPolyline
 90
       60
 70
   128
 43
0.0
 10
25.0641025641
 20
34.3076884747
 10
25.0060096154
 20
34.3048878205
 10
24.9499198718
 20
34.296875
 10
24.8958333333
 20
34.2836538462
 10
24.844150641
 20
34.265224359
 10
24.7940705128
 20
34.2411858974
 10
24.7463942308
 20
34.2119391026
 10
24.7011217949
 20
34.1774839744
 10
24.6574519231
 20
34.1374198718
 10
24.6173878205
 20
34.09375
 10
24.5829326923
 20
34.0476762821
 10
24.5536858974
 20
33.999599359
 10
24.5296474359
 20
33.9495192308
 10
24.5112179487
 20
33.8966346154
 10
24.4979967949
 20
33.8417467949
 10
24.4899839744
 20
33.7848557692
 10
24.4871794872
 20
33.7255608974
 10
24.4871794872
 20
33.7255608974
 10
24.4919871795
 20
33.6490384615
 10
24.5064102564
 20
33.5749198718
 10
24.530849359
 20
33.5036057692
 10
24.5649038462
 20
33.4350961538
 10
24.6069711538
 20
33.3717948718
 10
24.655849359
 20
33.3157051282
 10
24.7119391026
 20
33.2676282051
 10
24.7744391026
 20
33.2271634615
 10
24.8421474359
 20
33.1951121795
 10
24.9126602564
 20
33.172275641
 10
24.9867788462
 20
33.1582532051
 10
25.0641025641
 20
33.1538461538
 10
25.0641025641
 20
33.1538461538
 10
25.1414262821
 20
33.1582532051
 10
25.2155448718
 20
33.172275641
 10
25.2864583333
 20
33.1951121795
 10
25.3541666667
 20
33.2271634615
 10
25.4166666667
 20
33.2676282051
 10
25.4723557692
 20
33.3157051282
 10
25.5216346154
 20
33.3717948718
 10
25.5637019231
 20
33.4350961538
 10
25.5973557692
 20
33.5036057692
 10
25.6217948718
 20
33.5749198718
 10
25.6362179487
 20
33.6490384615
 10
25.641025641
 20
33.7255608974
 10
25.641025641
 20
33.7255608974
 10
25.6382211538
 20
33.7848557692
 10
25.6302083333
 20
33.8417467949
 10
25.6169871795
 20
33.8966346154
 10
25.5981570513
 20
33.9495192308
 10
25.5745192308
 20
33.999599359
 10
25.5448717949
 20
34.0476762821
 10
25.5104166667
 20
34.09375
 10
25.4703525641
 20
34.1374198718
 10
25.4266826923
 20
34.1774839744
 10
25.3810096154
 20
34.2119391026
 10
25.3333333333
 20
34.2411858974
 10
25.2832532051
 20
34.265224359
 10
25.2315705128
 20
34.2836538462
 10
25.1778846154
 20
34.296875
 10
25.1217948718
 20
34.3048878205
 10
25.0641025641
 20
34.3076923077
  0
LWPOLYLINE
  5
9C
330
1F
100
AcDbEntity
  8
0
  6
Continuous
 62
     7
100
AcDbPolyline
 90
       26
 70
   128
 43
0.0
 10
26.8717948718
 20
34.9999964237
 10
27.0572916667
 20
35.0
 10
27.0572916667
 20
35.0
 10
27.4487179487
 20
33.5332532051
 10
27.4487179487
 20
33.5332532051
 10
28.030849359
 20
35.0
 10
28.030849359
 20
35.0
 10
28.0568910256
 20
35.0
 10
28.0568910256
 20
35.0
 10
28.6282051282
 20
33.5432692308
 10
28.6282051282
 20
33.5432692308
 10
29.0216346154
 20
35.0
 10
29.0216346154
 20
35.0
 10
29.2051282051
 20
35.0
 10
29.2051282051
 20
35.0
 10
28.6658653846
 20
33.0
 10
28.6658653846
 20
33.0
 10
28.640224359
 20
33.0
 10
28.640224359
 20
33.0
 10
28.0384615385
 20
34.5296474359
 10
28.0384615385
 20
34.5296474359
 10
27.4294871795
 20
33.0
 10
27.4294871795
 20
33.0
 10
27.4038461538
 20
33.0
 10
27.4038461538
 20
33.0
 10
26.8717948718
 20
35.0
  0
LWPOLYLINE
  5
9D
330
1F
100
AcDbEntity
  8
0
  6
Continuous
 62
     7
100
AcDbPolyline
 90
       16
 70
   128
 43
0.0
 10
35.0769230769
 20
-17.9999917746
 10
36.0
 20
-20.0
 10
36.0
 20
-20.0
 10
35.8048878205
 20
-20.0
 10
35.8048878205
 20
-20.0
 10
35.5092147436
 20
-19.358974359
 10
35.5092147436
 20
-19.358974359
 10
34.6025641026
 20
-19.358974359
 10
34.6025641026
 20
-19.358974359
 10
34.2984775641
 20
-20.0
 10
34.2984775641
 20
-20.0
 10
34.1025641026
 20
-20.0
 10
34.1025641026
 20
-20.0
 10
35.0512820513
 20
-18.0
 10
35.0512820513
 20
-18.0
 10
35.0769230769
 20
-18.0
  0
LWPOLYLINE
  5
9E
330
1F
100
AcDbEntity
  8
0
  6
Continuous
 62
     7
100
AcDbPolyline
 90
        6
 70
   128
 43
0.0
 10
35.062099359
 20
-18.3898210526
 10
34.6999198718
 20
-19.1538461538
 10
34.6999198718
 20
-19.1538461538
 10
35.4146634615
 20
-19.1538461538
 10
35.4146634615
 20
-19.1538461538
 10
35.062099359
 20
-18.3898237179
  0
LWPOLYLINE
  5
9F
330
1F
100
AcDbEntity
  8
0
  6
Continuous
 62
     7
100
AcDbPolyline
 90
       24
 70
   128
 43
0.0
 10
36.4358974359
 20
-17.9487168789
 10
36.6153846154
 20
-17.9487179487
 10
36.6153846154
 20
-17.9487179487
 10
36.6153846154
 20
-18.5384615385
 10
36.6153846154
 20
-18.5384615385
 10
36.8717948718
 20
-18.5384615385
 10
36.8717948718
 20
-18.5384615385
 10
36.8717948718
 20
-18.7179487179
 10
36.8717948718
 20
-18.7179487179
 10
36.6153846154
 20
-18.7179487179
 10
36.6153846154
 20
-18.7179487179
 10
36.6153846154
 20
-20.0
 10
36.6153846154
 20
-20.0
 10
36.4358974359
 20
-20.0
 10
36.4358974359
 20
-20.0
 10
36.4358974359
 20
-18.7179487179
 10
36.4358974359
 20
-18.7179487179
 10
36.1794871795
 20
-18.7179487179
 10
36.1794871795
 20
-18.7179487179
 10
36.1794871795
 20
-18.5384615385
 10
36.1794871795
 20
-18.5384615385
 10
36.4358974359
 20
-18.5384615385
 10
36.4358974359
 20
-18.5384615385
 10
36.4358974359
 20
-17.9487179487
  0
LWPOLYLINE
  5
A0
330
1F
100
AcDbEntity
  8
0
  6
Continuous
 62
     7
100
AcDbPolyline
 90
       86
 70
   128
 43
0.0
 10
37.2051282051
 20
-17.9487168789
 10
37.3846153846
 20
-17.9487179487
 10
37.3846153846
 20
-17.9487179487
 10
37.3846153846
 20
-18.8145032051
 10
37.3846153846
 20
-18.8145032051
 10
37.4439102564
 20
-18.7435897436
 10
37.5060096154
 20
-18.6822916667
 10
37.5713141026
 20
-18.6302083333
 10
37.6394230769
 20
-18.5881410256
 10
37.7103365385
 20
-18.5552884615
 10
37.7840544872
 20
-18.531650641
 10
37.8609775641
 20
-18.5176282051
 10
37.9407051282
 20
-18.5128205128
 10
37.9407051282
 20
-18.5128205128
 10
38.0216346154
 20
-18.5180288462
 10
38.0977564103
 20
-18.5332532051
 10
38.1690705128
 20
-18.5592948718
 10
38.2359775641
 20
-18.5953525641
 10
38.2960737179
 20
-18.640224359
 10
38.3477564103
 20
-18.6919070513
 10
38.391025641
 20
-18.7512019231
 10
38.4258814103
 20
-18.8173076923
 10
38.4403044872
 20
-18.8545673077
 10
38.452724359
 20
-18.8970352564
 10
38.4631410256
 20
-18.9439102564
 10
38.4719551282
 20
-18.9959935897
 10
38.4783653846
 20
-19.0532852564
 10
38.4831730769
 20
-19.1149839744
 10
38.4863782051
 20
-19.1818910256
 10
38.4871794872
 20
-19.2536057692
 10
38.4871794872
 20
-19.2536057692
 10
38.4871794872
 20
-20.0
 10
38.4871794872
 20
-20.0
 10
38.3076923077
 20
-20.0
 10
38.3076923077
 20
-20.0
 10
38.3076923077
 20
-19.3125
 10
38.3076923077
 20
-19.3125
 10
38.3072916667
 20
-19.2528044872
 10
38.3064903846
 20
-19.1983173077
 10
38.3048878205
 20
-19.1490384615
 10
38.3024839744
 20
-19.1045673077
 10
38.2996794872
 20
-19.0657051282
 10
38.2960737179
 20
-19.0320512821
 10
38.2916666667
 20
-19.0032051282
 10
38.2868589744
 20
-18.9799679487
 10
38.2868589744
 20
-18.9799679487
 10
38.265224359
 20
-18.9126602564
 10
38.2363782051
 20
-18.8541666667
 10
38.2003205128
 20
-18.8048878205
 10
38.156650641
 20
-18.7644230769
 10
38.1057692308
 20
-18.7327724359
 10
38.047275641
 20
-18.7103365385
 10
37.9819711538
 20
-18.6967147436
 10
37.9090544872
 20
-18.6923076923
 10
37.9090544872
 20
-18.6923076923
 10
37.8657852564
 20
-18.6939102564
 10
37.8237179487
 20
-18.6991185897
 10
37.7824519231
 20
-18.7079326923
 10
37.7427884615
 20
-18.7199519231
 10
37.7039262821
 20
-18.7359775641
 10
37.6666666667
 20
-18.7548076923
 10
37.6302083333
 20
-18.7776442308
 10
37.5949519231
 20
-18.8036858974
 10
37.5616987179
 20
-18.8325320513
 10
37.531650641
 20
-18.8625801282
 10
37.5044070513
 20
-18.8946314103
 10
37.4799679487
 20
-18.9282852564
 10
37.4587339744
 20
-18.9635416667
 10
37.4403044872
 20
-19.000400641
 10
37.4246794872
 20
-19.0392628205
 10
37.4122596154
 20
-19.0793269231
 10
37.4122596154
 20
-19.0793269231
 10
37.405849359
 20
-19.1085737179
 10
37.4002403846
 20
-19.1434294872
 10
37.3954326923
 20
-19.1838942308
 10
37.3914262821
 20
-19.2303685897
 10
37.3886217949
 20
-19.2820512821
 10
37.3862179487
 20
-19.3397435897
 10
37.3850160256
 20
-19.4026442308
 10
37.3846153846
 20
-19.4715544872
 10
37.3846153846
 20
-19.4715544872
 10
37.3846153846
 20
-20.0
 10
37.3846153846
 20
-20.0
 10
37.2051282051
 20
-20.0
 10
37.2051282051
 20
-20.0
 10
37.2051282051
 20
-17.9487179487
  0
LWPOLYLINE
  5
A1
330
1F
100
AcDbEntity
  8
0
  6
Continuous
 62
     7
100
AcDbPolyline
 90
      100
 70
   128
 43
0.0
 10
40.0969551282
 20
-19.5384472609
 10
40.2564102564
 20
-19.6221955128
 10
40.2564102564
 20
-19.6221955128
 10
40.2171474359
 20
-19.6891025641
 10
40.1750801282
 20
-19.7491987179
 10
40.1302083333
 20
-19.8028846154
 10
40.0825320513
 20
-19.8493589744
 10
40.031650641
 20
-19.8898237179
 10
39.9775641026
 20
-19.9250801282
 10
39.9202724359
 20
-19.9555288462
 10
39.8601762821
 20
-19.9807692308
 10
39.796474359
 20
-20.000400641
 10
39.7287660256
 20
-20.0144230769
 10
39.6570512821
 20
-20.0228365385
 10
39.5813301282
 20
-20.0256410256
 10
39.5813301282
 20
-20.0256410256
 10
39.4971955128
 20
-20.0220352564
 10
39.4178685897
 20
-20.0112179487
 10
39.343349359
 20
-19.9931891026
 10
39.2732371795
 20
-19.9679487179
 10
39.2083333333
 20
-19.9354967949
 10
39.1478365385
 20
-19.8958333333
 10
39.0917467949
 20
-19.8489583333
 10
39.0408653846
 20
-19.7948717949
 10
38.9951923077
 20
-19.7363782051
 10
38.9555288462
 20
-19.6758814103
 10
38.922275641
 20
-19.6133814103
 10
38.8946314103
 20
-19.5488782051
 10
38.8733974359
 20
-19.4827724359
 10
38.8581730769
 20
-19.4150641026
 10
38.8493589744
 20
-19.3449519231
 10
38.8461538462
 20
-19.2732371795
 10
38.8461538462
 20
-19.2732371795
 10
38.8489583333
 20
-19.2059294872
 10
38.8565705128
 20
-19.140224359
 10
38.8697916667
 20
-19.0765224359
 10
38.8882211538
 20
-19.0144230769
 10
38.9118589744
 20
-18.9543269231
 10
38.9407051282
 20
-18.8962339744
 10
38.9751602564
 20
-18.8397435897
 10
39.0144230769
 20
-18.7852564103
 10
39.0144230769
 20
-18.7852564103
 10
39.0701121795
 20
-18.7215544872
 10
39.1302083333
 20
-18.6658653846
 10
39.1947115385
 20
-18.6193910256
 10
39.2640224359
 20
-18.5809294872
 10
39.3377403846
 20
-18.5512820513
 10
39.4158653846
 20
-18.5296474359
 10
39.4983974359
 20
-18.5172275641
 10
39.5857371795
 20
-18.5128205128
 10
39.5857371795
 20
-18.5128205128
 10
39.6754807692
 20
-18.5172275641
 10
39.7608173077
 20
-18.530849359
 10
39.8413461538
 20
-18.5532852564
 10
39.9170673077
 20
-18.5845352564
 10
39.9883814103
 20
-18.625
 10
40.0548878205
 20
-18.6746794872
 10
40.1169871795
 20
-18.7331730769
 10
40.1742788462
 20
-18.8004807692
 10
40.1742788462
 20
-18.8004807692
 10
40.2111378205
 20
-18.8529647436
 10
40.2427884615
 20
-18.9082532051
 10
40.2700320513
 20
-18.9671474359
 10
40.2920673077
 20
-19.0288461538
 10
40.3096955128
 20
-19.09375
 10
40.3225160256
 20
-19.1618589744
 10
40.3301282051
 20
-19.2331730769
 10
40.3333333333
 20
-19.3076923077
 10
40.3333333333
 20
-19.3076923077
 10
39.0256410256
 20
-19.3076923077
 10
39.0256410256
 20
-19.3076923077
 10
39.0292467949
 20
-19.3653846154
 10
39.0372596154
 20
-19.4206730769
 10
39.0500801282
 20
-19.4731570513
 10
39.0677083333
 20
-19.5228365385
 10
39.0897435897
 20
-19.5697115385
 10
39.1161858974
 20
-19.6141826923
 10
39.1474358974
 20
-19.655849359
 10
39.1830929487
 20
-19.6951121795
 10
39.2223557692
 20
-19.7303685897
 10
39.2636217949
 20
-19.7612179487
 10
39.3072916667
 20
-19.7872596154
 10
39.3529647436
 20
-19.8084935897
 10
39.4010416667
 20
-19.8249198718
 10
39.4515224359
 20
-19.8365384615
 10
39.5040064103
 20
-19.84375
 10
39.5588942308
 20
-19.8461538462
 10
39.5588942308
 20
-19.8461538462
 10
39.6125801282
 20
-19.844150641
 10
39.6650641026
 20
-19.8377403846
 10
39.7175480769
 20
-19.8269230769
 10
39.7688301282
 20
-19.812099359
 10
39.8177083333
 20
-19.7936698718
 10
39.8629807692
 20
-19.7720352564
 10
39.9046474359
 20
-19.7479967949
 10
39.9423076923
 20
-19.7211538462
 10
39.9787660256
 20
-19.6887019231
 10
40.0164262821
 20
-19.6470352564
 10
40.0560897436
 20
-19.5973557692
 10
40.0969551282
 20
-19.5384615385
  0
LWPOLYLINE
  5
A2
330
1F
100
AcDbEntity
  8
0
  6
Continuous
 62
     7
100
AcDbPolyline
 90
       33
 70
   128
 43
0.0
 10
40.1538461538
 20
-19.128203392
 10
40.1326121795
 20
-19.0572916667
 10
40.1065705128
 20
-18.9939903846
 10
40.0769230769
 20
-18.9383012821
 10
40.0424679487
 20
-18.890224359
 10
40.0028044872
 20
-18.8477564103
 10
39.9571314103
 20
-18.8096955128
 10
39.905849359
 20
-18.7760416667
 10
39.8485576923
 20
-18.7467948718
 10
39.7876602564
 20
-18.7227564103
 10
39.7247596154
 20
-18.7059294872
 10
39.6606570513
 20
-18.6955128205
 10
39.5949519231
 20
-18.6923076923
 10
39.5949519231
 20
-18.6923076923
 10
39.5412660256
 20
-18.6943108974
 10
39.4891826923
 20
-18.7007211538
 10
39.4391025641
 20
-18.7115384615
 10
39.391025641
 20
-18.7263621795
 10
39.3449519231
 20
-18.7459935897
 10
39.3008814103
 20
-18.7692307692
 10
39.2588141026
 20
-18.797275641
 10
39.218349359
 20
-18.8293269231
 10
39.218349359
 20
-18.8293269231
 10
39.1903044872
 20
-18.8557692308
 10
39.1642628205
 20
-18.8854166667
 10
39.1398237179
 20
-18.9178685897
 10
39.1173878205
 20
-18.953525641
 10
39.0965544872
 20
-18.9927884615
 10
39.0773237179
 20
-19.0348557692
 10
39.0600961538
 20
-19.0797275641
 10
39.0444711538
 20
-19.1282051282
 10
39.0444711538
 20
-19.1282051282
 10
40.1538461538
 20
-19.1282051282
  0
LWPOLYLINE
  5
A3
330
1F
100
AcDbEntity
  8
0
  6
Continuous
 62
     7
100
AcDbPolyline
 90
       53
 70
   128
 43
0.0
 10
40.641025641
 20
-18.5384601355
 10
40.8205128205
 20
-18.5384615385
 10
40.8205128205
 20
-18.5384615385
 10
40.8205128205
 20
-18.7536057692
 10
40.8205128205
 20
-18.7536057692
 10
40.8613782051
 20
-18.6943108974
 10
40.9034455128
 20
-18.6438301282
 10
40.9463141026
 20
-18.6025641026
 10
40.9907852564
 20
-18.5697115385
 10
41.0360576923
 20
-18.5448717949
 10
41.0821314103
 20
-18.5268429487
 10
41.1290064103
 20
-18.5164262821
 10
41.1770833333
 20
-18.5128205128
 10
41.1770833333
 20
-18.5128205128
 10
41.2143429487
 20
-18.516025641
 10
41.2524038462
 20
-18.5252403846
 10
41.2924679487
 20
-18.5408653846
 10
41.3333333333
 20
-18.562900641
 10
41.3333333333
 20
-18.562900641
 10
41.234775641
 20
-18.718349359
 10
41.234775641
 20
-18.718349359
 10
41.2087339744
 20
-18.7071314103
 10
41.1846955128
 20
-18.6987179487
 10
41.1626602564
 20
-18.6939102564
 10
41.1430288462
 20
-18.6923076923
 10
41.1430288462
 20
-18.6923076923
 10
41.0997596154
 20
-18.6971153846
 10
41.0576923077
 20
-18.7115384615
 10
41.016025641
 20
-18.7355769231
 10
40.9755608974
 20
-18.7692307692
 10
40.9559294872
 20
-18.7896634615
 10
40.9375
 20
-18.812900641
 10
40.9206730769
 20
-18.8385416667
 10
40.9046474359
 20
-18.8669871795
 10
40.8898237179
 20
-18.8982371795
 10
40.8762019231
 20
-18.9318910256
 10
40.8637820513
 20
-18.968349359
 10
40.8525641026
 20
-19.0072115385
 10
40.8525641026
 20
-19.0072115385
 10
40.8449519231
 20
-19.0420673077
 10
40.8385416667
 20
-19.0849358974
 10
40.8329326923
 20
-19.1358173077
 10
40.828525641
 20
-19.1947115385
 10
40.8249198718
 20
-19.2612179487
 10
40.8225160256
 20
-19.3357371795
 10
40.8209134615
 20
-19.4182692308
 10
40.8205128205
 20
-19.5088141026
 10
40.8205128205
 20
-19.5088141026
 10
40.8205128205
 20
-20.0
 10
40.8205128205
 20
-20.0
 10
40.641025641
 20
-20.0
 10
40.641025641
 20
-20.0
 10
40.641025641
 20
-18.5384615385
  0
LWPOLYLINE
  5
A4
330
1F
100
AcDbEntity
  8
0
  6
Continuous
 62
     7
100
AcDbPolyline
 90
       70
 70
   128
 43
0.0
 10
42.2443910256
 20
-18.512815237
 10
42.3265224359
 20
-18.5164262821
 10
42.4046474359
 20
-18.5280448718
 10
42.4795673077
 20
-18.546875
 10
42.5504807692
 20
-18.5729166667
 10
42.6181891026
 20
-18.6069711538
 10
42.6822916667
 20
-18.6482371795
 10
42.7427884615
 20
-18.6971153846
 10
42.7996794872
 20
-18.7536057692
 10
42.7996794872
 20
-18.7536057692
 10
42.8465544872
 20
-18.8096955128
 10
42.8874198718
 20
-18.8685897436
 10
42.921875
 20
-18.9294871795
 10
42.9499198718
 20
-18.9931891026
 10
42.9719551282
 20
-19.0596955128
 10
42.9875801282
 20
-19.1282051282
 10
42.9967948718
 20
-19.1995192308
 10
43.0
 20
-19.2732371795
 10
43.0
 20
-19.2732371795
 10
42.9967948718
 20
-19.3473557692
 10
42.9867788462
 20
-19.4190705128
 10
42.9703525641
 20
-19.4883814103
 10
42.9471153846
 20
-19.5556891026
 10
42.9174679487
 20
-19.6201923077
 10
42.8810096154
 20
-19.6826923077
 10
42.8381410256
 20
-19.7423878205
 10
42.7884615385
 20
-19.8000801282
 10
42.7335737179
 20
-19.8529647436
 10
42.6750801282
 20
-19.8986378205
 10
42.6129807692
 20
-19.9375
 10
42.546474359
 20
-19.969150641
 10
42.4767628205
 20
-19.9939903846
 10
42.4030448718
 20
-20.0116185897
 10
42.3257211538
 20
-20.0220352564
 10
42.2443910256
 20
-20.0256410256
 10
42.2443910256
 20
-20.0256410256
 10
42.1626602564
 20
-20.0220352564
 10
42.0849358974
 20
-20.0116185897
 10
42.0112179487
 20
-19.9939903846
 10
41.9407051282
 20
-19.969150641
 10
41.874599359
 20
-19.9375
 10
41.812099359
 20
-19.8986378205
 10
41.7536057692
 20
-19.8529647436
 10
41.6987179487
 20
-19.8000801282
 10
41.6490384615
 20
-19.7423878205
 10
41.6061698718
 20
-19.6826923077
 10
41.5697115385
 20
-19.6201923077
 10
41.5400641026
 20
-19.5556891026
 10
41.5168269231
 20
-19.4883814103
 10
41.500400641
 20
-19.4190705128
 10
41.4903846154
 20
-19.3473557692
 10
41.4871794872
 20
-19.2732371795
 10
41.4871794872
 20
-19.2732371795
 10
41.4903846154
 20
-19.1999198718
 10
41.499599359
 20
-19.1286057692
 10
41.515224359
 20
-19.0600961538
 10
41.5372596154
 20
-18.9939903846
 10
41.5653044872
 20
-18.9306891026
 10
41.5997596154
 20
-18.8693910256
 10
41.640625
 20
-18.8108974359
 10
41.6875
 20
-18.7548076923
 10
41.6875
 20
-18.7548076923
 10
41.7443910256
 20
-18.6979166667
 10
41.8048878205
 20
-18.6490384615
 10
41.8689903846
 20
-18.6073717949
 10
41.9366987179
 20
-18.5733173077
 10
42.0084134615
 20
-18.546875
 10
42.0833333333
 20
-18.5280448718
 10
42.1622596154
 20
-18.5164262821
 10
42.2443910256
 20
-18.5128205128
  0
LWPOLYLINE
  5
A5
330
1F
100
AcDbEntity
  8
0
  6
Continuous
 62
     7
100
AcDbPolyline
 90
       60
 70
   128
 43
0.0
 10
42.2435897436
 20
-18.6922997236
 10
42.1854967949
 20
-18.6951121795
 10
42.1294070513
 20
-18.703125
 10
42.0753205128
 20
-18.7163461538
 10
42.0236378205
 20
-18.734775641
 10
41.9735576923
 20
-18.7588141026
 10
41.9258814103
 20
-18.7880608974
 10
41.8806089744
 20
-18.8225160256
 10
41.8369391026
 20
-18.8625801282
 10
41.796875
 20
-18.90625
 10
41.7624198718
 20
-18.9523237179
 10
41.7331730769
 20
-19.000400641
 10
41.7091346154
 20
-19.0504807692
 10
41.6907051282
 20
-19.1033653846
 10
41.6774839744
 20
-19.1582532051
 10
41.6694711538
 20
-19.2151442308
 10
41.6666666667
 20
-19.2744391026
 10
41.6666666667
 20
-19.2744391026
 10
41.671474359
 20
-19.3509615385
 10
41.6858974359
 20
-19.4250801282
 10
41.7103365385
 20
-19.4963942308
 10
41.7443910256
 20
-19.5649038462
 10
41.7864583333
 20
-19.6282051282
 10
41.8353365385
 20
-19.6842948718
 10
41.8914262821
 20
-19.7323717949
 10
41.9539262821
 20
-19.7728365385
 10
42.0216346154
 20
-19.8048878205
 10
42.0921474359
 20
-19.827724359
 10
42.1662660256
 20
-19.8417467949
 10
42.2435897436
 20
-19.8461538462
 10
42.2435897436
 20
-19.8461538462
 10
42.3209134615
 20
-19.8417467949
 10
42.3950320513
 20
-19.827724359
 10
42.4659455128
 20
-19.8048878205
 10
42.5336538462
 20
-19.7728365385
 10
42.5961538462
 20
-19.7323717949
 10
42.6518429487
 20
-19.6842948718
 10
42.7011217949
 20
-19.6282051282
 10
42.7431891026
 20
-19.5649038462
 10
42.7768429487
 20
-19.4963942308
 10
42.8012820513
 20
-19.4250801282
 10
42.8157051282
 20
-19.3509615385
 10
42.8205128205
 20
-19.2744391026
 10
42.8205128205
 20
-19.2744391026
 10
42.8177083333
 20
-19.2151442308
 10
42.8096955128
 20
-19.1582532051
 10
42.796474359
 20
-19.1033653846
 10
42.7776442308
 20
-19.0504807692
 10
42.7540064103
 20
-19.000400641
 10
42.7243589744
 20
-18.9523237179
 10
42.6899038462
 20
-18.90625
 10
42.6498397436
 20
-18.8625801282
 10
42.6061698718
 20
-18.8225160256
 10
42.5604967949
 20
-18.7880608974
 10
42.5128205128
 20
-18.7588141026
 10
42.4627403846
 20
-18.734775641
 10
42.4110576923
 20
-18.7163461538
 10
42.3573717949
 20
-18.703125
 10
42.3012820513
 20
-18.6951121795
 10
42.2435897436
 20
-18.6923076923
  0
LWPOLYLINE
  5
A6
330
1F
100
AcDbEntity
  8
0
  6
Continuous
 62
     7
100
AcDbPolyline
 90
      148
 70
   128
 43
0.0
 10
44.0512820513
 20
-18.7207460403
 10
43.9294871795
 20
-18.8461538462
 10
43.9294871795
 20
-18.8461538462
 10
43.8974358974
 20
-18.8100961538
 10
43.8653846154
 20
-18.7788461538
 10
43.8333333333
 20
-18.7524038462
 10
43.8016826923
 20
-18.7307692308
 10
43.7704326923
 20
-18.7139423077
 10
43.7391826923
 20
-18.7019230769
 10
43.7079326923
 20
-18.6947115385
 10
43.6770833333
 20
-18.6923076923
 10
43.6770833333
 20
-18.6923076923
 10
43.6394230769
 20
-18.6959134615
 10
43.6045673077
 20
-18.7071314103
 10
43.5725160256
 20
-18.7255608974
 10
43.5432692308
 20
-18.7516025641
 10
43.5188301282
 20
-18.7824519231
 10
43.5012019231
 20
-18.8153044872
 10
43.4907852564
 20
-18.8509615385
 10
43.4871794872
 20
-18.8890224359
 10
43.4871794872
 20
-18.8890224359
 10
43.4903846154
 20
-18.9234775641
 10
43.499599359
 20
-18.9567307692
 10
43.515224359
 20
-18.9895833333
 10
43.5368589744
 20
-19.0216346154
 10
43.5368589744
 20
-19.0216346154
 10
43.5508814103
 20
-19.0380608974
 10
43.5685096154
 20
-19.0548878205
 10
43.5893429487
 20
-19.0729166667
 10
43.6137820513
 20
-19.0913461538
 10
43.6418269231
 20
-19.1105769231
 10
43.6730769231
 20
-19.1302083333
 10
43.7075320513
 20
-19.1510416667
 10
43.7455929487
 20
-19.172275641
 10
43.7455929487
 20
-19.172275641
 10
43.7920673077
 20
-19.1987179487
 10
43.8345352564
 20
-19.2247596154
 10
43.8733974359
 20
-19.2508012821
 10
43.9082532051
 20
-19.2764423077
 10
43.9391025641
 20
-19.3020833333
 10
43.9663461538
 20
-19.3273237179
 10
43.9895833333
 20
-19.3525641026
 10
44.0088141026
 20
-19.3774038462
 10
44.0088141026
 20
-19.3774038462
 10
44.0384615385
 20
-19.4290865385
 10
44.0596955128
 20
-19.483974359
 10
44.0725160256
 20
-19.5420673077
 10
44.0769230769
 20
-19.6033653846
 10
44.0769230769
 20
-19.6033653846
 10
44.0749198718
 20
-19.6466346154
 10
44.0693108974
 20
-19.6883012821
 10
44.0596955128
 20
-19.7283653846
 10
44.046474359
 20
-19.7664262821
 10
44.0292467949
 20
-19.8032852564
 10
44.0080128205
 20
-19.8381410256
 10
43.9831730769
 20
-19.8713942308
 10
43.9547275641
 20
-19.9030448718
 10
43.9230769231
 20
-19.9318910256
 10
43.8894230769
 20
-19.9567307692
 10
43.8541666667
 20
-19.9775641026
 10
43.8169070513
 20
-19.9947916667
 10
43.7776442308
 20
-20.0084134615
 10
43.7363782051
 20
-20.0180288462
 10
43.6935096154
 20
-20.0236378205
 10
43.6486378205
 20
-20.0256410256
 10
43.6486378205
 20
-20.0256410256
 10
43.5881410256
 20
-20.0224358974
 10
43.5292467949
 20
-20.0124198718
 10
43.4715544872
 20
-19.9959935897
 10
43.4150641026
 20
-19.9731570513
 10
43.3617788462
 20
-19.9443108974
 10
43.3133012821
 20
-19.9102564103
 10
43.2696314103
 20
-19.8713942308
 10
43.2307692308
 20
-19.827724359
 10
43.2307692308
 20
-19.827724359
 10
43.3497596154
 20
-19.6923076923
 10
43.3497596154
 20
-19.6923076923
 10
43.3842147436
 20
-19.7283653846
 10
43.4190705128
 20
-19.7596153846
 10
43.4547275641
 20
-19.7860576923
 10
43.4903846154
 20
-19.8076923077
 10
43.5268429487
 20
-19.8245192308
 10
43.5641025641
 20
-19.8365384615
 10
43.6013621795
 20
-19.84375
 10
43.6394230769
 20
-19.8461538462
 10
43.6394230769
 20
-19.8461538462
 10
43.6911057692
 20
-19.8417467949
 10
43.7387820513
 20
-19.828525641
 10
43.7824519231
 20
-19.8068910256
 10
43.8221153846
 20
-19.7760416667
 10
43.8549679487
 20
-19.7395833333
 10
43.8786057692
 20
-19.6995192308
 10
43.8926282051
 20
-19.6570512821
 10
43.8974358974
 20
-19.6109775641
 10
43.8974358974
 20
-19.6109775641
 10
43.8942307692
 20
-19.5729166667
 10
43.8850160256
 20
-19.5368589744
 10
43.8697916667
 20
-19.5032051282
 10
43.8481570513
 20
-19.4715544872
 10
43.8481570513
 20
-19.4715544872
 10
43.8341346154
 20
-19.4563301282
 10
43.8161057692
 20
-19.4399038462
 10
43.7940705128
 20
-19.422275641
 10
43.7684294872
 20
-19.4038461538
 10
43.7387820513
 20
-19.3846153846
 10
43.7051282051
 20
-19.3645833333
 10
43.6678685897
 20
-19.343349359
 10
43.6266025641
 20
-19.3209134615
 10
43.6266025641
 20
-19.3209134615
 10
43.5821314103
 20
-19.2956730769
 10
43.5412660256
 20
-19.2704326923
 10
43.5044070513
 20
-19.2451923077
 10
43.4707532051
 20
-19.2203525641
 10
43.4411057692
 20
-19.1955128205
 10
43.4154647436
 20
-19.1706730769
 10
43.3930288462
 20
-19.1458333333
 10
43.374599359
 20
-19.1213942308
 10
43.374599359
 20
-19.1213942308
 10
43.3453525641
 20
-19.0705128205
 10
43.3245192308
 20
-19.015625
 10
43.3116987179
 20
-18.9579326923
 10
43.3076923077
 20
-18.8962339744
 10
43.3076923077
 20
-18.8962339744
 10
43.3092948718
 20
-18.8557692308
 10
43.3141025641
 20
-18.8173076923
 10
43.3225160256
 20
-18.7804487179
 10
43.3337339744
 20
-18.7451923077
 10
43.3485576923
 20
-18.7119391026
 10
43.3665865385
 20
-18.6802884615
 10
43.3882211538
 20
-18.6502403846
 10
43.4126602564
 20
-18.6221955128
 10
43.4395032051
 20
-18.5965544872
 10
43.468349359
 20
-18.5745192308
 10
43.4987980769
 20
-18.5556891026
 10
43.530849359
 20
-18.5400641026
 10
43.5649038462
 20
-18.5280448718
 10
43.6005608974
 20
-18.5196314103
 10
43.6378205128
 20
-18.5144230769
 10
43.6770833333
 20
-18.5128205128
 10
43.6770833333
 20
-18.5128205128
 10
43.7235576923
 20
-18.516025641
 10
43.7700320513
 20
-18.5256410256
 10
43.8169070513
 20
-18.5420673077
 10
43.8633814103
 20
-18.5649038462
 10
43.9102564103
 20
-18.594150641
 10
43.9571314103
 20
-18.6298076923
 10
44.0044070513
 20
-18.671875
 10
44.0512820513
 20
-18.7207532051
  0
CIRCLE
  5
AB
330
1F
100
AcDbEntity
  8
0
  6
Continuous
 62
     7
370
    25
100
AcDbCircle
 10
0.0
 20
0.0
 30
0.0
 40
2.247899999999984
  0
CIRCLE
  5
AC
330
1F
100
AcDbEntity
  8
0
  6
Continuous
 62
     7
370
    25
100
AcDbCircle
 10
-10.0
 20
-25.0
 30
0.0
 40
2.199999999999999
  0
CIRCLE
  5
AD
330
1F
100
AcDbEntity
  8
0
  6
Continuous
 62
     7
370
    25
100
AcDbCircle
 10
10.0
 20
-25.0
 30
0.0
 40
2.199999999999999
  0
CIRCLE
  5
AE
330
1F
100
AcDbEntity
  8
0
  6
Continuous
 62
     7
370
    25
100
AcDbCircle
 10
44.525
 20
11.475
 30
0.0
 40
1.32499999999999
  0
CIRCLE
  5
AF
330
1F
100
AcDbEntity
  8
0
  6
Continuous
 62
     7
370
    25
100
AcDbCircle
 10
33.5
 20
-45.5
 30
0.0
 40
1.100000000000009
  0
CIRCLE
  5
B0
330
1F
100
AcDbEntity
  8
0
  6
Continuous
 62
     7
370
    25
100
AcDbCircle
 10
26.25
 20
0.0
 30
0.0
 40
2.247899999999986
  0
CIRCLE
  5
B1
330
1F
100
AcDbEntity
  8
0
  6
Continuous
 62
     7
370
    25
100
AcDbCircle
 10
-26.25
 20
0.0
 30
0.0
 40
2.24789999999998
  0
CIRCLE
  5
B2
330
1F
100
AcDbEntity
  8
0
  6
Continuous
 62
     7
370
    25
100
AcDbCircle
 10
44.525
 20
34.525
 30
0.0
 40
1.324999999999989
  0
CIRCLE
  5
B3
330
1F
100
AcDbEntity
  8
0
  6
Continuous
 62
     7
370
    25
100
AcDbCircle
 10
27.0
 20
45.0
 30
0.0
 40
2.199999999999989
  0
CIRCLE
  5
B4
330
1F
100
AcDbEntity
  8
0
  6
Continuous
 62
     7
370
    25
100
AcDbCircle
 10
-27.0
 20
45.0
 30
0.0
 40
2.199999999999996
  0
CIRCLE
  5
B5
330
1F
100
AcDbEntity
  8
0
  6
Continuous
 62
     7
370
    25
100
AcDbCircle
 10
-13.525
 20
34.525
 30
0.0
 40
1.324999999999996
  0
CIRCLE
  5
B6
330
1F
100
AcDbEntity
  8
0
  6
Continuous
 62
     7
370
    25
100
AcDbCircle
 10
45.5
 20
-15.5
 30
0.0
 40
1.099999999999996
  0
CIRCLE
  5
B7
330
1F
100
AcDbEntity
  8
0
  6
Continuous
 62
     7
370
    25
100
AcDbCircle
 10
45.5
 20
-45.5
 30
0.0
 40
1.100000000000009
  0
LINE
  5
BC
330
1F
100
AcDbEntity
  8
0
  6
Continuous
 62
     7
370
    25
100
AcDbLine
 10
50.0
 20
-49.0
 30
0.0
 11
50.0
 21
49.0
 31
0.0
  0
LINE
  5
BD
330
1F
100
AcDbEntity
  8
0
  6
Continuous
 62
     7
370
    25
100
AcDbLine
 10
-49.0
 20
-50.0
 30
0.0
 11
49.0
 21
-50.0
 31
0.0
  0
LINE
  5
BE
330
1F
100
AcDbEntity
  8
0
  6
Continuous
 62
     7
370
    25
100
AcDbLine
 10
-50.0
 20
49.0
 30
0.0
 11
-50.0
 21
-49.0
 31
0.0
  0
LINE
  5
BF
330
1F
100
AcDbEntity
  8
0
  6
Continuous
 62
     7
370
    25
100
AcDbLine
 10
49.0
 20
50.0
 30
0.0
 11
-49.0
 21
50.0
 31
0.0
  0
ARC
  5
C0
330
1F
100
AcDbEntity
  8
0
  6
Continuous
 62
     7
370
    25
100
AcDbCircle
 10
-49.0
 20
-49.0
 30
0.0
 40
1.0
100
AcDbArc
 50
180.0
 51
270.0
  0
ARC
  5
C1
330
1F
100
AcDbEntity
  8
0
  6
Continuous
 62
     7
370
    25
100
AcDbCircle
 10
-49.0
 20
49.0
 30
0.0
 40
1.0
100
AcDbArc
 50
90.0
 51
180.0
  0
ARC
  5
C2
330
1F
100
AcDbEntity
  8
0
  6
Continuous
 62
     7
370
    25
100
AcDbCircle
 10
49.0
 20
49.0
 30
0.0
 40
1.0
100
AcDbArc
 50
0.0
 51
90.0
  0
ARC
  5
C3
330
1F
100
AcDbEntity
  8
0
  6
Continuous
 62
     7
370
    25
100
AcDbCircle
 10
49.0
 20
-49.0
 30
0.0
 40
1.0
100
AcDbArc
 50
270.0
 51
0.0
  0
MTEXT
  5
C5
330
1F
100
AcDbEntity
  8
0
  6
Continuous
 62
     7
100
AcDbMText
 10
-50.0
 20
-51.0195663917
 30
0.0
 40
4.83362
 41
0.0
 71
     1
 72
     1
  1
SOLIDWORKS Educational Product.
  7
SLDTEXTSTYLE0
 73
     1
 44
1.0
  0
MTEXT
  5
C6
330
1F
100
AcDbEntity
  8
0
  6
Continuous
 62
     7
100
AcDbMText
 10
-50.0
 20
-58.2699963917
 30
0.0
 40
4.83362
 41
0.0
 71
     1
 72
     1
  1
For Instructional Use Only.
  7
SLDTEXTSTYLE0
 73
     1
 44
1.0
  0
ENDSEC
  0
SECTION
  2
OBJECTS
  0
DICTIONARY
  5
C
330
0
100
AcDbDictionary
281
     1
  3
ACAD_GROUP
350
D
  3
ACAD_LAYOUT
350
1A
  3
ACAD_MLINESTYLE
350
17
  3
ACAD_PLOTSETTINGS
350
19
  3
ACAD_PLOTSTYLENAME
350
E
  3
ACAD_SCALELIST
350
47
  0
DICTIONARY
  5
D
102
{ACAD_REACTORS
330
C
102
}
330
C
100
AcDbDictionary
281
     1
  0
DICTIONARY
  5
1A
102
{ACAD_REACTORS
330
C
102
}
330
C
100
AcDbDictionary
281
     1
  3
Layout1
350
1E
  3
Layout2
350
26
  3
Model
350
22
  0
DICTIONARY
  5
17
102
{ACAD_REACTORS
330
C
102
}
330
C
100
AcDbDictionary
281
     1
  3
Standard
350
18
  0
DICTIONARY
  5
19
102
{ACAD_REACTORS
330
C
102
}
330
C
100
AcDbDictionary
281
     1
  0
ACDBDICTIONARYWDFLT
  5
E
102
{ACAD_REACTORS
330
C
102
}
330
C
100
AcDbDictionary
281
     1
  3
Normal
350
F
100
AcDbDictionaryWithDefault
340
F
  0
DICTIONARY
  5
47
102
{ACAD_REACTORS
330
C
102
}
330
C
100
AcDbDictionary
281
     1
  3
A0
350
48
  3
A1
350
49
  3
A2
350
4A
  3
A3
350
4B
  3
A4
350
4C
  3
A5
350
4D
  3
A6
350
4E
  3
A7
350
4F
  3
A8
350
50
  3
A9
350
51
  3
B0
350
52
  3
B1
350
53
  3
B2
350
54
  3
B3
350
55
  3
B4
350
56
  3
B5
350
57
  3
B6
350
58
  3
B7
350
59
  3
B8
350
5A
  3
B9
350
5B
  3
C0
350
5C
  3
C1
350
5D
  3
C2
350
5E
  3
C3
350
5F
  3
C4
350
60
  3
C5
350
61
  3
C6
350
62
  3
C7
350
63
  3
C8
350
64
  3
C9
350
65
  3
D0
350
66
  3
D1
350
67
  3
D2
350
68
  0
LAYOUT
  5
1E
102
{ACAD_REACTORS
330
1A
102
}
330
1A
100
AcDbPlotSettings
  1

  2
none_device
  4

  6

 40
0.0
 41
0.0
 42
0.0
 43
0.0
 44
0.0
 45
0.0
 46
0.0
 47
0.0
 48
0.0
 49
0.0
140
0.0
141
0.0
142
1.0
143
1.0
 70
   688
 72
     1
 73
     0
 74
     5
  7

 75
    16
147
1.0
148
0.0
149
0.0
100
AcDbLayout
  1
Layout1
 70
     1
 71
     1
 10
0.0
 20
0.0
 11
420.0
 21
297.0
 12
0.0
 22
0.0
 32
0.0
 14
1.0000000000E+20
 24
1.0000000000E+20
 34
1.0000000000E+20
 15
-1.0000000000E+20
 25
-1.0000000000E+20
 35
-1.0000000000E+20
146
0.0
 13
0.0
 23
0.0
 33
0.0
 16
1.0
 26
0.0
 36
0.0
 17
0.0
 27
1.0
 37
0.0
 76
     0
330
1B
  0
LAYOUT
  5
26
102
{ACAD_REACTORS
330
1A
102
}
330
1A
100
AcDbPlotSettings
  1

  2
none_device
  4

  6

 40
0.0
 41
0.0
 42
0.0
 43
0.0
 44
0.0
 45
0.0
 46
0.0
 47
0.0
 48
0.0
 49
0.0
140
0.0
141
0.0
142
1.0
143
1.0
 70
   688
 72
     1
 73
     0
 74
     5
  7

 75
    16
147
1.0
148
0.0
149
0.0
100
AcDbLayout
  1
Layout2
 70
     1
 71
     2
 10
0.0
 20
0.0
 11
0.0
 21
0.0
 12
0.0
 22
0.0
 32
0.0
 14
0.0
 24
0.0
 34
0.0
 15
0.0
 25
0.0
 35
0.0
146
0.0
 13
0.0
 23
0.0
 33
0.0
 16
1.0
 26
0.0
 36
0.0
 17
0.0
 27
1.0
 37
0.0
 76
     0
330
23
  0
LAYOUT
  5
22
102
{ACAD_REACTORS
330
1A
102
}
330
1A
100
AcDbPlotSettings
  1

  2
none_device
  4
ANSI_A_(11.00_x_8.50_Inches)
  6

 40
6.35
 41
19.05
 42
6.35000508
 43
19.05000254
 44
279.4
 45
215.9
 46
133.34999746
 47
88.89999873
 48
0.0
 49
0.0
140
0.0
141
0.0
142
0.08415
143
1.0
 70
  1696
 72
     0
 73
     0
 74
     0
  7

 75
     0
147
0.0179189148
148
-1300.4909072572
149
0.0
100
AcDbLayout
  1
Model
 70
     1
 71
     0
 10
0.0
 20
0.0
 11
420.0
 21
297.0
 12
0.0
 22
0.0
 32
0.0
 14
-50.0
 24
-50.0
 34
0.0
 15
50.0
 25
50.0
 35
0.0
146
0.0
 13
0.0
 23
0.0
 33
0.0
 16
1.0
 26
0.0
 36
0.0
 17
0.0
 27
1.0
 37
0.0
 76
     0
330
1F
331
29
  0
MLINESTYLE
  5
18
102
{ACAD_REACTORS
330
17
102
}
330
17
100
AcDbMlineStyle
  2
Standard
 70
     0
  3

 62
   256
 51
90.0
 52
90.0
 71
     2
 49
0.5
 62
   256
  6
BYLAYER
 49
-0.5
 62
   256
  6
BYLAYER
  0
ACDBPLACEHOLDER
  5
F
102
{ACAD_REACTORS
330
E
102
}
330
E
  0
SCALE
  5
48
102
{ACAD_REACTORS
330
47
102
}
330
47
100
AcDbScale
 70
     0
300
1:1
140
1.0
141
1.0
290
     1
  0
SCALE
  5
49
102
{ACAD_REACTORS
330
47
102
}
330
47
100
AcDbScale
 70
     0
300
1:2
140
1.0
141
2.0
290
     0
  0
SCALE
  5
4A
102
{ACAD_REACTORS
330
47
102
}
330
47
100
AcDbScale
 70
     0
300
1:4
140
1.0
141
4.0
290
     0
  0
SCALE
  5
4B
102
{ACAD_REACTORS
330
47
102
}
330
47
100
AcDbScale
 70
     0
300
1:5
140
1.0
141
5.0
290
     0
  0
SCALE
  5
4C
102
{ACAD_REACTORS
330
47
102
}
330
47
100
AcDbScale
 70
     0
300
1:8
140
1.0
141
8.0
290
     0
  0
SCALE
  5
4D
102
{ACAD_REACTORS
330
47
102
}
330
47
100
AcDbScale
 70
     0
300
1:10
140
1.0
141
10.0
290
     0
  0
SCALE
  5
4E
102
{ACAD_REACTORS
330
47
102
}
330
47
100
AcDbScale
 70
     0
300
1:16
140
1.0
141
16.0
290
     0
  0
SCALE
  5
4F
102
{ACAD_REACTORS
330
47
102
}
330
47
100
AcDbScale
 70
     0
300
1:20
140
1.0
141
20.0
290
     0
  0
SCALE
  5
50
102
{ACAD_REACTORS
330
47
102
}
330
47
100
AcDbScale
 70
     0
300
1:30
140
1.0
141
30.0
290
     0
  0
SCALE
  5
51
102
{ACAD_REACTORS
330
47
102
}
330
47
100
AcDbScale
 70
     0
300
1:40
140
1.0
141
40.0
290
     0
  0
SCALE
  5
52
102
{ACAD_REACTORS
330
47
102
}
330
47
100
AcDbScale
 70
     0
300
1:50
140
1.0
141
50.0
290
     0
  0
SCALE
  5
53
102
{ACAD_REACTORS
330
47
102
}
330
47
100
AcDbScale
 70
     0
300
1:100
140
1.0
141
100.0
290
     0
  0
SCALE
  5
54
102
{ACAD_REACTORS
330
47
102
}
330
47
100
AcDbScale
 70
     0
300
2:1
140
2.0
141
1.0
290
     0
  0
SCALE
  5
55
102
{ACAD_REACTORS
330
47
102
}
330
47
100
AcDbScale
 70
     0
300
4:1
140
4.0
141
1.0
290
     0
  0
SCALE
  5
56
102
{ACAD_REACTORS
330
47
102
}
330
47
100
AcDbScale
 70
     0
300
8:1
140
8.0
141
1.0
290
     0
  0
SCALE
  5
57
102
{ACAD_REACTORS
330
47
102
}
330
47
100
AcDbScale
 70
     0
300
10:1
140
10.0
141
1.0
290
     0
  0
SCALE
  5
58
102
{ACAD_REACTORS
330
47
102
}
330
47
100
AcDbScale
 70
     0
300
100:1
140
100.0
141
1.0
290
     0
  0
SCALE
  5
59
102
{ACAD_REACTORS
330
47
102
}
330
47
100
AcDbScale
 70
     0
300
1/128" = 1'-0"
140
0.0078125
141
12.0
290
     0
  0
SCALE
  5
5A
102
{ACAD_REACTORS
330
47
102
}
330
47
100
AcDbScale
 70
     0
300
1/64" = 1'-0"
140
0.015625
141
12.0
290
     0
  0
SCALE
  5
5B
102
{ACAD_REACTORS
330
47
102
}
330
47
100
AcDbScale
 70
     0
300
1/32" = 1'-0"
140
0.03125
141
12.0
290
     0
  0
SCALE
  5
5C
102
{ACAD_REACTORS
330
47
102
}
330
47
100
AcDbScale
 70
     0
300
1/16" = 1'-0"
140
0.0625
141
12.0
290
     0
  0
SCALE
  5
5D
102
{ACAD_REACTORS
330
47
102
}
330
47
100
AcDbScale
 70
     0
300
3/32" = 1'-0"
140
0.09375
141
12.0
290
     0
  0
SCALE
  5
5E
102
{ACAD_REACTORS
330
47
102
}
330
47
100
AcDbScale
 70
     0
300
1/8" = 1'-0"
140
0.125
141
12.0
290
     0
  0
SCALE
  5
5F
102
{ACAD_REACTORS
330
47
102
}
330
47
100
AcDbScale
 70
     0
300
3/16" = 1'-0"
140
0.1875
141
12.0
290
     0
  0
SCALE
  5
60
102
{ACAD_REACTORS
330
47
102
}
330
47
100
AcDbScale
 70
     0
300
1/4" = 1'-0"
140
0.25
141
12.0
290
     0
  0
SCALE
  5
61
102
{ACAD_REACTORS
330
47
102
}
330
47
100
AcDbScale
 70
     0
300
3/8" = 1'-0"
140
0.375
141
12.0
290
     0
  0
SCALE
  5
62
102
{ACAD_REACTORS
330
47
102
}
330
47
100
AcDbScale
 70
     0
300
1/2" = 1'-0"
140
0.5
141
12.0
290
     0
  0
SCALE
  5
63
102
{ACAD_REACTORS
330
47
102
}
330
47
100
AcDbScale
 70
     0
300
3/4" = 1'-0"
140
0.75
141
12.0
290
     0
  0
SCALE
  5
64
102
{ACAD_REACTORS
330
47
102
}
330
47
100
AcDbScale
 70
     0
300
1" = 1'-0"
140
1.0
141
12.0
290
     0
  0
SCALE
  5
65
102
{ACAD_REACTORS
330
47
102
}
330
47
100
AcDbScale
 70
     0
300
1-1/2" = 1'-0"
140
1.5
141
12.0
290
     0
  0
SCALE
  5
66
102
{ACAD_REACTORS
330
47
102
}
330
47
100
AcDbScale
 70
     0
300
3" = 1'-0"
140
3.0
141
12.0
290
     0
  0
SCALE
  5
67
102
{ACAD_REACTORS
330
47
102
}
330
47
100
AcDbScale
 70
     0
300
6" = 1'-0"
140
6.0
141
12.0
290
     0
  0
SCALE
  5
68
102
{ACAD_REACTORS
330
47
102
}
330
47
100
AcDbScale
 70
     0
300
1'-0" = 1'-0"
140
12.0
141
12.0
290
     0
  0
ENDSEC
  0
EOF
