G04 #@! TF.GenerationSoftware,KiCad,Pcbnew,(5.1.2)-1*
G04 #@! TF.CreationDate,2019-05-25T15:26:14-07:00*
G04 #@! TF.ProjectId,backplane,6261636b-706c-4616-9e65-2e6b69636164,v1.1*
G04 #@! TF.SameCoordinates,Original*
G04 #@! TF.FileFunction,Copper,L2,Bot*
G04 #@! TF.FilePolarity,Positive*
%FSLAX46Y46*%
G04 Gerber Fmt 4.6, Leading zero omitted, Abs format (unit mm)*
G04 Created by KiCad (PCBNEW (5.1.2)-1) date 2019-05-25 15:26:14*
%MOMM*%
%LPD*%
G04 APERTURE LIST*
%ADD10C,0.800000*%
%ADD11C,0.254000*%
G04 APERTURE END LIST*
D10*
X158000000Y-175000000D03*
X159800000Y-175000000D03*
X59000000Y-110000000D03*
X59000000Y-108000000D03*
X58000000Y-109000000D03*
X57000000Y-108000000D03*
X57000000Y-110000000D03*
X56000000Y-109000000D03*
X56000000Y-111000000D03*
X55000000Y-112000000D03*
X56000000Y-113000000D03*
X55000000Y-114000000D03*
X56000000Y-115000000D03*
X55000000Y-116000000D03*
X56000000Y-117000000D03*
X57000000Y-116000000D03*
X58000000Y-117000000D03*
X59000000Y-116000000D03*
X59000000Y-118000000D03*
X57000000Y-118000000D03*
X54000000Y-111000000D03*
X54000000Y-113000000D03*
X54000000Y-115000000D03*
X55000000Y-110000000D03*
X167840000Y-175480000D03*
X147840000Y-175480000D03*
X127840000Y-175480000D03*
X107840000Y-175480000D03*
X87840000Y-175480000D03*
X67840000Y-175480000D03*
X47840000Y-175480000D03*
X27840000Y-175480000D03*
X167840000Y-155480000D03*
X147840000Y-155480000D03*
X127840000Y-155480000D03*
X107840000Y-155480000D03*
X87840000Y-155480000D03*
X67840000Y-155480000D03*
X47840000Y-150000000D03*
X27840000Y-155480000D03*
X167840000Y-135480000D03*
X147840000Y-135480000D03*
X127840000Y-135480000D03*
X107840000Y-135480000D03*
X87840000Y-135480000D03*
X67840000Y-135480000D03*
X47840000Y-135480000D03*
X27840000Y-135480000D03*
X167840000Y-115480000D03*
X147840000Y-115480000D03*
X127840000Y-115480000D03*
X27840000Y-115480000D03*
X147840000Y-95480000D03*
X127840000Y-95480000D03*
X67840000Y-95480000D03*
X47840000Y-95480000D03*
X27840000Y-95480000D03*
X167840000Y-75480000D03*
X147840000Y-75480000D03*
X127840000Y-75480000D03*
X107840000Y-75480000D03*
X87840000Y-75480000D03*
X67840000Y-75480000D03*
X47840000Y-75480000D03*
X27840000Y-75480000D03*
X167840000Y-55480000D03*
X147840000Y-55480000D03*
X127840000Y-55480000D03*
X107840000Y-55480000D03*
X87840000Y-55480000D03*
X67840000Y-55480000D03*
X47840000Y-55480000D03*
X27840000Y-55480000D03*
X168000000Y-39000000D03*
X147840000Y-35480000D03*
X127840000Y-35480000D03*
X107840000Y-35480000D03*
X87840000Y-35480000D03*
X67840000Y-35480000D03*
X47840000Y-35480000D03*
X27840000Y-35480000D03*
X167840000Y-97000000D03*
X89000000Y-119000000D03*
X85000000Y-99000000D03*
X110000000Y-92000000D03*
X112000000Y-118000000D03*
D11*
G36*
X171873000Y-179820000D02*
G01*
X23520000Y-179820000D01*
X23520000Y-170269721D01*
X85725000Y-170269721D01*
X85725000Y-170690279D01*
X85807047Y-171102756D01*
X85967988Y-171491302D01*
X86201637Y-171840983D01*
X86499017Y-172138363D01*
X86848698Y-172372012D01*
X87237244Y-172532953D01*
X87649721Y-172615000D01*
X88070279Y-172615000D01*
X88482756Y-172532953D01*
X88871302Y-172372012D01*
X89220983Y-172138363D01*
X89518363Y-171840983D01*
X89752012Y-171491302D01*
X89912953Y-171102756D01*
X89995000Y-170690279D01*
X89995000Y-170269721D01*
X105725000Y-170269721D01*
X105725000Y-170690279D01*
X105807047Y-171102756D01*
X105967988Y-171491302D01*
X106201637Y-171840983D01*
X106499017Y-172138363D01*
X106848698Y-172372012D01*
X107237244Y-172532953D01*
X107649721Y-172615000D01*
X108070279Y-172615000D01*
X108482756Y-172532953D01*
X108871302Y-172372012D01*
X109220983Y-172138363D01*
X109518363Y-171840983D01*
X109752012Y-171491302D01*
X109912953Y-171102756D01*
X109995000Y-170690279D01*
X109995000Y-170269721D01*
X109912953Y-169857244D01*
X109752012Y-169468698D01*
X109518363Y-169119017D01*
X109220983Y-168821637D01*
X108871302Y-168587988D01*
X108482756Y-168427047D01*
X108070279Y-168345000D01*
X107649721Y-168345000D01*
X107237244Y-168427047D01*
X106848698Y-168587988D01*
X106499017Y-168821637D01*
X106201637Y-169119017D01*
X105967988Y-169468698D01*
X105807047Y-169857244D01*
X105725000Y-170269721D01*
X89995000Y-170269721D01*
X89912953Y-169857244D01*
X89752012Y-169468698D01*
X89518363Y-169119017D01*
X89220983Y-168821637D01*
X88871302Y-168587988D01*
X88482756Y-168427047D01*
X88070279Y-168345000D01*
X87649721Y-168345000D01*
X87237244Y-168427047D01*
X86848698Y-168587988D01*
X86499017Y-168821637D01*
X86201637Y-169119017D01*
X85967988Y-169468698D01*
X85807047Y-169857244D01*
X85725000Y-170269721D01*
X23520000Y-170269721D01*
X23520000Y-150269721D01*
X85725000Y-150269721D01*
X85725000Y-150690279D01*
X85807047Y-151102756D01*
X85967988Y-151491302D01*
X86201637Y-151840983D01*
X86499017Y-152138363D01*
X86848698Y-152372012D01*
X87237244Y-152532953D01*
X87649721Y-152615000D01*
X88070279Y-152615000D01*
X88482756Y-152532953D01*
X88871302Y-152372012D01*
X89220983Y-152138363D01*
X89518363Y-151840983D01*
X89752012Y-151491302D01*
X89912953Y-151102756D01*
X89995000Y-150690279D01*
X89995000Y-150269721D01*
X105725000Y-150269721D01*
X105725000Y-150690279D01*
X105807047Y-151102756D01*
X105967988Y-151491302D01*
X106201637Y-151840983D01*
X106499017Y-152138363D01*
X106848698Y-152372012D01*
X107237244Y-152532953D01*
X107649721Y-152615000D01*
X108070279Y-152615000D01*
X108482756Y-152532953D01*
X108871302Y-152372012D01*
X109220983Y-152138363D01*
X109518363Y-151840983D01*
X109752012Y-151491302D01*
X109912953Y-151102756D01*
X109995000Y-150690279D01*
X109995000Y-150269721D01*
X109912953Y-149857244D01*
X109752012Y-149468698D01*
X109518363Y-149119017D01*
X109220983Y-148821637D01*
X108871302Y-148587988D01*
X108482756Y-148427047D01*
X108070279Y-148345000D01*
X107649721Y-148345000D01*
X107237244Y-148427047D01*
X106848698Y-148587988D01*
X106499017Y-148821637D01*
X106201637Y-149119017D01*
X105967988Y-149468698D01*
X105807047Y-149857244D01*
X105725000Y-150269721D01*
X89995000Y-150269721D01*
X89912953Y-149857244D01*
X89752012Y-149468698D01*
X89518363Y-149119017D01*
X89220983Y-148821637D01*
X88871302Y-148587988D01*
X88482756Y-148427047D01*
X88070279Y-148345000D01*
X87649721Y-148345000D01*
X87237244Y-148427047D01*
X86848698Y-148587988D01*
X86499017Y-148821637D01*
X86201637Y-149119017D01*
X85967988Y-149468698D01*
X85807047Y-149857244D01*
X85725000Y-150269721D01*
X23520000Y-150269721D01*
X23520000Y-133269721D01*
X80725000Y-133269721D01*
X80725000Y-133690279D01*
X80807047Y-134102756D01*
X80967988Y-134491302D01*
X81201637Y-134840983D01*
X81499017Y-135138363D01*
X81848698Y-135372012D01*
X82237244Y-135532953D01*
X82649721Y-135615000D01*
X83070279Y-135615000D01*
X83482756Y-135532953D01*
X83871302Y-135372012D01*
X84220983Y-135138363D01*
X84518363Y-134840983D01*
X84752012Y-134491302D01*
X84912953Y-134102756D01*
X84995000Y-133690279D01*
X84995000Y-133269721D01*
X110725000Y-133269721D01*
X110725000Y-133690279D01*
X110807047Y-134102756D01*
X110967988Y-134491302D01*
X111201637Y-134840983D01*
X111499017Y-135138363D01*
X111848698Y-135372012D01*
X112237244Y-135532953D01*
X112649721Y-135615000D01*
X113070279Y-135615000D01*
X113482756Y-135532953D01*
X113871302Y-135372012D01*
X114220983Y-135138363D01*
X114518363Y-134840983D01*
X114752012Y-134491302D01*
X114912953Y-134102756D01*
X114995000Y-133690279D01*
X114995000Y-133269721D01*
X114912953Y-132857244D01*
X114752012Y-132468698D01*
X114518363Y-132119017D01*
X114220983Y-131821637D01*
X113871302Y-131587988D01*
X113482756Y-131427047D01*
X113070279Y-131345000D01*
X112649721Y-131345000D01*
X112237244Y-131427047D01*
X111848698Y-131587988D01*
X111499017Y-131821637D01*
X111201637Y-132119017D01*
X110967988Y-132468698D01*
X110807047Y-132857244D01*
X110725000Y-133269721D01*
X84995000Y-133269721D01*
X84912953Y-132857244D01*
X84752012Y-132468698D01*
X84518363Y-132119017D01*
X84220983Y-131821637D01*
X83871302Y-131587988D01*
X83482756Y-131427047D01*
X83070279Y-131345000D01*
X82649721Y-131345000D01*
X82237244Y-131427047D01*
X81848698Y-131587988D01*
X81499017Y-131821637D01*
X81201637Y-132119017D01*
X80967988Y-132468698D01*
X80807047Y-132857244D01*
X80725000Y-133269721D01*
X23520000Y-133269721D01*
X23520000Y-106588967D01*
X24225000Y-106588967D01*
X24225000Y-106911033D01*
X24287832Y-107226912D01*
X24411082Y-107524463D01*
X24590013Y-107792252D01*
X24817748Y-108019987D01*
X25085537Y-108198918D01*
X25383088Y-108322168D01*
X25698967Y-108385000D01*
X26021033Y-108385000D01*
X26336912Y-108322168D01*
X26634463Y-108198918D01*
X26902252Y-108019987D01*
X27129987Y-107792252D01*
X27308918Y-107524463D01*
X27432168Y-107226912D01*
X27495000Y-106911033D01*
X27495000Y-106588967D01*
X27432168Y-106273088D01*
X27308918Y-105975537D01*
X27129987Y-105707748D01*
X26902252Y-105480013D01*
X26634463Y-105301082D01*
X26336912Y-105177832D01*
X26021033Y-105115000D01*
X25698967Y-105115000D01*
X25383088Y-105177832D01*
X25085537Y-105301082D01*
X24817748Y-105480013D01*
X24590013Y-105707748D01*
X24411082Y-105975537D01*
X24287832Y-106273088D01*
X24225000Y-106588967D01*
X23520000Y-106588967D01*
X23520000Y-103880000D01*
X76631638Y-103880000D01*
X76635001Y-103914145D01*
X76635000Y-111465865D01*
X76631638Y-111500000D01*
X76645057Y-111636244D01*
X76684798Y-111767252D01*
X76749333Y-111887989D01*
X76836183Y-111993817D01*
X76942011Y-112080667D01*
X77062748Y-112145202D01*
X77193756Y-112184943D01*
X77330000Y-112198362D01*
X77364134Y-112195000D01*
X78295866Y-112195000D01*
X78330000Y-112198362D01*
X78466244Y-112184943D01*
X78597252Y-112145202D01*
X78717989Y-112080667D01*
X78823817Y-111993817D01*
X78910667Y-111887989D01*
X78975202Y-111767252D01*
X79014943Y-111636244D01*
X79025000Y-111534135D01*
X79025000Y-111534134D01*
X79028362Y-111500000D01*
X79025000Y-111465865D01*
X79025000Y-103914135D01*
X79028362Y-103880000D01*
X79014943Y-103743756D01*
X78975202Y-103612748D01*
X78910667Y-103492011D01*
X78823817Y-103386183D01*
X78717989Y-103299333D01*
X78597252Y-103234798D01*
X78466244Y-103195057D01*
X78364135Y-103185000D01*
X78364134Y-103185000D01*
X78330000Y-103181638D01*
X78295865Y-103185000D01*
X77364135Y-103185000D01*
X77330000Y-103181638D01*
X77295866Y-103185000D01*
X77295865Y-103185000D01*
X77193756Y-103195057D01*
X77062748Y-103234798D01*
X76942011Y-103299333D01*
X76836183Y-103386183D01*
X76749333Y-103492011D01*
X76684798Y-103612748D01*
X76645057Y-103743756D01*
X76631638Y-103880000D01*
X23520000Y-103880000D01*
X23520000Y-94910000D01*
X86601686Y-94910000D01*
X86605001Y-94943657D01*
X86605000Y-115876353D01*
X86601686Y-115910000D01*
X86614912Y-116044283D01*
X86654081Y-116173406D01*
X86717688Y-116292407D01*
X86803289Y-116396711D01*
X86907593Y-116482312D01*
X87026594Y-116545919D01*
X87155717Y-116585088D01*
X87290000Y-116598314D01*
X87323647Y-116595000D01*
X108256353Y-116595000D01*
X108290000Y-116598314D01*
X108424283Y-116585088D01*
X108553406Y-116545919D01*
X108672407Y-116482312D01*
X108776711Y-116396711D01*
X108862312Y-116292407D01*
X108925919Y-116173406D01*
X108965088Y-116044283D01*
X108975000Y-115943647D01*
X108975000Y-115943646D01*
X108978314Y-115910000D01*
X108975000Y-115876353D01*
X108975000Y-106588967D01*
X168225000Y-106588967D01*
X168225000Y-106911033D01*
X168287832Y-107226912D01*
X168411082Y-107524463D01*
X168590013Y-107792252D01*
X168817748Y-108019987D01*
X169085537Y-108198918D01*
X169383088Y-108322168D01*
X169698967Y-108385000D01*
X170021033Y-108385000D01*
X170336912Y-108322168D01*
X170634463Y-108198918D01*
X170902252Y-108019987D01*
X171129987Y-107792252D01*
X171308918Y-107524463D01*
X171432168Y-107226912D01*
X171495000Y-106911033D01*
X171495000Y-106588967D01*
X171432168Y-106273088D01*
X171308918Y-105975537D01*
X171129987Y-105707748D01*
X170902252Y-105480013D01*
X170634463Y-105301082D01*
X170336912Y-105177832D01*
X170021033Y-105115000D01*
X169698967Y-105115000D01*
X169383088Y-105177832D01*
X169085537Y-105301082D01*
X168817748Y-105480013D01*
X168590013Y-105707748D01*
X168411082Y-105975537D01*
X168287832Y-106273088D01*
X168225000Y-106588967D01*
X108975000Y-106588967D01*
X108975000Y-94943646D01*
X108978314Y-94910000D01*
X108965088Y-94775717D01*
X108925919Y-94646594D01*
X108862312Y-94527593D01*
X108776711Y-94423289D01*
X108672407Y-94337688D01*
X108553406Y-94274081D01*
X108424283Y-94234912D01*
X108323647Y-94225000D01*
X108290000Y-94221686D01*
X108256353Y-94225000D01*
X100975000Y-94225000D01*
X100975000Y-93838032D01*
X141698000Y-93838032D01*
X141698000Y-94233968D01*
X141775243Y-94622296D01*
X141926761Y-94988092D01*
X142146731Y-95317301D01*
X142426699Y-95597269D01*
X142755908Y-95817239D01*
X143121704Y-95968757D01*
X143510032Y-96046000D01*
X143905968Y-96046000D01*
X144294296Y-95968757D01*
X144660092Y-95817239D01*
X144989301Y-95597269D01*
X145269269Y-95317301D01*
X145489239Y-94988092D01*
X145640757Y-94622296D01*
X145718000Y-94233968D01*
X145718000Y-93838032D01*
X164698000Y-93838032D01*
X164698000Y-94233968D01*
X164775243Y-94622296D01*
X164926761Y-94988092D01*
X165146731Y-95317301D01*
X165426699Y-95597269D01*
X165755908Y-95817239D01*
X166121704Y-95968757D01*
X166510032Y-96046000D01*
X166905968Y-96046000D01*
X167294296Y-95968757D01*
X167660092Y-95817239D01*
X167989301Y-95597269D01*
X168269269Y-95317301D01*
X168489239Y-94988092D01*
X168640757Y-94622296D01*
X168718000Y-94233968D01*
X168718000Y-93838032D01*
X168640757Y-93449704D01*
X168489239Y-93083908D01*
X168269269Y-92754699D01*
X167989301Y-92474731D01*
X167660092Y-92254761D01*
X167294296Y-92103243D01*
X166905968Y-92026000D01*
X166510032Y-92026000D01*
X166121704Y-92103243D01*
X165755908Y-92254761D01*
X165426699Y-92474731D01*
X165146731Y-92754699D01*
X164926761Y-93083908D01*
X164775243Y-93449704D01*
X164698000Y-93838032D01*
X145718000Y-93838032D01*
X145640757Y-93449704D01*
X145489239Y-93083908D01*
X145269269Y-92754699D01*
X144989301Y-92474731D01*
X144660092Y-92254761D01*
X144294296Y-92103243D01*
X143905968Y-92026000D01*
X143510032Y-92026000D01*
X143121704Y-92103243D01*
X142755908Y-92254761D01*
X142426699Y-92474731D01*
X142146731Y-92754699D01*
X141926761Y-93083908D01*
X141775243Y-93449704D01*
X141698000Y-93838032D01*
X100975000Y-93838032D01*
X100975000Y-90943647D01*
X100978314Y-90910000D01*
X100965088Y-90775717D01*
X100925919Y-90646594D01*
X100862312Y-90527593D01*
X100776711Y-90423289D01*
X100672407Y-90337688D01*
X100553406Y-90274081D01*
X100424283Y-90234912D01*
X100323647Y-90225000D01*
X100290000Y-90221686D01*
X100256353Y-90225000D01*
X95323647Y-90225000D01*
X95290000Y-90221686D01*
X95256353Y-90225000D01*
X95155717Y-90234912D01*
X95026594Y-90274081D01*
X94907593Y-90337688D01*
X94803289Y-90423289D01*
X94717688Y-90527593D01*
X94654081Y-90646594D01*
X94614912Y-90775717D01*
X94601686Y-90910000D01*
X94605001Y-90943657D01*
X94605000Y-94225000D01*
X87323647Y-94225000D01*
X87290000Y-94221686D01*
X87256353Y-94225000D01*
X87155717Y-94234912D01*
X87026594Y-94274081D01*
X86907593Y-94337688D01*
X86803289Y-94423289D01*
X86717688Y-94527593D01*
X86654081Y-94646594D01*
X86614912Y-94775717D01*
X86601686Y-94910000D01*
X23520000Y-94910000D01*
X23520000Y-81149117D01*
X26765000Y-81149117D01*
X26765000Y-81490883D01*
X26831675Y-81826081D01*
X26962463Y-82141831D01*
X27152337Y-82425998D01*
X27394002Y-82667663D01*
X27678169Y-82857537D01*
X27993919Y-82988325D01*
X28329117Y-83055000D01*
X28670883Y-83055000D01*
X29006081Y-82988325D01*
X29321831Y-82857537D01*
X29605998Y-82667663D01*
X29847663Y-82425998D01*
X30037537Y-82141831D01*
X30168325Y-81826081D01*
X30235000Y-81490883D01*
X30235000Y-81149117D01*
X56765000Y-81149117D01*
X56765000Y-81490883D01*
X56831675Y-81826081D01*
X56962463Y-82141831D01*
X57152337Y-82425998D01*
X57394002Y-82667663D01*
X57678169Y-82857537D01*
X57993919Y-82988325D01*
X58329117Y-83055000D01*
X58670883Y-83055000D01*
X59006081Y-82988325D01*
X59321831Y-82857537D01*
X59605998Y-82667663D01*
X59847663Y-82425998D01*
X60037537Y-82141831D01*
X60168325Y-81826081D01*
X60235000Y-81490883D01*
X60235000Y-81149117D01*
X60168325Y-80813919D01*
X60037537Y-80498169D01*
X59847663Y-80214002D01*
X59605998Y-79972337D01*
X59321831Y-79782463D01*
X59006081Y-79651675D01*
X58670883Y-79585000D01*
X58329117Y-79585000D01*
X57993919Y-79651675D01*
X57678169Y-79782463D01*
X57394002Y-79972337D01*
X57152337Y-80214002D01*
X56962463Y-80498169D01*
X56831675Y-80813919D01*
X56765000Y-81149117D01*
X30235000Y-81149117D01*
X30168325Y-80813919D01*
X30037537Y-80498169D01*
X29847663Y-80214002D01*
X29605998Y-79972337D01*
X29321831Y-79782463D01*
X29006081Y-79651675D01*
X28670883Y-79585000D01*
X28329117Y-79585000D01*
X27993919Y-79651675D01*
X27678169Y-79782463D01*
X27394002Y-79972337D01*
X27152337Y-80214002D01*
X26962463Y-80498169D01*
X26831675Y-80813919D01*
X26765000Y-81149117D01*
X23520000Y-81149117D01*
X23520000Y-69149117D01*
X26765000Y-69149117D01*
X26765000Y-69490883D01*
X26831675Y-69826081D01*
X26962463Y-70141831D01*
X27152337Y-70425998D01*
X27394002Y-70667663D01*
X27678169Y-70857537D01*
X27993919Y-70988325D01*
X28329117Y-71055000D01*
X28670883Y-71055000D01*
X29006081Y-70988325D01*
X29321831Y-70857537D01*
X29605998Y-70667663D01*
X29847663Y-70425998D01*
X30037537Y-70141831D01*
X30168325Y-69826081D01*
X30235000Y-69490883D01*
X30235000Y-69149117D01*
X30168325Y-68813919D01*
X30037537Y-68498169D01*
X29847663Y-68214002D01*
X29605998Y-67972337D01*
X29321831Y-67782463D01*
X29006081Y-67651675D01*
X28670883Y-67585000D01*
X28329117Y-67585000D01*
X27993919Y-67651675D01*
X27678169Y-67782463D01*
X27394002Y-67972337D01*
X27152337Y-68214002D01*
X26962463Y-68498169D01*
X26831675Y-68813919D01*
X26765000Y-69149117D01*
X23520000Y-69149117D01*
X23520000Y-43269721D01*
X80725000Y-43269721D01*
X80725000Y-43690279D01*
X80807047Y-44102756D01*
X80967988Y-44491302D01*
X81201637Y-44840983D01*
X81499017Y-45138363D01*
X81848698Y-45372012D01*
X82237244Y-45532953D01*
X82649721Y-45615000D01*
X83070279Y-45615000D01*
X83482756Y-45532953D01*
X83871302Y-45372012D01*
X84220983Y-45138363D01*
X84518363Y-44840983D01*
X84752012Y-44491302D01*
X84912953Y-44102756D01*
X84995000Y-43690279D01*
X84995000Y-43269721D01*
X110725000Y-43269721D01*
X110725000Y-43690279D01*
X110807047Y-44102756D01*
X110967988Y-44491302D01*
X111201637Y-44840983D01*
X111499017Y-45138363D01*
X111848698Y-45372012D01*
X112237244Y-45532953D01*
X112649721Y-45615000D01*
X113070279Y-45615000D01*
X113482756Y-45532953D01*
X113871302Y-45372012D01*
X114220983Y-45138363D01*
X114518363Y-44840983D01*
X114752012Y-44491302D01*
X114912953Y-44102756D01*
X114995000Y-43690279D01*
X114995000Y-43269721D01*
X114912953Y-42857244D01*
X114752012Y-42468698D01*
X114518363Y-42119017D01*
X114220983Y-41821637D01*
X113871302Y-41587988D01*
X113482756Y-41427047D01*
X113070279Y-41345000D01*
X112649721Y-41345000D01*
X112237244Y-41427047D01*
X111848698Y-41587988D01*
X111499017Y-41821637D01*
X111201637Y-42119017D01*
X110967988Y-42468698D01*
X110807047Y-42857244D01*
X110725000Y-43269721D01*
X84995000Y-43269721D01*
X84912953Y-42857244D01*
X84752012Y-42468698D01*
X84518363Y-42119017D01*
X84220983Y-41821637D01*
X83871302Y-41587988D01*
X83482756Y-41427047D01*
X83070279Y-41345000D01*
X82649721Y-41345000D01*
X82237244Y-41427047D01*
X81848698Y-41587988D01*
X81499017Y-41821637D01*
X81201637Y-42119017D01*
X80967988Y-42468698D01*
X80807047Y-42857244D01*
X80725000Y-43269721D01*
X23520000Y-43269721D01*
X23520000Y-34588967D01*
X96225000Y-34588967D01*
X96225000Y-34911033D01*
X96287832Y-35226912D01*
X96411082Y-35524463D01*
X96590013Y-35792252D01*
X96817748Y-36019987D01*
X97085537Y-36198918D01*
X97383088Y-36322168D01*
X97698967Y-36385000D01*
X98021033Y-36385000D01*
X98336912Y-36322168D01*
X98634463Y-36198918D01*
X98902252Y-36019987D01*
X99084207Y-35838032D01*
X141698000Y-35838032D01*
X141698000Y-36233968D01*
X141775243Y-36622296D01*
X141926761Y-36988092D01*
X142146731Y-37317301D01*
X142426699Y-37597269D01*
X142755908Y-37817239D01*
X143121704Y-37968757D01*
X143510032Y-38046000D01*
X143905968Y-38046000D01*
X144294296Y-37968757D01*
X144660092Y-37817239D01*
X144989301Y-37597269D01*
X145269269Y-37317301D01*
X145489239Y-36988092D01*
X145640757Y-36622296D01*
X145718000Y-36233968D01*
X145718000Y-35838032D01*
X164698000Y-35838032D01*
X164698000Y-36233968D01*
X164775243Y-36622296D01*
X164926761Y-36988092D01*
X165146731Y-37317301D01*
X165426699Y-37597269D01*
X165755908Y-37817239D01*
X166121704Y-37968757D01*
X166510032Y-38046000D01*
X166905968Y-38046000D01*
X167294296Y-37968757D01*
X167660092Y-37817239D01*
X167989301Y-37597269D01*
X168269269Y-37317301D01*
X168489239Y-36988092D01*
X168640757Y-36622296D01*
X168718000Y-36233968D01*
X168718000Y-35838032D01*
X168640757Y-35449704D01*
X168489239Y-35083908D01*
X168269269Y-34754699D01*
X167989301Y-34474731D01*
X167660092Y-34254761D01*
X167294296Y-34103243D01*
X166905968Y-34026000D01*
X166510032Y-34026000D01*
X166121704Y-34103243D01*
X165755908Y-34254761D01*
X165426699Y-34474731D01*
X165146731Y-34754699D01*
X164926761Y-35083908D01*
X164775243Y-35449704D01*
X164698000Y-35838032D01*
X145718000Y-35838032D01*
X145640757Y-35449704D01*
X145489239Y-35083908D01*
X145269269Y-34754699D01*
X144989301Y-34474731D01*
X144660092Y-34254761D01*
X144294296Y-34103243D01*
X143905968Y-34026000D01*
X143510032Y-34026000D01*
X143121704Y-34103243D01*
X142755908Y-34254761D01*
X142426699Y-34474731D01*
X142146731Y-34754699D01*
X141926761Y-35083908D01*
X141775243Y-35449704D01*
X141698000Y-35838032D01*
X99084207Y-35838032D01*
X99129987Y-35792252D01*
X99308918Y-35524463D01*
X99432168Y-35226912D01*
X99495000Y-34911033D01*
X99495000Y-34588967D01*
X99432168Y-34273088D01*
X99308918Y-33975537D01*
X99129987Y-33707748D01*
X98902252Y-33480013D01*
X98634463Y-33301082D01*
X98336912Y-33177832D01*
X98021033Y-33115000D01*
X97698967Y-33115000D01*
X97383088Y-33177832D01*
X97085537Y-33301082D01*
X96817748Y-33480013D01*
X96590013Y-33707748D01*
X96411082Y-33975537D01*
X96287832Y-34273088D01*
X96225000Y-34588967D01*
X23520000Y-34588967D01*
X23520000Y-31140000D01*
X171873000Y-31140000D01*
X171873000Y-179820000D01*
X171873000Y-179820000D01*
G37*
X171873000Y-179820000D02*
X23520000Y-179820000D01*
X23520000Y-170269721D01*
X85725000Y-170269721D01*
X85725000Y-170690279D01*
X85807047Y-171102756D01*
X85967988Y-171491302D01*
X86201637Y-171840983D01*
X86499017Y-172138363D01*
X86848698Y-172372012D01*
X87237244Y-172532953D01*
X87649721Y-172615000D01*
X88070279Y-172615000D01*
X88482756Y-172532953D01*
X88871302Y-172372012D01*
X89220983Y-172138363D01*
X89518363Y-171840983D01*
X89752012Y-171491302D01*
X89912953Y-171102756D01*
X89995000Y-170690279D01*
X89995000Y-170269721D01*
X105725000Y-170269721D01*
X105725000Y-170690279D01*
X105807047Y-171102756D01*
X105967988Y-171491302D01*
X106201637Y-171840983D01*
X106499017Y-172138363D01*
X106848698Y-172372012D01*
X107237244Y-172532953D01*
X107649721Y-172615000D01*
X108070279Y-172615000D01*
X108482756Y-172532953D01*
X108871302Y-172372012D01*
X109220983Y-172138363D01*
X109518363Y-171840983D01*
X109752012Y-171491302D01*
X109912953Y-171102756D01*
X109995000Y-170690279D01*
X109995000Y-170269721D01*
X109912953Y-169857244D01*
X109752012Y-169468698D01*
X109518363Y-169119017D01*
X109220983Y-168821637D01*
X108871302Y-168587988D01*
X108482756Y-168427047D01*
X108070279Y-168345000D01*
X107649721Y-168345000D01*
X107237244Y-168427047D01*
X106848698Y-168587988D01*
X106499017Y-168821637D01*
X106201637Y-169119017D01*
X105967988Y-169468698D01*
X105807047Y-169857244D01*
X105725000Y-170269721D01*
X89995000Y-170269721D01*
X89912953Y-169857244D01*
X89752012Y-169468698D01*
X89518363Y-169119017D01*
X89220983Y-168821637D01*
X88871302Y-168587988D01*
X88482756Y-168427047D01*
X88070279Y-168345000D01*
X87649721Y-168345000D01*
X87237244Y-168427047D01*
X86848698Y-168587988D01*
X86499017Y-168821637D01*
X86201637Y-169119017D01*
X85967988Y-169468698D01*
X85807047Y-169857244D01*
X85725000Y-170269721D01*
X23520000Y-170269721D01*
X23520000Y-150269721D01*
X85725000Y-150269721D01*
X85725000Y-150690279D01*
X85807047Y-151102756D01*
X85967988Y-151491302D01*
X86201637Y-151840983D01*
X86499017Y-152138363D01*
X86848698Y-152372012D01*
X87237244Y-152532953D01*
X87649721Y-152615000D01*
X88070279Y-152615000D01*
X88482756Y-152532953D01*
X88871302Y-152372012D01*
X89220983Y-152138363D01*
X89518363Y-151840983D01*
X89752012Y-151491302D01*
X89912953Y-151102756D01*
X89995000Y-150690279D01*
X89995000Y-150269721D01*
X105725000Y-150269721D01*
X105725000Y-150690279D01*
X105807047Y-151102756D01*
X105967988Y-151491302D01*
X106201637Y-151840983D01*
X106499017Y-152138363D01*
X106848698Y-152372012D01*
X107237244Y-152532953D01*
X107649721Y-152615000D01*
X108070279Y-152615000D01*
X108482756Y-152532953D01*
X108871302Y-152372012D01*
X109220983Y-152138363D01*
X109518363Y-151840983D01*
X109752012Y-151491302D01*
X109912953Y-151102756D01*
X109995000Y-150690279D01*
X109995000Y-150269721D01*
X109912953Y-149857244D01*
X109752012Y-149468698D01*
X109518363Y-149119017D01*
X109220983Y-148821637D01*
X108871302Y-148587988D01*
X108482756Y-148427047D01*
X108070279Y-148345000D01*
X107649721Y-148345000D01*
X107237244Y-148427047D01*
X106848698Y-148587988D01*
X106499017Y-148821637D01*
X106201637Y-149119017D01*
X105967988Y-149468698D01*
X105807047Y-149857244D01*
X105725000Y-150269721D01*
X89995000Y-150269721D01*
X89912953Y-149857244D01*
X89752012Y-149468698D01*
X89518363Y-149119017D01*
X89220983Y-148821637D01*
X88871302Y-148587988D01*
X88482756Y-148427047D01*
X88070279Y-148345000D01*
X87649721Y-148345000D01*
X87237244Y-148427047D01*
X86848698Y-148587988D01*
X86499017Y-148821637D01*
X86201637Y-149119017D01*
X85967988Y-149468698D01*
X85807047Y-149857244D01*
X85725000Y-150269721D01*
X23520000Y-150269721D01*
X23520000Y-133269721D01*
X80725000Y-133269721D01*
X80725000Y-133690279D01*
X80807047Y-134102756D01*
X80967988Y-134491302D01*
X81201637Y-134840983D01*
X81499017Y-135138363D01*
X81848698Y-135372012D01*
X82237244Y-135532953D01*
X82649721Y-135615000D01*
X83070279Y-135615000D01*
X83482756Y-135532953D01*
X83871302Y-135372012D01*
X84220983Y-135138363D01*
X84518363Y-134840983D01*
X84752012Y-134491302D01*
X84912953Y-134102756D01*
X84995000Y-133690279D01*
X84995000Y-133269721D01*
X110725000Y-133269721D01*
X110725000Y-133690279D01*
X110807047Y-134102756D01*
X110967988Y-134491302D01*
X111201637Y-134840983D01*
X111499017Y-135138363D01*
X111848698Y-135372012D01*
X112237244Y-135532953D01*
X112649721Y-135615000D01*
X113070279Y-135615000D01*
X113482756Y-135532953D01*
X113871302Y-135372012D01*
X114220983Y-135138363D01*
X114518363Y-134840983D01*
X114752012Y-134491302D01*
X114912953Y-134102756D01*
X114995000Y-133690279D01*
X114995000Y-133269721D01*
X114912953Y-132857244D01*
X114752012Y-132468698D01*
X114518363Y-132119017D01*
X114220983Y-131821637D01*
X113871302Y-131587988D01*
X113482756Y-131427047D01*
X113070279Y-131345000D01*
X112649721Y-131345000D01*
X112237244Y-131427047D01*
X111848698Y-131587988D01*
X111499017Y-131821637D01*
X111201637Y-132119017D01*
X110967988Y-132468698D01*
X110807047Y-132857244D01*
X110725000Y-133269721D01*
X84995000Y-133269721D01*
X84912953Y-132857244D01*
X84752012Y-132468698D01*
X84518363Y-132119017D01*
X84220983Y-131821637D01*
X83871302Y-131587988D01*
X83482756Y-131427047D01*
X83070279Y-131345000D01*
X82649721Y-131345000D01*
X82237244Y-131427047D01*
X81848698Y-131587988D01*
X81499017Y-131821637D01*
X81201637Y-132119017D01*
X80967988Y-132468698D01*
X80807047Y-132857244D01*
X80725000Y-133269721D01*
X23520000Y-133269721D01*
X23520000Y-106588967D01*
X24225000Y-106588967D01*
X24225000Y-106911033D01*
X24287832Y-107226912D01*
X24411082Y-107524463D01*
X24590013Y-107792252D01*
X24817748Y-108019987D01*
X25085537Y-108198918D01*
X25383088Y-108322168D01*
X25698967Y-108385000D01*
X26021033Y-108385000D01*
X26336912Y-108322168D01*
X26634463Y-108198918D01*
X26902252Y-108019987D01*
X27129987Y-107792252D01*
X27308918Y-107524463D01*
X27432168Y-107226912D01*
X27495000Y-106911033D01*
X27495000Y-106588967D01*
X27432168Y-106273088D01*
X27308918Y-105975537D01*
X27129987Y-105707748D01*
X26902252Y-105480013D01*
X26634463Y-105301082D01*
X26336912Y-105177832D01*
X26021033Y-105115000D01*
X25698967Y-105115000D01*
X25383088Y-105177832D01*
X25085537Y-105301082D01*
X24817748Y-105480013D01*
X24590013Y-105707748D01*
X24411082Y-105975537D01*
X24287832Y-106273088D01*
X24225000Y-106588967D01*
X23520000Y-106588967D01*
X23520000Y-103880000D01*
X76631638Y-103880000D01*
X76635001Y-103914145D01*
X76635000Y-111465865D01*
X76631638Y-111500000D01*
X76645057Y-111636244D01*
X76684798Y-111767252D01*
X76749333Y-111887989D01*
X76836183Y-111993817D01*
X76942011Y-112080667D01*
X77062748Y-112145202D01*
X77193756Y-112184943D01*
X77330000Y-112198362D01*
X77364134Y-112195000D01*
X78295866Y-112195000D01*
X78330000Y-112198362D01*
X78466244Y-112184943D01*
X78597252Y-112145202D01*
X78717989Y-112080667D01*
X78823817Y-111993817D01*
X78910667Y-111887989D01*
X78975202Y-111767252D01*
X79014943Y-111636244D01*
X79025000Y-111534135D01*
X79025000Y-111534134D01*
X79028362Y-111500000D01*
X79025000Y-111465865D01*
X79025000Y-103914135D01*
X79028362Y-103880000D01*
X79014943Y-103743756D01*
X78975202Y-103612748D01*
X78910667Y-103492011D01*
X78823817Y-103386183D01*
X78717989Y-103299333D01*
X78597252Y-103234798D01*
X78466244Y-103195057D01*
X78364135Y-103185000D01*
X78364134Y-103185000D01*
X78330000Y-103181638D01*
X78295865Y-103185000D01*
X77364135Y-103185000D01*
X77330000Y-103181638D01*
X77295866Y-103185000D01*
X77295865Y-103185000D01*
X77193756Y-103195057D01*
X77062748Y-103234798D01*
X76942011Y-103299333D01*
X76836183Y-103386183D01*
X76749333Y-103492011D01*
X76684798Y-103612748D01*
X76645057Y-103743756D01*
X76631638Y-103880000D01*
X23520000Y-103880000D01*
X23520000Y-94910000D01*
X86601686Y-94910000D01*
X86605001Y-94943657D01*
X86605000Y-115876353D01*
X86601686Y-115910000D01*
X86614912Y-116044283D01*
X86654081Y-116173406D01*
X86717688Y-116292407D01*
X86803289Y-116396711D01*
X86907593Y-116482312D01*
X87026594Y-116545919D01*
X87155717Y-116585088D01*
X87290000Y-116598314D01*
X87323647Y-116595000D01*
X108256353Y-116595000D01*
X108290000Y-116598314D01*
X108424283Y-116585088D01*
X108553406Y-116545919D01*
X108672407Y-116482312D01*
X108776711Y-116396711D01*
X108862312Y-116292407D01*
X108925919Y-116173406D01*
X108965088Y-116044283D01*
X108975000Y-115943647D01*
X108975000Y-115943646D01*
X108978314Y-115910000D01*
X108975000Y-115876353D01*
X108975000Y-106588967D01*
X168225000Y-106588967D01*
X168225000Y-106911033D01*
X168287832Y-107226912D01*
X168411082Y-107524463D01*
X168590013Y-107792252D01*
X168817748Y-108019987D01*
X169085537Y-108198918D01*
X169383088Y-108322168D01*
X169698967Y-108385000D01*
X170021033Y-108385000D01*
X170336912Y-108322168D01*
X170634463Y-108198918D01*
X170902252Y-108019987D01*
X171129987Y-107792252D01*
X171308918Y-107524463D01*
X171432168Y-107226912D01*
X171495000Y-106911033D01*
X171495000Y-106588967D01*
X171432168Y-106273088D01*
X171308918Y-105975537D01*
X171129987Y-105707748D01*
X170902252Y-105480013D01*
X170634463Y-105301082D01*
X170336912Y-105177832D01*
X170021033Y-105115000D01*
X169698967Y-105115000D01*
X169383088Y-105177832D01*
X169085537Y-105301082D01*
X168817748Y-105480013D01*
X168590013Y-105707748D01*
X168411082Y-105975537D01*
X168287832Y-106273088D01*
X168225000Y-106588967D01*
X108975000Y-106588967D01*
X108975000Y-94943646D01*
X108978314Y-94910000D01*
X108965088Y-94775717D01*
X108925919Y-94646594D01*
X108862312Y-94527593D01*
X108776711Y-94423289D01*
X108672407Y-94337688D01*
X108553406Y-94274081D01*
X108424283Y-94234912D01*
X108323647Y-94225000D01*
X108290000Y-94221686D01*
X108256353Y-94225000D01*
X100975000Y-94225000D01*
X100975000Y-93838032D01*
X141698000Y-93838032D01*
X141698000Y-94233968D01*
X141775243Y-94622296D01*
X141926761Y-94988092D01*
X142146731Y-95317301D01*
X142426699Y-95597269D01*
X142755908Y-95817239D01*
X143121704Y-95968757D01*
X143510032Y-96046000D01*
X143905968Y-96046000D01*
X144294296Y-95968757D01*
X144660092Y-95817239D01*
X144989301Y-95597269D01*
X145269269Y-95317301D01*
X145489239Y-94988092D01*
X145640757Y-94622296D01*
X145718000Y-94233968D01*
X145718000Y-93838032D01*
X164698000Y-93838032D01*
X164698000Y-94233968D01*
X164775243Y-94622296D01*
X164926761Y-94988092D01*
X165146731Y-95317301D01*
X165426699Y-95597269D01*
X165755908Y-95817239D01*
X166121704Y-95968757D01*
X166510032Y-96046000D01*
X166905968Y-96046000D01*
X167294296Y-95968757D01*
X167660092Y-95817239D01*
X167989301Y-95597269D01*
X168269269Y-95317301D01*
X168489239Y-94988092D01*
X168640757Y-94622296D01*
X168718000Y-94233968D01*
X168718000Y-93838032D01*
X168640757Y-93449704D01*
X168489239Y-93083908D01*
X168269269Y-92754699D01*
X167989301Y-92474731D01*
X167660092Y-92254761D01*
X167294296Y-92103243D01*
X166905968Y-92026000D01*
X166510032Y-92026000D01*
X166121704Y-92103243D01*
X165755908Y-92254761D01*
X165426699Y-92474731D01*
X165146731Y-92754699D01*
X164926761Y-93083908D01*
X164775243Y-93449704D01*
X164698000Y-93838032D01*
X145718000Y-93838032D01*
X145640757Y-93449704D01*
X145489239Y-93083908D01*
X145269269Y-92754699D01*
X144989301Y-92474731D01*
X144660092Y-92254761D01*
X144294296Y-92103243D01*
X143905968Y-92026000D01*
X143510032Y-92026000D01*
X143121704Y-92103243D01*
X142755908Y-92254761D01*
X142426699Y-92474731D01*
X142146731Y-92754699D01*
X141926761Y-93083908D01*
X141775243Y-93449704D01*
X141698000Y-93838032D01*
X100975000Y-93838032D01*
X100975000Y-90943647D01*
X100978314Y-90910000D01*
X100965088Y-90775717D01*
X100925919Y-90646594D01*
X100862312Y-90527593D01*
X100776711Y-90423289D01*
X100672407Y-90337688D01*
X100553406Y-90274081D01*
X100424283Y-90234912D01*
X100323647Y-90225000D01*
X100290000Y-90221686D01*
X100256353Y-90225000D01*
X95323647Y-90225000D01*
X95290000Y-90221686D01*
X95256353Y-90225000D01*
X95155717Y-90234912D01*
X95026594Y-90274081D01*
X94907593Y-90337688D01*
X94803289Y-90423289D01*
X94717688Y-90527593D01*
X94654081Y-90646594D01*
X94614912Y-90775717D01*
X94601686Y-90910000D01*
X94605001Y-90943657D01*
X94605000Y-94225000D01*
X87323647Y-94225000D01*
X87290000Y-94221686D01*
X87256353Y-94225000D01*
X87155717Y-94234912D01*
X87026594Y-94274081D01*
X86907593Y-94337688D01*
X86803289Y-94423289D01*
X86717688Y-94527593D01*
X86654081Y-94646594D01*
X86614912Y-94775717D01*
X86601686Y-94910000D01*
X23520000Y-94910000D01*
X23520000Y-81149117D01*
X26765000Y-81149117D01*
X26765000Y-81490883D01*
X26831675Y-81826081D01*
X26962463Y-82141831D01*
X27152337Y-82425998D01*
X27394002Y-82667663D01*
X27678169Y-82857537D01*
X27993919Y-82988325D01*
X28329117Y-83055000D01*
X28670883Y-83055000D01*
X29006081Y-82988325D01*
X29321831Y-82857537D01*
X29605998Y-82667663D01*
X29847663Y-82425998D01*
X30037537Y-82141831D01*
X30168325Y-81826081D01*
X30235000Y-81490883D01*
X30235000Y-81149117D01*
X56765000Y-81149117D01*
X56765000Y-81490883D01*
X56831675Y-81826081D01*
X56962463Y-82141831D01*
X57152337Y-82425998D01*
X57394002Y-82667663D01*
X57678169Y-82857537D01*
X57993919Y-82988325D01*
X58329117Y-83055000D01*
X58670883Y-83055000D01*
X59006081Y-82988325D01*
X59321831Y-82857537D01*
X59605998Y-82667663D01*
X59847663Y-82425998D01*
X60037537Y-82141831D01*
X60168325Y-81826081D01*
X60235000Y-81490883D01*
X60235000Y-81149117D01*
X60168325Y-80813919D01*
X60037537Y-80498169D01*
X59847663Y-80214002D01*
X59605998Y-79972337D01*
X59321831Y-79782463D01*
X59006081Y-79651675D01*
X58670883Y-79585000D01*
X58329117Y-79585000D01*
X57993919Y-79651675D01*
X57678169Y-79782463D01*
X57394002Y-79972337D01*
X57152337Y-80214002D01*
X56962463Y-80498169D01*
X56831675Y-80813919D01*
X56765000Y-81149117D01*
X30235000Y-81149117D01*
X30168325Y-80813919D01*
X30037537Y-80498169D01*
X29847663Y-80214002D01*
X29605998Y-79972337D01*
X29321831Y-79782463D01*
X29006081Y-79651675D01*
X28670883Y-79585000D01*
X28329117Y-79585000D01*
X27993919Y-79651675D01*
X27678169Y-79782463D01*
X27394002Y-79972337D01*
X27152337Y-80214002D01*
X26962463Y-80498169D01*
X26831675Y-80813919D01*
X26765000Y-81149117D01*
X23520000Y-81149117D01*
X23520000Y-69149117D01*
X26765000Y-69149117D01*
X26765000Y-69490883D01*
X26831675Y-69826081D01*
X26962463Y-70141831D01*
X27152337Y-70425998D01*
X27394002Y-70667663D01*
X27678169Y-70857537D01*
X27993919Y-70988325D01*
X28329117Y-71055000D01*
X28670883Y-71055000D01*
X29006081Y-70988325D01*
X29321831Y-70857537D01*
X29605998Y-70667663D01*
X29847663Y-70425998D01*
X30037537Y-70141831D01*
X30168325Y-69826081D01*
X30235000Y-69490883D01*
X30235000Y-69149117D01*
X30168325Y-68813919D01*
X30037537Y-68498169D01*
X29847663Y-68214002D01*
X29605998Y-67972337D01*
X29321831Y-67782463D01*
X29006081Y-67651675D01*
X28670883Y-67585000D01*
X28329117Y-67585000D01*
X27993919Y-67651675D01*
X27678169Y-67782463D01*
X27394002Y-67972337D01*
X27152337Y-68214002D01*
X26962463Y-68498169D01*
X26831675Y-68813919D01*
X26765000Y-69149117D01*
X23520000Y-69149117D01*
X23520000Y-43269721D01*
X80725000Y-43269721D01*
X80725000Y-43690279D01*
X80807047Y-44102756D01*
X80967988Y-44491302D01*
X81201637Y-44840983D01*
X81499017Y-45138363D01*
X81848698Y-45372012D01*
X82237244Y-45532953D01*
X82649721Y-45615000D01*
X83070279Y-45615000D01*
X83482756Y-45532953D01*
X83871302Y-45372012D01*
X84220983Y-45138363D01*
X84518363Y-44840983D01*
X84752012Y-44491302D01*
X84912953Y-44102756D01*
X84995000Y-43690279D01*
X84995000Y-43269721D01*
X110725000Y-43269721D01*
X110725000Y-43690279D01*
X110807047Y-44102756D01*
X110967988Y-44491302D01*
X111201637Y-44840983D01*
X111499017Y-45138363D01*
X111848698Y-45372012D01*
X112237244Y-45532953D01*
X112649721Y-45615000D01*
X113070279Y-45615000D01*
X113482756Y-45532953D01*
X113871302Y-45372012D01*
X114220983Y-45138363D01*
X114518363Y-44840983D01*
X114752012Y-44491302D01*
X114912953Y-44102756D01*
X114995000Y-43690279D01*
X114995000Y-43269721D01*
X114912953Y-42857244D01*
X114752012Y-42468698D01*
X114518363Y-42119017D01*
X114220983Y-41821637D01*
X113871302Y-41587988D01*
X113482756Y-41427047D01*
X113070279Y-41345000D01*
X112649721Y-41345000D01*
X112237244Y-41427047D01*
X111848698Y-41587988D01*
X111499017Y-41821637D01*
X111201637Y-42119017D01*
X110967988Y-42468698D01*
X110807047Y-42857244D01*
X110725000Y-43269721D01*
X84995000Y-43269721D01*
X84912953Y-42857244D01*
X84752012Y-42468698D01*
X84518363Y-42119017D01*
X84220983Y-41821637D01*
X83871302Y-41587988D01*
X83482756Y-41427047D01*
X83070279Y-41345000D01*
X82649721Y-41345000D01*
X82237244Y-41427047D01*
X81848698Y-41587988D01*
X81499017Y-41821637D01*
X81201637Y-42119017D01*
X80967988Y-42468698D01*
X80807047Y-42857244D01*
X80725000Y-43269721D01*
X23520000Y-43269721D01*
X23520000Y-34588967D01*
X96225000Y-34588967D01*
X96225000Y-34911033D01*
X96287832Y-35226912D01*
X96411082Y-35524463D01*
X96590013Y-35792252D01*
X96817748Y-36019987D01*
X97085537Y-36198918D01*
X97383088Y-36322168D01*
X97698967Y-36385000D01*
X98021033Y-36385000D01*
X98336912Y-36322168D01*
X98634463Y-36198918D01*
X98902252Y-36019987D01*
X99084207Y-35838032D01*
X141698000Y-35838032D01*
X141698000Y-36233968D01*
X141775243Y-36622296D01*
X141926761Y-36988092D01*
X142146731Y-37317301D01*
X142426699Y-37597269D01*
X142755908Y-37817239D01*
X143121704Y-37968757D01*
X143510032Y-38046000D01*
X143905968Y-38046000D01*
X144294296Y-37968757D01*
X144660092Y-37817239D01*
X144989301Y-37597269D01*
X145269269Y-37317301D01*
X145489239Y-36988092D01*
X145640757Y-36622296D01*
X145718000Y-36233968D01*
X145718000Y-35838032D01*
X164698000Y-35838032D01*
X164698000Y-36233968D01*
X164775243Y-36622296D01*
X164926761Y-36988092D01*
X165146731Y-37317301D01*
X165426699Y-37597269D01*
X165755908Y-37817239D01*
X166121704Y-37968757D01*
X166510032Y-38046000D01*
X166905968Y-38046000D01*
X167294296Y-37968757D01*
X167660092Y-37817239D01*
X167989301Y-37597269D01*
X168269269Y-37317301D01*
X168489239Y-36988092D01*
X168640757Y-36622296D01*
X168718000Y-36233968D01*
X168718000Y-35838032D01*
X168640757Y-35449704D01*
X168489239Y-35083908D01*
X168269269Y-34754699D01*
X167989301Y-34474731D01*
X167660092Y-34254761D01*
X167294296Y-34103243D01*
X166905968Y-34026000D01*
X166510032Y-34026000D01*
X166121704Y-34103243D01*
X165755908Y-34254761D01*
X165426699Y-34474731D01*
X165146731Y-34754699D01*
X164926761Y-35083908D01*
X164775243Y-35449704D01*
X164698000Y-35838032D01*
X145718000Y-35838032D01*
X145640757Y-35449704D01*
X145489239Y-35083908D01*
X145269269Y-34754699D01*
X144989301Y-34474731D01*
X144660092Y-34254761D01*
X144294296Y-34103243D01*
X143905968Y-34026000D01*
X143510032Y-34026000D01*
X143121704Y-34103243D01*
X142755908Y-34254761D01*
X142426699Y-34474731D01*
X142146731Y-34754699D01*
X141926761Y-35083908D01*
X141775243Y-35449704D01*
X141698000Y-35838032D01*
X99084207Y-35838032D01*
X99129987Y-35792252D01*
X99308918Y-35524463D01*
X99432168Y-35226912D01*
X99495000Y-34911033D01*
X99495000Y-34588967D01*
X99432168Y-34273088D01*
X99308918Y-33975537D01*
X99129987Y-33707748D01*
X98902252Y-33480013D01*
X98634463Y-33301082D01*
X98336912Y-33177832D01*
X98021033Y-33115000D01*
X97698967Y-33115000D01*
X97383088Y-33177832D01*
X97085537Y-33301082D01*
X96817748Y-33480013D01*
X96590013Y-33707748D01*
X96411082Y-33975537D01*
X96287832Y-34273088D01*
X96225000Y-34588967D01*
X23520000Y-34588967D01*
X23520000Y-31140000D01*
X171873000Y-31140000D01*
X171873000Y-179820000D01*
M02*
