G04 #@! TF.GenerationSoftware,KiCad,Pcbnew,(5.1.2)-1*
G04 #@! TF.CreationDate,2019-05-29T15:36:19-07:00*
G04 #@! TF.ProjectId,backplane,6261636b-706c-4616-9e65-2e6b69636164,v1.1*
G04 #@! TF.SameCoordinates,Original*
G04 #@! TF.FileFunction,Soldermask,Bot*
G04 #@! TF.FilePolarity,Negative*
%FSLAX46Y46*%
G04 Gerber Fmt 4.6, Leading zero omitted, Abs format (unit mm)*
G04 Created by KiCad (PCBNEW (5.1.2)-1) date 2019-05-29 15:36:19*
%MOMM*%
%LPD*%
G04 APERTURE LIST*
%ADD10C,0.100000*%
G04 APERTURE END LIST*
D10*
G36*
X159931552Y-174566331D02*
G01*
X160013627Y-174600328D01*
X160013629Y-174600329D01*
X160050813Y-174625175D01*
X160087495Y-174649685D01*
X160150315Y-174712505D01*
X160199672Y-174786373D01*
X160233669Y-174868448D01*
X160251000Y-174955579D01*
X160251000Y-175044421D01*
X160233669Y-175131552D01*
X160199672Y-175213627D01*
X160199671Y-175213629D01*
X160150314Y-175287496D01*
X160087496Y-175350314D01*
X160013629Y-175399671D01*
X160013628Y-175399672D01*
X160013627Y-175399672D01*
X159931552Y-175433669D01*
X159844421Y-175451000D01*
X159755579Y-175451000D01*
X159668448Y-175433669D01*
X159586373Y-175399672D01*
X159586372Y-175399672D01*
X159586371Y-175399671D01*
X159512504Y-175350314D01*
X159449686Y-175287496D01*
X159400329Y-175213629D01*
X159400328Y-175213627D01*
X159366331Y-175131552D01*
X159349000Y-175044421D01*
X159349000Y-174955579D01*
X159366331Y-174868448D01*
X159400328Y-174786373D01*
X159449685Y-174712505D01*
X159512505Y-174649685D01*
X159549187Y-174625175D01*
X159586371Y-174600329D01*
X159586373Y-174600328D01*
X159668448Y-174566331D01*
X159755579Y-174549000D01*
X159844421Y-174549000D01*
X159931552Y-174566331D01*
X159931552Y-174566331D01*
G37*
G36*
X158131552Y-174566331D02*
G01*
X158213627Y-174600328D01*
X158213629Y-174600329D01*
X158250813Y-174625175D01*
X158287495Y-174649685D01*
X158350315Y-174712505D01*
X158399672Y-174786373D01*
X158433669Y-174868448D01*
X158451000Y-174955579D01*
X158451000Y-175044421D01*
X158433669Y-175131552D01*
X158399672Y-175213627D01*
X158399671Y-175213629D01*
X158350314Y-175287496D01*
X158287496Y-175350314D01*
X158213629Y-175399671D01*
X158213628Y-175399672D01*
X158213627Y-175399672D01*
X158131552Y-175433669D01*
X158044421Y-175451000D01*
X157955579Y-175451000D01*
X157868448Y-175433669D01*
X157786373Y-175399672D01*
X157786372Y-175399672D01*
X157786371Y-175399671D01*
X157712504Y-175350314D01*
X157649686Y-175287496D01*
X157600329Y-175213629D01*
X157600328Y-175213627D01*
X157566331Y-175131552D01*
X157549000Y-175044421D01*
X157549000Y-174955579D01*
X157566331Y-174868448D01*
X157600328Y-174786373D01*
X157649685Y-174712505D01*
X157712505Y-174649685D01*
X157749187Y-174625175D01*
X157786371Y-174600329D01*
X157786373Y-174600328D01*
X157868448Y-174566331D01*
X157955579Y-174549000D01*
X158044421Y-174549000D01*
X158131552Y-174566331D01*
X158131552Y-174566331D01*
G37*
M02*
