G04 #@! TF.GenerationSoftware,KiCad,Pcbnew,(5.1.2)-1*
G04 #@! TF.CreationDate,2019-05-01T12:01:49-07:00*
G04 #@! TF.ProjectId,backplane,6261636b-706c-4616-9e65-2e6b69636164,rev?*
G04 #@! TF.SameCoordinates,Original*
G04 #@! TF.FileFunction,Copper,L2,Bot*
G04 #@! TF.FilePolarity,Positive*
%FSLAX46Y46*%
G04 Gerber Fmt 4.6, Leading zero omitted, Abs format (unit mm)*
G04 Created by KiCad (PCBNEW (5.1.2)-1) date 2019-05-01 12:01:49*
%MOMM*%
%LPD*%
G04 APERTURE LIST*
%ADD10C,1.524000*%
%ADD11C,3.000000*%
%ADD12C,2.500000*%
%ADD13R,17.762300X1.209380*%
%ADD14C,0.254000*%
G04 APERTURE END LIST*
D10*
X136860000Y-116997310D03*
X118860000Y-116997310D03*
D11*
X87860000Y-150480000D03*
X107860000Y-150480000D03*
X107860000Y-170480000D03*
X87860000Y-170480000D03*
D12*
X144260000Y-125080000D03*
X144260000Y-92880000D03*
X158460000Y-92880000D03*
X158460000Y-125080000D03*
X79960000Y-53580000D03*
X79960000Y-80380000D03*
X141760000Y-53580000D03*
X141760000Y-80380000D03*
D11*
X82860000Y-43480000D03*
X112860000Y-43480000D03*
X112860000Y-133480000D03*
X82860000Y-133480000D03*
D13*
X128386150Y-116840000D03*
D14*
G36*
X168820197Y-34200197D02*
G01*
X168804403Y-34219443D01*
X168792667Y-34241399D01*
X168785440Y-34265224D01*
X168783000Y-34290000D01*
X168785440Y-34314776D01*
X168792667Y-34338601D01*
X168804403Y-34360557D01*
X168820197Y-34379803D01*
X168839443Y-34395597D01*
X168861399Y-34407333D01*
X168885224Y-34414560D01*
X168910000Y-34417000D01*
X168934776Y-34414560D01*
X168958601Y-34407333D01*
X168980557Y-34395597D01*
X168999803Y-34379803D01*
X171323000Y-32056606D01*
X171323000Y-178943000D01*
X24257000Y-178943000D01*
X24257000Y-170269721D01*
X85725000Y-170269721D01*
X85725000Y-170690279D01*
X85807047Y-171102756D01*
X85967988Y-171491302D01*
X86201637Y-171840983D01*
X86499017Y-172138363D01*
X86848698Y-172372012D01*
X87237244Y-172532953D01*
X87649721Y-172615000D01*
X88070279Y-172615000D01*
X88482756Y-172532953D01*
X88871302Y-172372012D01*
X89220983Y-172138363D01*
X89518363Y-171840983D01*
X89752012Y-171491302D01*
X89912953Y-171102756D01*
X89995000Y-170690279D01*
X89995000Y-170269721D01*
X105725000Y-170269721D01*
X105725000Y-170690279D01*
X105807047Y-171102756D01*
X105967988Y-171491302D01*
X106201637Y-171840983D01*
X106499017Y-172138363D01*
X106848698Y-172372012D01*
X107237244Y-172532953D01*
X107649721Y-172615000D01*
X108070279Y-172615000D01*
X108482756Y-172532953D01*
X108871302Y-172372012D01*
X109220983Y-172138363D01*
X109518363Y-171840983D01*
X109752012Y-171491302D01*
X109912953Y-171102756D01*
X109995000Y-170690279D01*
X109995000Y-170269721D01*
X109912953Y-169857244D01*
X109752012Y-169468698D01*
X109518363Y-169119017D01*
X109220983Y-168821637D01*
X108871302Y-168587988D01*
X108482756Y-168427047D01*
X108070279Y-168345000D01*
X107649721Y-168345000D01*
X107237244Y-168427047D01*
X106848698Y-168587988D01*
X106499017Y-168821637D01*
X106201637Y-169119017D01*
X105967988Y-169468698D01*
X105807047Y-169857244D01*
X105725000Y-170269721D01*
X89995000Y-170269721D01*
X89912953Y-169857244D01*
X89752012Y-169468698D01*
X89518363Y-169119017D01*
X89220983Y-168821637D01*
X88871302Y-168587988D01*
X88482756Y-168427047D01*
X88070279Y-168345000D01*
X87649721Y-168345000D01*
X87237244Y-168427047D01*
X86848698Y-168587988D01*
X86499017Y-168821637D01*
X86201637Y-169119017D01*
X85967988Y-169468698D01*
X85807047Y-169857244D01*
X85725000Y-170269721D01*
X24257000Y-170269721D01*
X24257000Y-150269721D01*
X85725000Y-150269721D01*
X85725000Y-150690279D01*
X85807047Y-151102756D01*
X85967988Y-151491302D01*
X86201637Y-151840983D01*
X86499017Y-152138363D01*
X86848698Y-152372012D01*
X87237244Y-152532953D01*
X87649721Y-152615000D01*
X88070279Y-152615000D01*
X88482756Y-152532953D01*
X88871302Y-152372012D01*
X89220983Y-152138363D01*
X89518363Y-151840983D01*
X89752012Y-151491302D01*
X89912953Y-151102756D01*
X89995000Y-150690279D01*
X89995000Y-150269721D01*
X105725000Y-150269721D01*
X105725000Y-150690279D01*
X105807047Y-151102756D01*
X105967988Y-151491302D01*
X106201637Y-151840983D01*
X106499017Y-152138363D01*
X106848698Y-152372012D01*
X107237244Y-152532953D01*
X107649721Y-152615000D01*
X108070279Y-152615000D01*
X108482756Y-152532953D01*
X108871302Y-152372012D01*
X109220983Y-152138363D01*
X109518363Y-151840983D01*
X109752012Y-151491302D01*
X109912953Y-151102756D01*
X109995000Y-150690279D01*
X109995000Y-150269721D01*
X109912953Y-149857244D01*
X109752012Y-149468698D01*
X109518363Y-149119017D01*
X109220983Y-148821637D01*
X108871302Y-148587988D01*
X108482756Y-148427047D01*
X108070279Y-148345000D01*
X107649721Y-148345000D01*
X107237244Y-148427047D01*
X106848698Y-148587988D01*
X106499017Y-148821637D01*
X106201637Y-149119017D01*
X105967988Y-149468698D01*
X105807047Y-149857244D01*
X105725000Y-150269721D01*
X89995000Y-150269721D01*
X89912953Y-149857244D01*
X89752012Y-149468698D01*
X89518363Y-149119017D01*
X89220983Y-148821637D01*
X88871302Y-148587988D01*
X88482756Y-148427047D01*
X88070279Y-148345000D01*
X87649721Y-148345000D01*
X87237244Y-148427047D01*
X86848698Y-148587988D01*
X86499017Y-148821637D01*
X86201637Y-149119017D01*
X85967988Y-149468698D01*
X85807047Y-149857244D01*
X85725000Y-150269721D01*
X24257000Y-150269721D01*
X24257000Y-133269721D01*
X80725000Y-133269721D01*
X80725000Y-133690279D01*
X80807047Y-134102756D01*
X80967988Y-134491302D01*
X81201637Y-134840983D01*
X81499017Y-135138363D01*
X81848698Y-135372012D01*
X82237244Y-135532953D01*
X82649721Y-135615000D01*
X83070279Y-135615000D01*
X83482756Y-135532953D01*
X83871302Y-135372012D01*
X84220983Y-135138363D01*
X84518363Y-134840983D01*
X84752012Y-134491302D01*
X84912953Y-134102756D01*
X84995000Y-133690279D01*
X84995000Y-133269721D01*
X110725000Y-133269721D01*
X110725000Y-133690279D01*
X110807047Y-134102756D01*
X110967988Y-134491302D01*
X111201637Y-134840983D01*
X111499017Y-135138363D01*
X111848698Y-135372012D01*
X112237244Y-135532953D01*
X112649721Y-135615000D01*
X113070279Y-135615000D01*
X113482756Y-135532953D01*
X113871302Y-135372012D01*
X114220983Y-135138363D01*
X114518363Y-134840983D01*
X114752012Y-134491302D01*
X114912953Y-134102756D01*
X114995000Y-133690279D01*
X114995000Y-133269721D01*
X114912953Y-132857244D01*
X114752012Y-132468698D01*
X114518363Y-132119017D01*
X114220983Y-131821637D01*
X113871302Y-131587988D01*
X113482756Y-131427047D01*
X113070279Y-131345000D01*
X112649721Y-131345000D01*
X112237244Y-131427047D01*
X111848698Y-131587988D01*
X111499017Y-131821637D01*
X111201637Y-132119017D01*
X110967988Y-132468698D01*
X110807047Y-132857244D01*
X110725000Y-133269721D01*
X84995000Y-133269721D01*
X84912953Y-132857244D01*
X84752012Y-132468698D01*
X84518363Y-132119017D01*
X84220983Y-131821637D01*
X83871302Y-131587988D01*
X83482756Y-131427047D01*
X83070279Y-131345000D01*
X82649721Y-131345000D01*
X82237244Y-131427047D01*
X81848698Y-131587988D01*
X81499017Y-131821637D01*
X81201637Y-132119017D01*
X80967988Y-132468698D01*
X80807047Y-132857244D01*
X80725000Y-133269721D01*
X24257000Y-133269721D01*
X24257000Y-94980000D01*
X86671686Y-94980000D01*
X86675001Y-95013657D01*
X86675000Y-115946353D01*
X86671686Y-115980000D01*
X86684912Y-116114283D01*
X86724081Y-116243406D01*
X86787688Y-116362407D01*
X86873289Y-116466711D01*
X86977593Y-116552312D01*
X87096594Y-116615919D01*
X87225717Y-116655088D01*
X87360000Y-116668314D01*
X87393647Y-116665000D01*
X106716420Y-116665000D01*
X106716420Y-117444690D01*
X106962149Y-119939618D01*
X107689893Y-122338668D01*
X108871684Y-124549644D01*
X110462108Y-126487582D01*
X112400046Y-128078006D01*
X114611022Y-129259797D01*
X117010072Y-129987541D01*
X119505000Y-130233270D01*
X137267300Y-130233270D01*
X139762228Y-129987541D01*
X142161278Y-129259797D01*
X144372254Y-128078006D01*
X146310192Y-126487582D01*
X147617728Y-124894344D01*
X156575000Y-124894344D01*
X156575000Y-125265656D01*
X156647439Y-125629834D01*
X156789534Y-125972882D01*
X156995825Y-126281618D01*
X157258382Y-126544175D01*
X157567118Y-126750466D01*
X157910166Y-126892561D01*
X158274344Y-126965000D01*
X158645656Y-126965000D01*
X159009834Y-126892561D01*
X159352882Y-126750466D01*
X159661618Y-126544175D01*
X159924175Y-126281618D01*
X160130466Y-125972882D01*
X160272561Y-125629834D01*
X160345000Y-125265656D01*
X160345000Y-124894344D01*
X160272561Y-124530166D01*
X160130466Y-124187118D01*
X159924175Y-123878382D01*
X159661618Y-123615825D01*
X159352882Y-123409534D01*
X159009834Y-123267439D01*
X158645656Y-123195000D01*
X158274344Y-123195000D01*
X157910166Y-123267439D01*
X157567118Y-123409534D01*
X157258382Y-123615825D01*
X156995825Y-123878382D01*
X156789534Y-124187118D01*
X156647439Y-124530166D01*
X156575000Y-124894344D01*
X147617728Y-124894344D01*
X147900616Y-124549644D01*
X149082407Y-122338668D01*
X149810151Y-119939618D01*
X150055880Y-117444690D01*
X150055880Y-116235310D01*
X149810151Y-113740382D01*
X149082407Y-111341332D01*
X147900616Y-109130356D01*
X146310192Y-107192418D01*
X144372254Y-105601994D01*
X142161278Y-104420203D01*
X139762228Y-103692459D01*
X137267300Y-103446730D01*
X119505000Y-103446730D01*
X117010072Y-103692459D01*
X114611022Y-104420203D01*
X112400046Y-105601994D01*
X110462108Y-107192418D01*
X109045000Y-108919170D01*
X109045000Y-95013646D01*
X109048314Y-94980000D01*
X109035088Y-94845717D01*
X108995919Y-94716594D01*
X108932312Y-94597593D01*
X108846711Y-94493289D01*
X108742407Y-94407688D01*
X108623406Y-94344081D01*
X108494283Y-94304912D01*
X108393647Y-94295000D01*
X108360000Y-94291686D01*
X108326353Y-94295000D01*
X101045000Y-94295000D01*
X101045000Y-92694344D01*
X142375000Y-92694344D01*
X142375000Y-93065656D01*
X142447439Y-93429834D01*
X142589534Y-93772882D01*
X142795825Y-94081618D01*
X143058382Y-94344175D01*
X143367118Y-94550466D01*
X143710166Y-94692561D01*
X144074344Y-94765000D01*
X144445656Y-94765000D01*
X144809834Y-94692561D01*
X145152882Y-94550466D01*
X145461618Y-94344175D01*
X145724175Y-94081618D01*
X145930466Y-93772882D01*
X146072561Y-93429834D01*
X146145000Y-93065656D01*
X146145000Y-92694344D01*
X156575000Y-92694344D01*
X156575000Y-93065656D01*
X156647439Y-93429834D01*
X156789534Y-93772882D01*
X156995825Y-94081618D01*
X157258382Y-94344175D01*
X157567118Y-94550466D01*
X157910166Y-94692561D01*
X158274344Y-94765000D01*
X158645656Y-94765000D01*
X159009834Y-94692561D01*
X159352882Y-94550466D01*
X159661618Y-94344175D01*
X159924175Y-94081618D01*
X160130466Y-93772882D01*
X160272561Y-93429834D01*
X160345000Y-93065656D01*
X160345000Y-92694344D01*
X160272561Y-92330166D01*
X160130466Y-91987118D01*
X159924175Y-91678382D01*
X159661618Y-91415825D01*
X159352882Y-91209534D01*
X159009834Y-91067439D01*
X158645656Y-90995000D01*
X158274344Y-90995000D01*
X157910166Y-91067439D01*
X157567118Y-91209534D01*
X157258382Y-91415825D01*
X156995825Y-91678382D01*
X156789534Y-91987118D01*
X156647439Y-92330166D01*
X156575000Y-92694344D01*
X146145000Y-92694344D01*
X146072561Y-92330166D01*
X145930466Y-91987118D01*
X145724175Y-91678382D01*
X145461618Y-91415825D01*
X145152882Y-91209534D01*
X144809834Y-91067439D01*
X144445656Y-90995000D01*
X144074344Y-90995000D01*
X143710166Y-91067439D01*
X143367118Y-91209534D01*
X143058382Y-91415825D01*
X142795825Y-91678382D01*
X142589534Y-91987118D01*
X142447439Y-92330166D01*
X142375000Y-92694344D01*
X101045000Y-92694344D01*
X101045000Y-91013647D01*
X101048314Y-90980000D01*
X101035088Y-90845717D01*
X100995919Y-90716594D01*
X100932312Y-90597593D01*
X100846711Y-90493289D01*
X100742407Y-90407688D01*
X100623406Y-90344081D01*
X100494283Y-90304912D01*
X100393647Y-90295000D01*
X100360000Y-90291686D01*
X100326353Y-90295000D01*
X95393647Y-90295000D01*
X95360000Y-90291686D01*
X95326353Y-90295000D01*
X95225717Y-90304912D01*
X95096594Y-90344081D01*
X94977593Y-90407688D01*
X94873289Y-90493289D01*
X94787688Y-90597593D01*
X94724081Y-90716594D01*
X94684912Y-90845717D01*
X94671686Y-90980000D01*
X94675001Y-91013657D01*
X94675000Y-94295000D01*
X87393647Y-94295000D01*
X87360000Y-94291686D01*
X87326353Y-94295000D01*
X87225717Y-94304912D01*
X87096594Y-94344081D01*
X86977593Y-94407688D01*
X86873289Y-94493289D01*
X86787688Y-94597593D01*
X86724081Y-94716594D01*
X86684912Y-94845717D01*
X86671686Y-94980000D01*
X24257000Y-94980000D01*
X24257000Y-80194344D01*
X78075000Y-80194344D01*
X78075000Y-80565656D01*
X78147439Y-80929834D01*
X78289534Y-81272882D01*
X78495825Y-81581618D01*
X78758382Y-81844175D01*
X79067118Y-82050466D01*
X79410166Y-82192561D01*
X79774344Y-82265000D01*
X80145656Y-82265000D01*
X80509834Y-82192561D01*
X80852882Y-82050466D01*
X81161618Y-81844175D01*
X81424175Y-81581618D01*
X81630466Y-81272882D01*
X81772561Y-80929834D01*
X81845000Y-80565656D01*
X81845000Y-80194344D01*
X139875000Y-80194344D01*
X139875000Y-80565656D01*
X139947439Y-80929834D01*
X140089534Y-81272882D01*
X140295825Y-81581618D01*
X140558382Y-81844175D01*
X140867118Y-82050466D01*
X141210166Y-82192561D01*
X141574344Y-82265000D01*
X141945656Y-82265000D01*
X142309834Y-82192561D01*
X142652882Y-82050466D01*
X142961618Y-81844175D01*
X143224175Y-81581618D01*
X143430466Y-81272882D01*
X143572561Y-80929834D01*
X143645000Y-80565656D01*
X143645000Y-80194344D01*
X143572561Y-79830166D01*
X143430466Y-79487118D01*
X143224175Y-79178382D01*
X142961618Y-78915825D01*
X142652882Y-78709534D01*
X142309834Y-78567439D01*
X141945656Y-78495000D01*
X141574344Y-78495000D01*
X141210166Y-78567439D01*
X140867118Y-78709534D01*
X140558382Y-78915825D01*
X140295825Y-79178382D01*
X140089534Y-79487118D01*
X139947439Y-79830166D01*
X139875000Y-80194344D01*
X81845000Y-80194344D01*
X81772561Y-79830166D01*
X81630466Y-79487118D01*
X81424175Y-79178382D01*
X81161618Y-78915825D01*
X80852882Y-78709534D01*
X80509834Y-78567439D01*
X80145656Y-78495000D01*
X79774344Y-78495000D01*
X79410166Y-78567439D01*
X79067118Y-78709534D01*
X78758382Y-78915825D01*
X78495825Y-79178382D01*
X78289534Y-79487118D01*
X78147439Y-79830166D01*
X78075000Y-80194344D01*
X24257000Y-80194344D01*
X24257000Y-53394344D01*
X78075000Y-53394344D01*
X78075000Y-53765656D01*
X78147439Y-54129834D01*
X78289534Y-54472882D01*
X78495825Y-54781618D01*
X78758382Y-55044175D01*
X79067118Y-55250466D01*
X79410166Y-55392561D01*
X79774344Y-55465000D01*
X80145656Y-55465000D01*
X80509834Y-55392561D01*
X80852882Y-55250466D01*
X81161618Y-55044175D01*
X81424175Y-54781618D01*
X81630466Y-54472882D01*
X81772561Y-54129834D01*
X81845000Y-53765656D01*
X81845000Y-53394344D01*
X139875000Y-53394344D01*
X139875000Y-53765656D01*
X139947439Y-54129834D01*
X140089534Y-54472882D01*
X140295825Y-54781618D01*
X140558382Y-55044175D01*
X140867118Y-55250466D01*
X141210166Y-55392561D01*
X141574344Y-55465000D01*
X141945656Y-55465000D01*
X142309834Y-55392561D01*
X142652882Y-55250466D01*
X142961618Y-55044175D01*
X143224175Y-54781618D01*
X143430466Y-54472882D01*
X143572561Y-54129834D01*
X143645000Y-53765656D01*
X143645000Y-53394344D01*
X143572561Y-53030166D01*
X143430466Y-52687118D01*
X143224175Y-52378382D01*
X142961618Y-52115825D01*
X142652882Y-51909534D01*
X142309834Y-51767439D01*
X141945656Y-51695000D01*
X141574344Y-51695000D01*
X141210166Y-51767439D01*
X140867118Y-51909534D01*
X140558382Y-52115825D01*
X140295825Y-52378382D01*
X140089534Y-52687118D01*
X139947439Y-53030166D01*
X139875000Y-53394344D01*
X81845000Y-53394344D01*
X81772561Y-53030166D01*
X81630466Y-52687118D01*
X81424175Y-52378382D01*
X81161618Y-52115825D01*
X80852882Y-51909534D01*
X80509834Y-51767439D01*
X80145656Y-51695000D01*
X79774344Y-51695000D01*
X79410166Y-51767439D01*
X79067118Y-51909534D01*
X78758382Y-52115825D01*
X78495825Y-52378382D01*
X78289534Y-52687118D01*
X78147439Y-53030166D01*
X78075000Y-53394344D01*
X24257000Y-53394344D01*
X24257000Y-43269721D01*
X80725000Y-43269721D01*
X80725000Y-43690279D01*
X80807047Y-44102756D01*
X80967988Y-44491302D01*
X81201637Y-44840983D01*
X81499017Y-45138363D01*
X81848698Y-45372012D01*
X82237244Y-45532953D01*
X82649721Y-45615000D01*
X83070279Y-45615000D01*
X83482756Y-45532953D01*
X83871302Y-45372012D01*
X84220983Y-45138363D01*
X84518363Y-44840983D01*
X84752012Y-44491302D01*
X84912953Y-44102756D01*
X84995000Y-43690279D01*
X84995000Y-43269721D01*
X110725000Y-43269721D01*
X110725000Y-43690279D01*
X110807047Y-44102756D01*
X110967988Y-44491302D01*
X111201637Y-44840983D01*
X111499017Y-45138363D01*
X111848698Y-45372012D01*
X112237244Y-45532953D01*
X112649721Y-45615000D01*
X113070279Y-45615000D01*
X113482756Y-45532953D01*
X113871302Y-45372012D01*
X114220983Y-45138363D01*
X114518363Y-44840983D01*
X114752012Y-44491302D01*
X114912953Y-44102756D01*
X114995000Y-43690279D01*
X114995000Y-43269721D01*
X114912953Y-42857244D01*
X114752012Y-42468698D01*
X114518363Y-42119017D01*
X114220983Y-41821637D01*
X113871302Y-41587988D01*
X113482756Y-41427047D01*
X113070279Y-41345000D01*
X112649721Y-41345000D01*
X112237244Y-41427047D01*
X111848698Y-41587988D01*
X111499017Y-41821637D01*
X111201637Y-42119017D01*
X110967988Y-42468698D01*
X110807047Y-42857244D01*
X110725000Y-43269721D01*
X84995000Y-43269721D01*
X84912953Y-42857244D01*
X84752012Y-42468698D01*
X84518363Y-42119017D01*
X84220983Y-41821637D01*
X83871302Y-41587988D01*
X83482756Y-41427047D01*
X83070279Y-41345000D01*
X82649721Y-41345000D01*
X82237244Y-41427047D01*
X81848698Y-41587988D01*
X81499017Y-41821637D01*
X81201637Y-42119017D01*
X80967988Y-42468698D01*
X80807047Y-42857244D01*
X80725000Y-43269721D01*
X24257000Y-43269721D01*
X24257000Y-31877000D01*
X171143394Y-31877000D01*
X168820197Y-34200197D01*
X168820197Y-34200197D01*
G37*
X168820197Y-34200197D02*
X168804403Y-34219443D01*
X168792667Y-34241399D01*
X168785440Y-34265224D01*
X168783000Y-34290000D01*
X168785440Y-34314776D01*
X168792667Y-34338601D01*
X168804403Y-34360557D01*
X168820197Y-34379803D01*
X168839443Y-34395597D01*
X168861399Y-34407333D01*
X168885224Y-34414560D01*
X168910000Y-34417000D01*
X168934776Y-34414560D01*
X168958601Y-34407333D01*
X168980557Y-34395597D01*
X168999803Y-34379803D01*
X171323000Y-32056606D01*
X171323000Y-178943000D01*
X24257000Y-178943000D01*
X24257000Y-170269721D01*
X85725000Y-170269721D01*
X85725000Y-170690279D01*
X85807047Y-171102756D01*
X85967988Y-171491302D01*
X86201637Y-171840983D01*
X86499017Y-172138363D01*
X86848698Y-172372012D01*
X87237244Y-172532953D01*
X87649721Y-172615000D01*
X88070279Y-172615000D01*
X88482756Y-172532953D01*
X88871302Y-172372012D01*
X89220983Y-172138363D01*
X89518363Y-171840983D01*
X89752012Y-171491302D01*
X89912953Y-171102756D01*
X89995000Y-170690279D01*
X89995000Y-170269721D01*
X105725000Y-170269721D01*
X105725000Y-170690279D01*
X105807047Y-171102756D01*
X105967988Y-171491302D01*
X106201637Y-171840983D01*
X106499017Y-172138363D01*
X106848698Y-172372012D01*
X107237244Y-172532953D01*
X107649721Y-172615000D01*
X108070279Y-172615000D01*
X108482756Y-172532953D01*
X108871302Y-172372012D01*
X109220983Y-172138363D01*
X109518363Y-171840983D01*
X109752012Y-171491302D01*
X109912953Y-171102756D01*
X109995000Y-170690279D01*
X109995000Y-170269721D01*
X109912953Y-169857244D01*
X109752012Y-169468698D01*
X109518363Y-169119017D01*
X109220983Y-168821637D01*
X108871302Y-168587988D01*
X108482756Y-168427047D01*
X108070279Y-168345000D01*
X107649721Y-168345000D01*
X107237244Y-168427047D01*
X106848698Y-168587988D01*
X106499017Y-168821637D01*
X106201637Y-169119017D01*
X105967988Y-169468698D01*
X105807047Y-169857244D01*
X105725000Y-170269721D01*
X89995000Y-170269721D01*
X89912953Y-169857244D01*
X89752012Y-169468698D01*
X89518363Y-169119017D01*
X89220983Y-168821637D01*
X88871302Y-168587988D01*
X88482756Y-168427047D01*
X88070279Y-168345000D01*
X87649721Y-168345000D01*
X87237244Y-168427047D01*
X86848698Y-168587988D01*
X86499017Y-168821637D01*
X86201637Y-169119017D01*
X85967988Y-169468698D01*
X85807047Y-169857244D01*
X85725000Y-170269721D01*
X24257000Y-170269721D01*
X24257000Y-150269721D01*
X85725000Y-150269721D01*
X85725000Y-150690279D01*
X85807047Y-151102756D01*
X85967988Y-151491302D01*
X86201637Y-151840983D01*
X86499017Y-152138363D01*
X86848698Y-152372012D01*
X87237244Y-152532953D01*
X87649721Y-152615000D01*
X88070279Y-152615000D01*
X88482756Y-152532953D01*
X88871302Y-152372012D01*
X89220983Y-152138363D01*
X89518363Y-151840983D01*
X89752012Y-151491302D01*
X89912953Y-151102756D01*
X89995000Y-150690279D01*
X89995000Y-150269721D01*
X105725000Y-150269721D01*
X105725000Y-150690279D01*
X105807047Y-151102756D01*
X105967988Y-151491302D01*
X106201637Y-151840983D01*
X106499017Y-152138363D01*
X106848698Y-152372012D01*
X107237244Y-152532953D01*
X107649721Y-152615000D01*
X108070279Y-152615000D01*
X108482756Y-152532953D01*
X108871302Y-152372012D01*
X109220983Y-152138363D01*
X109518363Y-151840983D01*
X109752012Y-151491302D01*
X109912953Y-151102756D01*
X109995000Y-150690279D01*
X109995000Y-150269721D01*
X109912953Y-149857244D01*
X109752012Y-149468698D01*
X109518363Y-149119017D01*
X109220983Y-148821637D01*
X108871302Y-148587988D01*
X108482756Y-148427047D01*
X108070279Y-148345000D01*
X107649721Y-148345000D01*
X107237244Y-148427047D01*
X106848698Y-148587988D01*
X106499017Y-148821637D01*
X106201637Y-149119017D01*
X105967988Y-149468698D01*
X105807047Y-149857244D01*
X105725000Y-150269721D01*
X89995000Y-150269721D01*
X89912953Y-149857244D01*
X89752012Y-149468698D01*
X89518363Y-149119017D01*
X89220983Y-148821637D01*
X88871302Y-148587988D01*
X88482756Y-148427047D01*
X88070279Y-148345000D01*
X87649721Y-148345000D01*
X87237244Y-148427047D01*
X86848698Y-148587988D01*
X86499017Y-148821637D01*
X86201637Y-149119017D01*
X85967988Y-149468698D01*
X85807047Y-149857244D01*
X85725000Y-150269721D01*
X24257000Y-150269721D01*
X24257000Y-133269721D01*
X80725000Y-133269721D01*
X80725000Y-133690279D01*
X80807047Y-134102756D01*
X80967988Y-134491302D01*
X81201637Y-134840983D01*
X81499017Y-135138363D01*
X81848698Y-135372012D01*
X82237244Y-135532953D01*
X82649721Y-135615000D01*
X83070279Y-135615000D01*
X83482756Y-135532953D01*
X83871302Y-135372012D01*
X84220983Y-135138363D01*
X84518363Y-134840983D01*
X84752012Y-134491302D01*
X84912953Y-134102756D01*
X84995000Y-133690279D01*
X84995000Y-133269721D01*
X110725000Y-133269721D01*
X110725000Y-133690279D01*
X110807047Y-134102756D01*
X110967988Y-134491302D01*
X111201637Y-134840983D01*
X111499017Y-135138363D01*
X111848698Y-135372012D01*
X112237244Y-135532953D01*
X112649721Y-135615000D01*
X113070279Y-135615000D01*
X113482756Y-135532953D01*
X113871302Y-135372012D01*
X114220983Y-135138363D01*
X114518363Y-134840983D01*
X114752012Y-134491302D01*
X114912953Y-134102756D01*
X114995000Y-133690279D01*
X114995000Y-133269721D01*
X114912953Y-132857244D01*
X114752012Y-132468698D01*
X114518363Y-132119017D01*
X114220983Y-131821637D01*
X113871302Y-131587988D01*
X113482756Y-131427047D01*
X113070279Y-131345000D01*
X112649721Y-131345000D01*
X112237244Y-131427047D01*
X111848698Y-131587988D01*
X111499017Y-131821637D01*
X111201637Y-132119017D01*
X110967988Y-132468698D01*
X110807047Y-132857244D01*
X110725000Y-133269721D01*
X84995000Y-133269721D01*
X84912953Y-132857244D01*
X84752012Y-132468698D01*
X84518363Y-132119017D01*
X84220983Y-131821637D01*
X83871302Y-131587988D01*
X83482756Y-131427047D01*
X83070279Y-131345000D01*
X82649721Y-131345000D01*
X82237244Y-131427047D01*
X81848698Y-131587988D01*
X81499017Y-131821637D01*
X81201637Y-132119017D01*
X80967988Y-132468698D01*
X80807047Y-132857244D01*
X80725000Y-133269721D01*
X24257000Y-133269721D01*
X24257000Y-94980000D01*
X86671686Y-94980000D01*
X86675001Y-95013657D01*
X86675000Y-115946353D01*
X86671686Y-115980000D01*
X86684912Y-116114283D01*
X86724081Y-116243406D01*
X86787688Y-116362407D01*
X86873289Y-116466711D01*
X86977593Y-116552312D01*
X87096594Y-116615919D01*
X87225717Y-116655088D01*
X87360000Y-116668314D01*
X87393647Y-116665000D01*
X106716420Y-116665000D01*
X106716420Y-117444690D01*
X106962149Y-119939618D01*
X107689893Y-122338668D01*
X108871684Y-124549644D01*
X110462108Y-126487582D01*
X112400046Y-128078006D01*
X114611022Y-129259797D01*
X117010072Y-129987541D01*
X119505000Y-130233270D01*
X137267300Y-130233270D01*
X139762228Y-129987541D01*
X142161278Y-129259797D01*
X144372254Y-128078006D01*
X146310192Y-126487582D01*
X147617728Y-124894344D01*
X156575000Y-124894344D01*
X156575000Y-125265656D01*
X156647439Y-125629834D01*
X156789534Y-125972882D01*
X156995825Y-126281618D01*
X157258382Y-126544175D01*
X157567118Y-126750466D01*
X157910166Y-126892561D01*
X158274344Y-126965000D01*
X158645656Y-126965000D01*
X159009834Y-126892561D01*
X159352882Y-126750466D01*
X159661618Y-126544175D01*
X159924175Y-126281618D01*
X160130466Y-125972882D01*
X160272561Y-125629834D01*
X160345000Y-125265656D01*
X160345000Y-124894344D01*
X160272561Y-124530166D01*
X160130466Y-124187118D01*
X159924175Y-123878382D01*
X159661618Y-123615825D01*
X159352882Y-123409534D01*
X159009834Y-123267439D01*
X158645656Y-123195000D01*
X158274344Y-123195000D01*
X157910166Y-123267439D01*
X157567118Y-123409534D01*
X157258382Y-123615825D01*
X156995825Y-123878382D01*
X156789534Y-124187118D01*
X156647439Y-124530166D01*
X156575000Y-124894344D01*
X147617728Y-124894344D01*
X147900616Y-124549644D01*
X149082407Y-122338668D01*
X149810151Y-119939618D01*
X150055880Y-117444690D01*
X150055880Y-116235310D01*
X149810151Y-113740382D01*
X149082407Y-111341332D01*
X147900616Y-109130356D01*
X146310192Y-107192418D01*
X144372254Y-105601994D01*
X142161278Y-104420203D01*
X139762228Y-103692459D01*
X137267300Y-103446730D01*
X119505000Y-103446730D01*
X117010072Y-103692459D01*
X114611022Y-104420203D01*
X112400046Y-105601994D01*
X110462108Y-107192418D01*
X109045000Y-108919170D01*
X109045000Y-95013646D01*
X109048314Y-94980000D01*
X109035088Y-94845717D01*
X108995919Y-94716594D01*
X108932312Y-94597593D01*
X108846711Y-94493289D01*
X108742407Y-94407688D01*
X108623406Y-94344081D01*
X108494283Y-94304912D01*
X108393647Y-94295000D01*
X108360000Y-94291686D01*
X108326353Y-94295000D01*
X101045000Y-94295000D01*
X101045000Y-92694344D01*
X142375000Y-92694344D01*
X142375000Y-93065656D01*
X142447439Y-93429834D01*
X142589534Y-93772882D01*
X142795825Y-94081618D01*
X143058382Y-94344175D01*
X143367118Y-94550466D01*
X143710166Y-94692561D01*
X144074344Y-94765000D01*
X144445656Y-94765000D01*
X144809834Y-94692561D01*
X145152882Y-94550466D01*
X145461618Y-94344175D01*
X145724175Y-94081618D01*
X145930466Y-93772882D01*
X146072561Y-93429834D01*
X146145000Y-93065656D01*
X146145000Y-92694344D01*
X156575000Y-92694344D01*
X156575000Y-93065656D01*
X156647439Y-93429834D01*
X156789534Y-93772882D01*
X156995825Y-94081618D01*
X157258382Y-94344175D01*
X157567118Y-94550466D01*
X157910166Y-94692561D01*
X158274344Y-94765000D01*
X158645656Y-94765000D01*
X159009834Y-94692561D01*
X159352882Y-94550466D01*
X159661618Y-94344175D01*
X159924175Y-94081618D01*
X160130466Y-93772882D01*
X160272561Y-93429834D01*
X160345000Y-93065656D01*
X160345000Y-92694344D01*
X160272561Y-92330166D01*
X160130466Y-91987118D01*
X159924175Y-91678382D01*
X159661618Y-91415825D01*
X159352882Y-91209534D01*
X159009834Y-91067439D01*
X158645656Y-90995000D01*
X158274344Y-90995000D01*
X157910166Y-91067439D01*
X157567118Y-91209534D01*
X157258382Y-91415825D01*
X156995825Y-91678382D01*
X156789534Y-91987118D01*
X156647439Y-92330166D01*
X156575000Y-92694344D01*
X146145000Y-92694344D01*
X146072561Y-92330166D01*
X145930466Y-91987118D01*
X145724175Y-91678382D01*
X145461618Y-91415825D01*
X145152882Y-91209534D01*
X144809834Y-91067439D01*
X144445656Y-90995000D01*
X144074344Y-90995000D01*
X143710166Y-91067439D01*
X143367118Y-91209534D01*
X143058382Y-91415825D01*
X142795825Y-91678382D01*
X142589534Y-91987118D01*
X142447439Y-92330166D01*
X142375000Y-92694344D01*
X101045000Y-92694344D01*
X101045000Y-91013647D01*
X101048314Y-90980000D01*
X101035088Y-90845717D01*
X100995919Y-90716594D01*
X100932312Y-90597593D01*
X100846711Y-90493289D01*
X100742407Y-90407688D01*
X100623406Y-90344081D01*
X100494283Y-90304912D01*
X100393647Y-90295000D01*
X100360000Y-90291686D01*
X100326353Y-90295000D01*
X95393647Y-90295000D01*
X95360000Y-90291686D01*
X95326353Y-90295000D01*
X95225717Y-90304912D01*
X95096594Y-90344081D01*
X94977593Y-90407688D01*
X94873289Y-90493289D01*
X94787688Y-90597593D01*
X94724081Y-90716594D01*
X94684912Y-90845717D01*
X94671686Y-90980000D01*
X94675001Y-91013657D01*
X94675000Y-94295000D01*
X87393647Y-94295000D01*
X87360000Y-94291686D01*
X87326353Y-94295000D01*
X87225717Y-94304912D01*
X87096594Y-94344081D01*
X86977593Y-94407688D01*
X86873289Y-94493289D01*
X86787688Y-94597593D01*
X86724081Y-94716594D01*
X86684912Y-94845717D01*
X86671686Y-94980000D01*
X24257000Y-94980000D01*
X24257000Y-80194344D01*
X78075000Y-80194344D01*
X78075000Y-80565656D01*
X78147439Y-80929834D01*
X78289534Y-81272882D01*
X78495825Y-81581618D01*
X78758382Y-81844175D01*
X79067118Y-82050466D01*
X79410166Y-82192561D01*
X79774344Y-82265000D01*
X80145656Y-82265000D01*
X80509834Y-82192561D01*
X80852882Y-82050466D01*
X81161618Y-81844175D01*
X81424175Y-81581618D01*
X81630466Y-81272882D01*
X81772561Y-80929834D01*
X81845000Y-80565656D01*
X81845000Y-80194344D01*
X139875000Y-80194344D01*
X139875000Y-80565656D01*
X139947439Y-80929834D01*
X140089534Y-81272882D01*
X140295825Y-81581618D01*
X140558382Y-81844175D01*
X140867118Y-82050466D01*
X141210166Y-82192561D01*
X141574344Y-82265000D01*
X141945656Y-82265000D01*
X142309834Y-82192561D01*
X142652882Y-82050466D01*
X142961618Y-81844175D01*
X143224175Y-81581618D01*
X143430466Y-81272882D01*
X143572561Y-80929834D01*
X143645000Y-80565656D01*
X143645000Y-80194344D01*
X143572561Y-79830166D01*
X143430466Y-79487118D01*
X143224175Y-79178382D01*
X142961618Y-78915825D01*
X142652882Y-78709534D01*
X142309834Y-78567439D01*
X141945656Y-78495000D01*
X141574344Y-78495000D01*
X141210166Y-78567439D01*
X140867118Y-78709534D01*
X140558382Y-78915825D01*
X140295825Y-79178382D01*
X140089534Y-79487118D01*
X139947439Y-79830166D01*
X139875000Y-80194344D01*
X81845000Y-80194344D01*
X81772561Y-79830166D01*
X81630466Y-79487118D01*
X81424175Y-79178382D01*
X81161618Y-78915825D01*
X80852882Y-78709534D01*
X80509834Y-78567439D01*
X80145656Y-78495000D01*
X79774344Y-78495000D01*
X79410166Y-78567439D01*
X79067118Y-78709534D01*
X78758382Y-78915825D01*
X78495825Y-79178382D01*
X78289534Y-79487118D01*
X78147439Y-79830166D01*
X78075000Y-80194344D01*
X24257000Y-80194344D01*
X24257000Y-53394344D01*
X78075000Y-53394344D01*
X78075000Y-53765656D01*
X78147439Y-54129834D01*
X78289534Y-54472882D01*
X78495825Y-54781618D01*
X78758382Y-55044175D01*
X79067118Y-55250466D01*
X79410166Y-55392561D01*
X79774344Y-55465000D01*
X80145656Y-55465000D01*
X80509834Y-55392561D01*
X80852882Y-55250466D01*
X81161618Y-55044175D01*
X81424175Y-54781618D01*
X81630466Y-54472882D01*
X81772561Y-54129834D01*
X81845000Y-53765656D01*
X81845000Y-53394344D01*
X139875000Y-53394344D01*
X139875000Y-53765656D01*
X139947439Y-54129834D01*
X140089534Y-54472882D01*
X140295825Y-54781618D01*
X140558382Y-55044175D01*
X140867118Y-55250466D01*
X141210166Y-55392561D01*
X141574344Y-55465000D01*
X141945656Y-55465000D01*
X142309834Y-55392561D01*
X142652882Y-55250466D01*
X142961618Y-55044175D01*
X143224175Y-54781618D01*
X143430466Y-54472882D01*
X143572561Y-54129834D01*
X143645000Y-53765656D01*
X143645000Y-53394344D01*
X143572561Y-53030166D01*
X143430466Y-52687118D01*
X143224175Y-52378382D01*
X142961618Y-52115825D01*
X142652882Y-51909534D01*
X142309834Y-51767439D01*
X141945656Y-51695000D01*
X141574344Y-51695000D01*
X141210166Y-51767439D01*
X140867118Y-51909534D01*
X140558382Y-52115825D01*
X140295825Y-52378382D01*
X140089534Y-52687118D01*
X139947439Y-53030166D01*
X139875000Y-53394344D01*
X81845000Y-53394344D01*
X81772561Y-53030166D01*
X81630466Y-52687118D01*
X81424175Y-52378382D01*
X81161618Y-52115825D01*
X80852882Y-51909534D01*
X80509834Y-51767439D01*
X80145656Y-51695000D01*
X79774344Y-51695000D01*
X79410166Y-51767439D01*
X79067118Y-51909534D01*
X78758382Y-52115825D01*
X78495825Y-52378382D01*
X78289534Y-52687118D01*
X78147439Y-53030166D01*
X78075000Y-53394344D01*
X24257000Y-53394344D01*
X24257000Y-43269721D01*
X80725000Y-43269721D01*
X80725000Y-43690279D01*
X80807047Y-44102756D01*
X80967988Y-44491302D01*
X81201637Y-44840983D01*
X81499017Y-45138363D01*
X81848698Y-45372012D01*
X82237244Y-45532953D01*
X82649721Y-45615000D01*
X83070279Y-45615000D01*
X83482756Y-45532953D01*
X83871302Y-45372012D01*
X84220983Y-45138363D01*
X84518363Y-44840983D01*
X84752012Y-44491302D01*
X84912953Y-44102756D01*
X84995000Y-43690279D01*
X84995000Y-43269721D01*
X110725000Y-43269721D01*
X110725000Y-43690279D01*
X110807047Y-44102756D01*
X110967988Y-44491302D01*
X111201637Y-44840983D01*
X111499017Y-45138363D01*
X111848698Y-45372012D01*
X112237244Y-45532953D01*
X112649721Y-45615000D01*
X113070279Y-45615000D01*
X113482756Y-45532953D01*
X113871302Y-45372012D01*
X114220983Y-45138363D01*
X114518363Y-44840983D01*
X114752012Y-44491302D01*
X114912953Y-44102756D01*
X114995000Y-43690279D01*
X114995000Y-43269721D01*
X114912953Y-42857244D01*
X114752012Y-42468698D01*
X114518363Y-42119017D01*
X114220983Y-41821637D01*
X113871302Y-41587988D01*
X113482756Y-41427047D01*
X113070279Y-41345000D01*
X112649721Y-41345000D01*
X112237244Y-41427047D01*
X111848698Y-41587988D01*
X111499017Y-41821637D01*
X111201637Y-42119017D01*
X110967988Y-42468698D01*
X110807047Y-42857244D01*
X110725000Y-43269721D01*
X84995000Y-43269721D01*
X84912953Y-42857244D01*
X84752012Y-42468698D01*
X84518363Y-42119017D01*
X84220983Y-41821637D01*
X83871302Y-41587988D01*
X83482756Y-41427047D01*
X83070279Y-41345000D01*
X82649721Y-41345000D01*
X82237244Y-41427047D01*
X81848698Y-41587988D01*
X81499017Y-41821637D01*
X81201637Y-42119017D01*
X80967988Y-42468698D01*
X80807047Y-42857244D01*
X80725000Y-43269721D01*
X24257000Y-43269721D01*
X24257000Y-31877000D01*
X171143394Y-31877000D01*
X168820197Y-34200197D01*
M02*
