M48
; DRILL file {KiCad (5.1.2)-1} date 2019/05/29 15:36:22
; FORMAT={-:-/ absolute / inch / decimal}
; #@! TF.CreationDate,2019-05-29T15:36:22-07:00
; #@! TF.GenerationSoftware,Kicad,Pcbnew,(5.1.2)-1
; #@! TF.FileFunction,Plated,1,2,PTH
FMAT,2
INCH
T1C0.0157
%
G90
G05
T1
X1.0961Y-1.3969
X1.0961Y-2.1843
X1.0961Y-2.9717
X1.0961Y-3.7591
X1.0961Y-4.5465
X1.0961Y-5.3339
X1.0961Y-6.1213
X1.0961Y-6.9087
X1.8835Y-1.3969
X1.8835Y-2.1843
X1.8835Y-2.9717
X1.8835Y-3.7591
X1.8835Y-5.3339
X1.8835Y-5.9055
X1.8835Y-6.9087
X1.9685Y-4.5276
X1.9685Y-4.6063
X1.9685Y-4.685
X2.0079Y-4.4882
X2.0079Y-4.5669
X2.0079Y-4.6457
X2.0079Y-4.7288
X2.0472Y-4.5276
X2.0472Y-4.6063
X2.0472Y-4.685
X2.0866Y-4.4882
X2.0866Y-4.7288
X2.126Y-4.5276
X2.126Y-4.685
X2.6654Y-4.3228
X2.6654Y-4.8937
X2.6709Y-1.3969
X2.6709Y-2.1843
X2.6709Y-2.9717
X2.6709Y-3.7591
X2.6709Y-5.3339
X2.6709Y-6.1213
X2.6709Y-6.9087
X3.3465Y-3.8976
X3.4583Y-1.3969
X3.4583Y-2.1843
X3.4583Y-2.9717
X3.4583Y-5.3339
X3.4583Y-6.1213
X3.4583Y-6.9087
X3.5039Y-4.685
X4.2457Y-1.3969
X4.2457Y-2.1843
X4.2457Y-2.9717
X4.2457Y-5.3339
X4.2457Y-6.1213
X4.2457Y-6.9087
X4.3307Y-3.622
X4.4094Y-4.6457
X5.0331Y-1.3969
X5.0331Y-2.1843
X5.0331Y-2.9717
X5.0331Y-3.7591
X5.0331Y-4.5465
X5.0331Y-5.3339
X5.0331Y-6.1213
X5.0331Y-6.9087
X5.8205Y-1.3969
X5.8205Y-2.1843
X5.8205Y-2.9717
X5.8205Y-3.7591
X5.8205Y-4.5465
X5.8205Y-5.3339
X5.8205Y-6.1213
X5.8205Y-6.9087
X6.6079Y-2.1843
X6.6079Y-2.9717
X6.6079Y-3.8189
X6.6079Y-4.5465
X6.6079Y-5.3339
X6.6079Y-6.1213
X6.6079Y-6.9087
X6.6142Y-1.5354
X6.2913Y-6.8898
X6.2205Y-6.8898
T0
M30
