G04 #@! TF.GenerationSoftware,KiCad,Pcbnew,(5.1.2)-1*
G04 #@! TF.CreationDate,2019-05-25T15:26:14-07:00*
G04 #@! TF.ProjectId,backplane,6261636b-706c-4616-9e65-2e6b69636164,v1.1*
G04 #@! TF.SameCoordinates,Original*
G04 #@! TF.FileFunction,Legend,Bot*
G04 #@! TF.FilePolarity,Positive*
%FSLAX46Y46*%
G04 Gerber Fmt 4.6, Leading zero omitted, Abs format (unit mm)*
G04 Created by KiCad (PCBNEW (5.1.2)-1) date 2019-05-25 15:26:14*
%MOMM*%
%LPD*%
G04 APERTURE LIST*
%ADD10C,0.200000*%
%ADD11C,0.120000*%
%ADD12C,0.150000*%
G04 APERTURE END LIST*
D10*
X38393637Y-149778714D02*
X38393637Y-149778714D01*
D11*
X117790000Y-105410000D02*
G75*
G03X117790000Y-105410000I-20000000J0D01*
G01*
X77860000Y-140480000D02*
X77860000Y-180480000D01*
X77860000Y-180480000D02*
X117860000Y-180480000D01*
X117860000Y-180480000D02*
X117860000Y-140480000D01*
X117860000Y-140480000D02*
X77860000Y-140480000D01*
D12*
X95028095Y-82716666D02*
X95504285Y-82716666D01*
X94932857Y-83002380D02*
X95266190Y-82002380D01*
X95599523Y-83002380D01*
X95932857Y-82335714D02*
X95932857Y-83002380D01*
X95932857Y-82430952D02*
X95980476Y-82383333D01*
X96075714Y-82335714D01*
X96218571Y-82335714D01*
X96313809Y-82383333D01*
X96361428Y-82478571D01*
X96361428Y-83002380D01*
X96694761Y-82335714D02*
X97075714Y-82335714D01*
X96837619Y-82002380D02*
X96837619Y-82859523D01*
X96885238Y-82954761D01*
X96980476Y-83002380D01*
X97075714Y-83002380D01*
X97790000Y-82954761D02*
X97694761Y-83002380D01*
X97504285Y-83002380D01*
X97409047Y-82954761D01*
X97361428Y-82859523D01*
X97361428Y-82478571D01*
X97409047Y-82383333D01*
X97504285Y-82335714D01*
X97694761Y-82335714D01*
X97790000Y-82383333D01*
X97837619Y-82478571D01*
X97837619Y-82573809D01*
X97361428Y-82669047D01*
X98266190Y-82335714D02*
X98266190Y-83002380D01*
X98266190Y-82430952D02*
X98313809Y-82383333D01*
X98409047Y-82335714D01*
X98551904Y-82335714D01*
X98647142Y-82383333D01*
X98694761Y-82478571D01*
X98694761Y-83002380D01*
X99170952Y-82335714D02*
X99170952Y-83002380D01*
X99170952Y-82430952D02*
X99218571Y-82383333D01*
X99313809Y-82335714D01*
X99456666Y-82335714D01*
X99551904Y-82383333D01*
X99599523Y-82478571D01*
X99599523Y-83002380D01*
X100504285Y-83002380D02*
X100504285Y-82478571D01*
X100456666Y-82383333D01*
X100361428Y-82335714D01*
X100170952Y-82335714D01*
X100075714Y-82383333D01*
X100504285Y-82954761D02*
X100409047Y-83002380D01*
X100170952Y-83002380D01*
X100075714Y-82954761D01*
X100028095Y-82859523D01*
X100028095Y-82764285D01*
X100075714Y-82669047D01*
X100170952Y-82621428D01*
X100409047Y-82621428D01*
X100504285Y-82573809D01*
X92894285Y-179662380D02*
X92894285Y-178662380D01*
X92894285Y-179138571D02*
X93465714Y-179138571D01*
X93465714Y-179662380D02*
X93465714Y-178662380D01*
X94370476Y-179662380D02*
X94370476Y-179138571D01*
X94322857Y-179043333D01*
X94227619Y-178995714D01*
X94037142Y-178995714D01*
X93941904Y-179043333D01*
X94370476Y-179614761D02*
X94275238Y-179662380D01*
X94037142Y-179662380D01*
X93941904Y-179614761D01*
X93894285Y-179519523D01*
X93894285Y-179424285D01*
X93941904Y-179329047D01*
X94037142Y-179281428D01*
X94275238Y-179281428D01*
X94370476Y-179233809D01*
X94846666Y-178995714D02*
X94846666Y-179662380D01*
X94846666Y-179090952D02*
X94894285Y-179043333D01*
X94989523Y-178995714D01*
X95132380Y-178995714D01*
X95227619Y-179043333D01*
X95275238Y-179138571D01*
X95275238Y-179662380D01*
X96180000Y-179662380D02*
X96180000Y-178662380D01*
X96180000Y-179614761D02*
X96084761Y-179662380D01*
X95894285Y-179662380D01*
X95799047Y-179614761D01*
X95751428Y-179567142D01*
X95703809Y-179471904D01*
X95703809Y-179186190D01*
X95751428Y-179090952D01*
X95799047Y-179043333D01*
X95894285Y-178995714D01*
X96084761Y-178995714D01*
X96180000Y-179043333D01*
X96799047Y-179662380D02*
X96703809Y-179614761D01*
X96656190Y-179519523D01*
X96656190Y-178662380D01*
X97560952Y-179614761D02*
X97465714Y-179662380D01*
X97275238Y-179662380D01*
X97180000Y-179614761D01*
X97132380Y-179519523D01*
X97132380Y-179138571D01*
X97180000Y-179043333D01*
X97275238Y-178995714D01*
X97465714Y-178995714D01*
X97560952Y-179043333D01*
X97608571Y-179138571D01*
X97608571Y-179233809D01*
X97132380Y-179329047D01*
X98037142Y-179281428D02*
X98799047Y-179281428D01*
X99846666Y-179567142D02*
X99799047Y-179614761D01*
X99656190Y-179662380D01*
X99560952Y-179662380D01*
X99418095Y-179614761D01*
X99322857Y-179519523D01*
X99275238Y-179424285D01*
X99227619Y-179233809D01*
X99227619Y-179090952D01*
X99275238Y-178900476D01*
X99322857Y-178805238D01*
X99418095Y-178710000D01*
X99560952Y-178662380D01*
X99656190Y-178662380D01*
X99799047Y-178710000D01*
X99846666Y-178757619D01*
X100418095Y-179662380D02*
X100322857Y-179614761D01*
X100275238Y-179519523D01*
X100275238Y-178662380D01*
X101227619Y-179662380D02*
X101227619Y-179138571D01*
X101180000Y-179043333D01*
X101084761Y-178995714D01*
X100894285Y-178995714D01*
X100799047Y-179043333D01*
X101227619Y-179614761D02*
X101132380Y-179662380D01*
X100894285Y-179662380D01*
X100799047Y-179614761D01*
X100751428Y-179519523D01*
X100751428Y-179424285D01*
X100799047Y-179329047D01*
X100894285Y-179281428D01*
X101132380Y-179281428D01*
X101227619Y-179233809D01*
X101703809Y-179662380D02*
X101703809Y-178995714D01*
X101703809Y-179090952D02*
X101751428Y-179043333D01*
X101846666Y-178995714D01*
X101989523Y-178995714D01*
X102084761Y-179043333D01*
X102132380Y-179138571D01*
X102132380Y-179662380D01*
X102132380Y-179138571D02*
X102180000Y-179043333D01*
X102275238Y-178995714D01*
X102418095Y-178995714D01*
X102513333Y-179043333D01*
X102560952Y-179138571D01*
X102560952Y-179662380D01*
X103037142Y-178995714D02*
X103037142Y-179995714D01*
X103037142Y-179043333D02*
X103132380Y-178995714D01*
X103322857Y-178995714D01*
X103418095Y-179043333D01*
X103465714Y-179090952D01*
X103513333Y-179186190D01*
X103513333Y-179471904D01*
X103465714Y-179567142D01*
X103418095Y-179614761D01*
X103322857Y-179662380D01*
X103132380Y-179662380D01*
X103037142Y-179614761D01*
M02*
